<?xml version="1.0" encoding="UTF-8"?><svg id="Calque_1" xmlns="http://www.w3.org/2000/svg" viewBox="0 0 1920 1080"><defs><style>.cls-1{fill:#fa3e4e;}.cls-2{fill:#f4f2f3;}.cls-3{fill:#fc3;}.cls-4{fill:#2dd2be;}</style></defs><g><path class="cls-3" d="M356.24,668.76c-55.23,0-111.66-18.21-154.82-49.96-46.62-34.3-73.95-81.7-76.94-133.48-4.3-74.38,15.51-140.01,57.29-189.79,38.14-45.44,92.29-74.43,152.47-81.64,7.43-.89,15.07-1.34,22.72-1.34,50.42,0,103.83,19.74,146.54,54.15,45.15,36.38,75.2,86.08,84.61,139.95,11.28,64.6-3.97,129.38-41.83,177.72-38.9,49.67-98.75,78.65-173.07,83.79-5.58,.39-11.29,.58-16.97,.58Z"/><path d="M356.96,217.56c24.75,0,49.9,4.68,74.74,13.9,24.7,9.17,47.8,22.34,68.65,39.14,44.21,35.62,73.62,84.24,82.81,136.92,5.28,30.24,4.56,61.76-2.07,91.14-6.98,30.91-20.03,58.71-38.77,82.64-38.01,48.53-96.61,76.84-169.48,81.89-5.46,.38-11.06,.57-16.62,.57-54.19,0-109.54-17.85-151.85-48.98-21.94-16.14-39.51-35.1-52.23-56.36-13.55-22.64-21.18-47.33-22.69-73.38-4.23-73.08,15.18-137.5,56.13-186.28,37.32-44.46,90.32-72.83,149.23-79.89,7.23-.87,14.67-1.3,22.13-1.3h0m0-10c-7.82,0-15.6,.45-23.31,1.38-120.35,14.41-223.47,115.72-214.16,276.67,6.66,115.05,125.02,188.15,236.75,188.15,5.79,0,11.57-.2,17.31-.59,172.92-11.97,240.33-147.96,219.48-267.36-20.42-116.98-131.27-198.24-236.07-198.24h0Z"/></g><g><path class="cls-2" d="M1478.33,933.66c-38.23,0-75.18-6.84-109.83-20.34-36.7-14.29-68.93-35.4-95.79-62.73-56.28-57.26-85.96-133.15-81.42-208.21,4.67-77.13,44.82-147.94,116.1-204.78,26.97-21.5,56.44-38.12,87.59-49.39,30.88-11.17,62.72-16.83,94.62-16.83,67.71,0,131.4,25.24,184.16,73,75.11,67.98,90.48,146.57,90.14,200.52-.26,41.7-10.07,84.66-28.37,124.25-17.76,38.41-42.99,72.71-72.97,99.17-47.05,41.53-114.2,65.35-184.23,65.35Z"/><path d="M1489.6,376.37c32.27,0,63.9,5.92,94,17.58,31.33,12.14,60.54,30.35,86.8,54.12,73.74,66.74,88.83,143.85,88.5,196.78-.26,40.99-9.9,83.24-27.9,122.18-17.47,37.79-42.28,71.51-71.74,97.52-23.26,20.53-51.08,36.56-82.69,47.65-31.13,10.92-64.17,16.45-98.23,16.45-37.6,0-73.95-6.73-108.02-20-36.04-14.04-67.68-34.75-94.04-61.57-26.45-26.91-47.72-59.29-61.51-93.64-14.52-36.16-20.74-73.43-18.48-110.76,4.58-75.68,44.08-145.24,114.23-201.17,26.55-21.16,55.54-37.51,86.18-48.6,30.34-10.97,61.6-16.54,92.92-16.54h0m0-10c-65.02,0-130.06,23.25-185.33,67.31-165.29,131.79-138.77,314.98-35.13,420.41,56.62,57.6,133.77,84.56,209.19,84.56,69.91,0,138.34-23.17,187.54-66.6,110.83-97.83,157.02-299.45,11.24-431.39-55.66-50.37-121.57-74.29-187.51-74.29h0Z"/></g><g><path class="cls-1" d="M1018.41,451.82c-40.77,0-79.88-12.76-113.1-36.91-31.61-22.98-55.19-54.82-66.39-89.65-13.88-43.16-12.79-90.54,3.05-133.41,16.44-44.48,47.88-80.31,88.52-100.91,27.08-13.72,60.48-21.28,94.06-21.28,41.13,0,79.37,10.77,110.58,31.14,35.85,23.4,60,57.64,71.78,101.75,11.5,43.03,6.18,91.57-14.98,136.68-19.94,42.51-51.39,76.25-86.29,92.58-28.4,13.28-57.75,20.02-87.24,20.02Z"/><path d="M1024.56,74.66c19.29,0,38.15,2.48,56.08,7.36,18.89,5.15,36.31,12.88,51.76,22.97,16.51,10.78,30.68,24.21,42.12,39.93,12.39,17.01,21.66,36.83,27.56,58.92,11.19,41.9,5.98,89.23-14.67,133.27-9.48,20.21-22.1,39.08-36.5,54.58-14.44,15.54-30.82,27.84-47.38,35.59-27.73,12.97-56.37,19.55-85.12,19.55-20.11,0-39.98-3.24-59.07-9.62-18.27-6.11-35.46-14.97-51.09-26.34-30.76-22.36-53.69-53.31-64.57-87.14-13.54-42.1-12.48-88.32,2.98-130.15,7.8-21.09,18.93-40.14,33.09-56.62,14.87-17.29,32.7-31.28,53-41.57,26.38-13.37,58.99-20.74,91.81-20.74h0m-.01-10c-34.73,0-68.62,7.78-96.32,21.82-88.52,44.86-122.66,151.4-94.07,240.31,23.28,72.39,97.2,130.03,184.25,130.03,28.8,0,59.05-6.31,89.36-20.49,72.74-34.02,129.13-140.91,103.98-235.07-25.89-96.92-108.73-136.61-187.2-136.6h0Z"/></g><g><path class="cls-4" d="M836.4,918.67c-24.62,0-48.67-7.95-69.54-22.99-19.56-14.1-35.55-33.66-46.25-56.55-23.51-50.33-10.01-127.4,47.58-161.9,17.52-10.5,38.84-16.05,61.66-16.05,25.22,0,51.29,6.99,73.41,19.67,23.92,13.72,42.81,33.61,54.62,57.53,13.96,28.27,15.75,60.68,5.04,91.27-10.84,30.98-33.43,56.73-63.61,72.51-20.94,10.96-42.11,16.51-62.92,16.51Z"/><path d="M829.85,666.17c24.36,0,49.55,6.75,70.92,19.01,23.06,13.22,41.25,32.38,52.62,55.41,13.36,27.06,15.07,58.1,4.81,87.4-10.42,29.78-32.16,54.54-61.2,69.74-20.22,10.58-40.61,15.94-60.6,15.94-23.57,0-46.6-7.62-66.61-22.05-18.87-13.6-34.31-32.49-44.64-54.61-22.59-48.36-9.65-122.38,45.62-155.49,16.74-10.03,37.18-15.34,59.09-15.34h0m0-10c-23.06,0-45.45,5.51-64.23,16.76-60.02,35.96-74.16,115.59-49.54,168.3,21.52,46.07,65.98,82.43,120.31,82.43,20.57,0,42.55-5.21,65.24-17.08,65.16-34.08,90.62-109.89,60.73-170.43-25.89-52.44-80.92-79.99-132.52-79.99h0Z"/></g></svg>