<?xml version="1.0" encoding="UTF-8"?><svg id="Calque_1" xmlns="http://www.w3.org/2000/svg" xmlns:xlink="http://www.w3.org/1999/xlink" viewBox="0 0 1920 1080"><defs><style>.cls-1{fill:none;}.cls-2{clip-path:url(#clippath);}.cls-3{fill:url(#Dégradé_sans_nom_37);}.cls-4{fill:url(#Dégradé_sans_nom_29);}.cls-5{fill:url(#Dégradé_sans_nom_74);}.cls-6{fill:url(#Dégradé_sans_nom_15);}.cls-7{fill:url(#Dégradé_sans_nom_37-4);}.cls-8{fill:url(#Dégradé_sans_nom_37-5);}.cls-9{fill:url(#Dégradé_sans_nom_37-3);}.cls-10{fill:url(#Dégradé_sans_nom_37-6);}.cls-11{fill:url(#Dégradé_sans_nom_37-2);}.cls-12{fill:url(#Dégradé_sans_nom_37-7);}.cls-13{fill:url(#Dégradé_sans_nom_15-6);}.cls-14{fill:url(#Dégradé_sans_nom_15-5);}.cls-15{fill:url(#Dégradé_sans_nom_15-7);}.cls-16{fill:url(#Dégradé_sans_nom_15-2);}.cls-17{fill:url(#Dégradé_sans_nom_15-4);}.cls-18{fill:url(#Dégradé_sans_nom_15-3);}.cls-19{fill:url(#Dégradé_sans_nom_29-7);}.cls-20{fill:url(#Dégradé_sans_nom_29-5);}.cls-21{fill:url(#Dégradé_sans_nom_29-4);}.cls-22{fill:url(#Dégradé_sans_nom_29-3);}.cls-23{fill:url(#Dégradé_sans_nom_29-2);}.cls-24{fill:url(#Dégradé_sans_nom_29-6);}.cls-25{fill:url(#Dégradé_sans_nom_74-2);}.cls-26{fill:url(#Dégradé_sans_nom_74-5);}.cls-27{fill:url(#Dégradé_sans_nom_74-6);}.cls-28{fill:url(#Dégradé_sans_nom_74-3);}.cls-29{fill:url(#Dégradé_sans_nom_74-4);}</style><clipPath id="clippath"><rect class="cls-1" width="1920" height="1080"/></clipPath><linearGradient id="Dégradé_sans_nom_37" x1="-83.95" y1="344.92" x2="110.33" y2="878.71" gradientTransform="matrix(1, 0, 0, 1, 0, 0)" gradientUnits="userSpaceOnUse"><stop offset="0" stop-color="#d3389b"/><stop offset=".13" stop-color="#ce3798"/><stop offset=".27" stop-color="#c23592"/><stop offset=".41" stop-color="#ad3287"/><stop offset=".55" stop-color="#902d77"/><stop offset=".7" stop-color="#6b2863"/><stop offset=".84" stop-color="#3d214b"/><stop offset=".9" stop-color="#281e40"/></linearGradient><linearGradient id="Dégradé_sans_nom_29" x1="1779.37" y1="321.27" x2="2021.23" y2="985.77" gradientTransform="matrix(1, 0, 0, 1, 0, 0)" gradientUnits="userSpaceOnUse"><stop offset="0" stop-color="#76ff44"/><stop offset=".17" stop-color="#72fa47"/><stop offset=".35" stop-color="#66ee51"/><stop offset=".53" stop-color="#54d962"/><stop offset=".71" stop-color="#39bc79"/><stop offset=".89" stop-color="#189797"/><stop offset="1" stop-color="#007dad"/></linearGradient><linearGradient id="Dégradé_sans_nom_74" x1="1534.86" y1="890.79" x2="1726.21" y2="1416.51" gradientTransform="matrix(1, 0, 0, 1, 0, 0)" gradientUnits="userSpaceOnUse"><stop offset="0" stop-color="#f4f2f3"/><stop offset=".23" stop-color="#efedee"/><stop offset=".47" stop-color="#e3e1e2"/><stop offset=".71" stop-color="#cecdce"/><stop offset=".95" stop-color="#b1b1b1"/><stop offset="1" stop-color="#ababab"/></linearGradient><linearGradient id="Dégradé_sans_nom_74-2" x1="942.51" y1="-274.89" x2="1133.86" y2="250.82" xlink:href="#Dégradé_sans_nom_74"/><linearGradient id="Dégradé_sans_nom_15" x1="962.35" y1="324.4" x2="1176.06" y2="911.57" gradientTransform="matrix(1, 0, 0, 1, 0, 0)" gradientUnits="userSpaceOnUse"><stop offset="0" stop-color="#efeb1b"/><stop offset="1" stop-color="#f6a11b"/></linearGradient><linearGradient id="Dégradé_sans_nom_74-3" x1="659.22" y1="242.52" x2="804.95" y2="642.92" xlink:href="#Dégradé_sans_nom_74"/><linearGradient id="Dégradé_sans_nom_37-2" x1="636.84" y1="470.66" x2="773.85" y2="847.09" xlink:href="#Dégradé_sans_nom_37"/><linearGradient id="Dégradé_sans_nom_15-2" x1="285.19" y1="255.83" x2="440.7" y2="683.09" xlink:href="#Dégradé_sans_nom_15"/><linearGradient id="Dégradé_sans_nom_15-3" x1="442.48" y1="555.34" x2="625.7" y2="1058.72" xlink:href="#Dégradé_sans_nom_15"/><linearGradient id="Dégradé_sans_nom_15-4" x1="1546.7" y1="-267.18" x2="1837.86" y2="532.77" xlink:href="#Dégradé_sans_nom_15"/><linearGradient id="Dégradé_sans_nom_74-4" x1="1383.76" y1="392.29" x2="1575.11" y2="918" xlink:href="#Dégradé_sans_nom_74"/><linearGradient id="Dégradé_sans_nom_74-5" x1="598.97" y1="799.01" x2="790.31" y2="1324.73" xlink:href="#Dégradé_sans_nom_74"/><linearGradient id="Dégradé_sans_nom_74-6" x1="55.04" y1="-175.63" x2="280.12" y2="442.76" xlink:href="#Dégradé_sans_nom_74"/><linearGradient id="Dégradé_sans_nom_15-5" x1="1056.21" y1="286.45" x2="1281.28" y2="904.84" xlink:href="#Dégradé_sans_nom_15"/><linearGradient id="Dégradé_sans_nom_37-3" x1="956.41" y1="80.17" x2="1087.18" y2="439.47" xlink:href="#Dégradé_sans_nom_37"/><linearGradient id="Dégradé_sans_nom_37-4" x1="1837.31" y1="960.67" x2="1902.52" y2="1139.85" xlink:href="#Dégradé_sans_nom_37"/><linearGradient id="Dégradé_sans_nom_37-5" x1="1391.99" y1="760.67" x2="1496.18" y2="1046.93" xlink:href="#Dégradé_sans_nom_37"/><linearGradient id="Dégradé_sans_nom_37-6" x1="1088.73" y1="605.79" x2="1191.21" y2="887.36" xlink:href="#Dégradé_sans_nom_37"/><linearGradient id="Dégradé_sans_nom_37-7" x1="107.59" y1="615.84" x2="301.87" y2="1149.62" xlink:href="#Dégradé_sans_nom_37"/><linearGradient id="Dégradé_sans_nom_29-2" x1="784.6" y1="638.35" x2="893.06" y2="936.33" xlink:href="#Dégradé_sans_nom_29"/><linearGradient id="Dégradé_sans_nom_29-3" x1="1213.16" y1="156.95" x2="1392.81" y2="650.53" xlink:href="#Dégradé_sans_nom_29"/><linearGradient id="Dégradé_sans_nom_29-4" x1="107.41" y1="23.05" x2="164.37" y2="179.53" xlink:href="#Dégradé_sans_nom_29"/><linearGradient id="Dégradé_sans_nom_29-5" x1="383.34" y1="666.07" x2="481.24" y2="935.04" xlink:href="#Dégradé_sans_nom_29"/><linearGradient id="Dégradé_sans_nom_29-6" x1="95.02" y1="545.89" x2="176.38" y2="769.41" xlink:href="#Dégradé_sans_nom_29"/><linearGradient id="Dégradé_sans_nom_15-6" x1="1028.35" y1="805.72" x2="1220.34" y2="1333.22" xlink:href="#Dégradé_sans_nom_15"/><linearGradient id="Dégradé_sans_nom_15-7" x1="1667.19" y1="711.22" x2="1782.79" y2="1028.83" xlink:href="#Dégradé_sans_nom_15"/><linearGradient id="Dégradé_sans_nom_29-7" x1="541.75" y1="-94.46" x2="716.42" y2="385.45" xlink:href="#Dégradé_sans_nom_29"/></defs><g class="cls-2"><g><path class="cls-3" d="M8.21,897.04c-60.57,0-118.67-18.96-168.02-54.83-46.98-34.15-82.02-81.47-98.67-133.26-20.61-64.09-19-134.44,4.53-198.09,11.89-32.16,28.88-61.22,50.5-86.38,22.74-26.45,50.01-47.84,81.06-63.58,40.21-20.38,89.81-31.6,139.65-31.6,61.06,0,117.85,16,164.21,46.27,25.32,16.53,47.05,37.13,64.61,61.24,18.96,26.03,33.13,56.32,42.14,90.03,17.08,63.94,9.19,136.02-22.21,202.98-29.6,63.12-76.35,113.25-128.27,137.52-42.16,19.72-85.74,29.71-129.52,29.71Z"/><path d="M17.28,334.29c28.83,0,57.05,3.71,83.86,11.02,28.31,7.72,54.42,19.31,77.6,34.44,24.8,16.2,46.1,36.38,63.3,60,18.59,25.53,32.5,55.27,41.34,88.37,8.6,32.2,10.79,66.46,6.5,101.81-4.04,33.29-13.59,66.18-28.41,97.76-14.17,30.21-33.04,58.43-54.59,81.62-21.68,23.33-46.32,41.83-71.27,53.49-41.49,19.4-84.36,29.24-127.41,29.24-30.14,0-59.92-4.85-88.52-14.42-27.37-9.16-53.13-22.43-76.55-39.46-46.13-33.53-80.52-79.96-96.85-130.75-10.09-31.38-14.79-64.35-13.98-97.98,.81-33.37,7.01-65.95,18.43-96.85,11.68-31.6,28.37-60.15,49.6-84.85,22.31-25.95,49.06-46.94,79.53-62.38,39.52-20.03,88.31-31.06,137.4-31.06h0m-.02-10c-51.17,0-101.1,11.46-141.91,32.14-130.41,66.08-180.7,223.05-138.59,354.04,34.29,106.65,143.2,191.57,271.45,191.57,42.43,0,86.99-9.3,131.64-30.18,107.16-50.11,190.24-207.6,153.19-346.32-38.14-142.78-160.18-201.25-275.79-201.25h0Z"/></g><g><path class="cls-4" d="M1893.48,1010.68c-67.27,0-132.92-21.7-189.86-62.74-53.19-38.34-96.66-91.49-125.71-153.69-32.47-69.5-39.12-155.98-18.24-237.25,22.59-87.96,75.18-160.45,148.08-204.13,47.91-28.7,106.11-43.88,168.31-43.88,68.53,0,139.37,18.97,199.46,53.43,65.09,37.32,116.49,91.47,148.64,156.6,38.13,77.23,43.04,165.75,13.81,249.25-29.55,84.42-91.06,154.57-173.22,197.55-56.92,29.77-114.54,44.87-171.26,44.87Z"/><path d="M1876.07,313.99c33.6,0,67.5,4.47,100.75,13.3,33.82,8.98,66.19,22.26,96.21,39.47,64.22,36.83,114.93,90.24,146.64,154.47,18.89,38.27,29.55,79.36,31.66,122.11,2.06,41.63-4.03,83.1-18.09,123.27-29.13,83.21-89.79,152.38-170.82,194.77-56.2,29.4-113.04,44.3-168.94,44.3-33.97,0-67.53-5.55-99.73-16.5-30.6-10.4-59.94-25.64-87.21-45.3-26.27-18.94-50.35-41.77-71.56-67.84-20.8-25.57-38.48-53.8-52.54-83.9-15.6-33.39-25.49-72.2-28.6-112.23-3.17-40.83,.42-81.76,10.67-121.67,10.69-41.61,28.07-79.74,51.67-113.3,25.29-35.97,56.96-65.51,94.14-87.78,47.13-28.24,104.44-43.16,165.75-43.17h0m-.02-10c-61.36,0-120.92,14.65-170.88,44.59-159.69,95.68-197.32,307.53-131.8,447.79,57.26,122.58,175.55,219.31,320.11,219.31,54.72,0,113.22-13.87,173.58-45.44,173.37-90.69,241.09-292.37,161.57-453.43-68.88-139.51-215.29-212.82-352.58-212.81h0Z"/></g><g><path class="cls-5" d="M1629.43,1432.16c-38.23,0-75.18-6.84-109.83-20.34-36.7-14.29-68.93-35.4-95.79-62.73-56.28-57.26-85.96-133.15-81.42-208.21,4.67-77.13,44.82-147.94,116.1-204.78,26.97-21.5,56.44-38.12,87.59-49.39,30.88-11.17,62.72-16.83,94.62-16.83,67.71,0,131.4,25.24,184.16,73,75.11,67.98,90.48,146.57,90.14,200.52-.26,41.7-10.07,84.66-28.37,124.25-17.76,38.41-42.99,72.71-72.97,99.17-47.05,41.53-114.2,65.35-184.23,65.35Z"/><path d="M1640.7,874.87c32.27,0,63.9,5.92,94,17.58,31.33,12.14,60.54,30.35,86.8,54.12,73.74,66.74,88.83,143.85,88.5,196.78-.26,40.99-9.9,83.24-27.9,122.18-17.47,37.79-42.28,71.51-71.74,97.52-23.25,20.53-51.08,36.56-82.7,47.65-31.13,10.92-64.17,16.45-98.23,16.45-37.6,0-73.95-6.73-108.02-20-36.04-14.04-67.68-34.75-94.04-61.57-26.45-26.91-47.72-59.29-61.51-93.64-14.52-36.16-20.74-73.43-18.48-110.76,4.58-75.68,44.08-145.24,114.23-201.17,26.55-21.16,55.54-37.51,86.18-48.6,30.34-10.97,61.6-16.54,92.92-16.54h0m0-10c-65.02,0-130.06,23.25-185.33,67.31-165.29,131.79-138.77,314.98-35.13,420.41,56.62,57.6,133.77,84.56,209.19,84.56,69.91,0,138.34-23.17,187.54-66.6,110.83-97.83,157.02-299.45,11.24-431.39-55.66-50.37-121.57-74.29-187.51-74.29h0Z"/></g><g><path class="cls-25" d="M1037.07,266.48c-38.23,0-75.18-6.84-109.83-20.34-36.7-14.29-68.93-35.4-95.79-62.73-56.28-57.26-85.96-133.15-81.42-208.21,4.67-77.13,44.82-147.94,116.1-204.78,26.97-21.5,56.44-38.12,87.59-49.39,30.88-11.17,62.72-16.83,94.62-16.83,67.71,0,131.4,25.24,184.16,73,75.11,67.98,90.48,146.57,90.14,200.52-.26,41.7-10.07,84.66-28.37,124.25-17.76,38.41-42.99,72.71-72.97,99.17-47.05,41.53-114.2,65.35-184.23,65.35Z"/><path d="M1048.34-290.81c32.27,0,63.9,5.92,94,17.58,31.33,12.14,60.54,30.35,86.8,54.12,73.74,66.74,88.83,143.85,88.5,196.78-.26,40.99-9.9,83.24-27.9,122.18-17.47,37.79-42.28,71.51-71.74,97.52-23.25,20.53-51.08,36.56-82.7,47.65-31.13,10.92-64.17,16.45-98.23,16.45-37.6,0-73.95-6.73-108.02-20-36.04-14.04-67.68-34.75-94.04-61.57-26.45-26.91-47.72-59.29-61.51-93.64-14.52-36.16-20.74-73.43-18.48-110.76,4.58-75.68,44.08-145.24,114.23-201.17,26.55-21.16,55.54-37.51,86.18-48.6,30.34-10.97,61.6-16.54,92.92-16.54h0m0-10c-65.02,0-130.06,23.25-185.33,67.31-165.29,131.79-138.77,314.98-35.13,420.41,56.62,57.6,133.77,84.56,209.19,84.56,69.91,0,138.34-23.17,187.54-66.6,110.83-97.83,157.02-299.45,11.24-431.39-55.66-50.37-121.57-74.29-187.51-74.29h0Z"/></g><g><path class="cls-6" d="M1060.03,891.89c-75.84,0-153.33-25.01-212.61-68.61-30.91-22.74-55.69-49.5-73.66-79.54-19.23-32.15-30.07-67.21-32.21-104.2-5.91-102.1,21.31-192.2,78.7-260.58,52.41-62.44,126.81-102.28,209.5-112.18,10.22-1.22,20.73-1.84,31.26-1.84,34.85,0,70.22,6.57,105.14,19.53,34.62,12.85,67,31.31,96.22,54.85,62.04,49.98,103.32,118.28,116.25,192.32,15.5,88.77-5.46,177.8-57.51,244.26-53.48,68.29-135.7,108.12-237.77,115.18-7.66,.53-15.5,.8-23.3,.8Z"/><path d="M1061.02,269.93c34.25,0,69.04,6.47,103.39,19.22,34.12,12.67,66.02,30.85,94.82,54.06,29.57,23.82,54.39,51.78,73.77,83.09,20.46,33.05,34.15,68.78,40.68,106.2,7.3,41.79,6.31,85.35-2.87,125.95-9.66,42.76-27.71,81.24-53.66,114.36-52.58,67.14-133.56,106.31-234.18,113.28-7.55,.52-15.28,.79-22.96,.79-74.8,0-151.21-24.65-209.64-67.64-30.37-22.34-54.7-48.61-72.33-78.07-18.81-31.45-29.42-65.74-31.51-101.92-5.83-100.8,20.98-189.7,77.54-257.08,51.59-61.46,124.84-100.68,206.26-110.43,10.02-1.2,20.33-1.81,30.67-1.81h0m-.01-10c-10.68,0-21.32,.62-31.85,1.88-164.44,19.69-305.32,158.11-292.6,378.01,9.09,157.19,170.81,257.06,323.47,257.06,7.91,0,15.81-.27,23.65-.81,236.26-16.36,328.35-202.15,299.87-365.29-27.91-159.82-179.35-270.86-322.54-270.85h0Z"/></g><g><path class="cls-28" d="M731.22,654.84c-29.13,0-57.3-5.21-83.71-15.5-27.96-10.89-52.51-26.96-72.97-47.78-42.88-43.62-65.49-101.42-62.03-158.59,3.55-58.74,34.15-112.69,88.49-156.01,40.82-32.55,90.13-50.47,138.84-50.47,51.57,0,100.08,19.23,140.27,55.61,57.21,51.78,68.92,111.63,68.66,152.72-.39,63.32-29.99,128.56-77.23,170.26-35.83,31.62-86.98,49.76-140.34,49.76Z"/><path d="M739.85,221.49v10c50.31,0,97.66,18.78,136.92,54.32,55.84,50.54,67.27,108.91,67.02,148.98-.19,31.07-7.51,63.09-21.16,92.62-13.25,28.65-32.05,54.22-54.38,73.92-34.93,30.83-84.87,48.51-137.03,48.51-28.51,0-56.06-5.1-81.89-15.16-27.29-10.63-51.25-26.32-71.21-46.62-20.04-20.39-36.16-44.93-46.62-70.96-10.99-27.38-15.7-55.58-13.99-83.83,3.47-57.29,33.42-109.99,86.62-152.4,20.13-16.05,42.12-28.45,65.34-36.85,22.98-8.31,46.66-12.53,70.38-12.53v-10m0,0c-49.8,0-99.62,17.81-141.96,51.56-126.61,100.95-106.29,241.27-26.91,322.02,43.37,44.12,102.46,64.77,160.24,64.77,53.55,0,105.96-17.75,143.65-51.01,84.89-74.93,120.27-229.37,8.61-330.43-42.63-38.58-93.12-56.9-143.63-56.9h0Z"/></g><g><path class="cls-11" d="M701.8,860.03c-42.71,0-83.69-13.37-118.49-38.67-33.12-24.08-57.82-57.43-69.56-93.93-14.54-45.22-13.4-94.85,3.2-139.76,17.22-46.6,50.16-84.14,92.74-105.72,28.37-14.37,63.36-22.29,98.54-22.29,43.09,0,83.15,11.28,115.85,32.63,37.56,24.52,62.87,60.39,75.21,106.61,12.04,45.08,6.47,95.94-15.69,143.18-20.88,44.53-53.84,79.88-90.41,96.99-29.75,13.91-60.5,20.97-91.39,20.97Z"/><path d="M708.24,464.65c20.22,0,40.01,2.6,58.8,7.72,19.81,5.4,38.08,13.51,54.3,24.1,17.32,11.31,32.19,25.41,44.2,41.9,12.99,17.85,22.72,38.64,28.91,61.81,11.74,43.95,6.28,93.59-15.38,139.77-9.94,21.19-23.17,40.98-38.28,57.24-15.15,16.3-32.34,29.22-49.73,37.34-29.08,13.6-59.12,20.5-89.27,20.5-21.09,0-41.94-3.4-61.96-10.09-19.16-6.41-37.19-15.7-53.59-27.62-32.27-23.46-56.33-55.92-67.74-91.41-14.2-44.16-13.09-92.63,3.12-136.5,8.18-22.12,19.86-42.1,34.71-59.39,15.6-18.14,34.3-32.82,55.6-43.61,27.67-14.02,61.87-21.75,96.28-21.75h0m-.02-10c-36.35,0-71.81,8.14-100.8,22.83-92.63,46.94-128.35,158.43-98.44,251.47,24.36,75.75,101.72,136.07,192.81,136.07,30.14,0,61.79-6.61,93.51-21.44,76.12-35.6,135.13-147.45,108.81-245.99-27.09-101.42-113.77-142.95-195.89-142.94h0Z"/></g><g><path class="cls-16" d="M356.24,668.76c-55.23,0-111.66-18.21-154.82-49.96-46.62-34.3-73.95-81.7-76.94-133.48-4.3-74.38,15.51-140.01,57.29-189.79,38.14-45.44,92.29-74.43,152.47-81.64,7.43-.89,15.07-1.34,22.72-1.34,50.42,0,103.83,19.74,146.54,54.15,45.15,36.38,75.2,86.08,84.6,139.95,11.28,64.6-3.97,129.38-41.83,177.72-38.9,49.67-98.75,78.65-173.07,83.79-5.58,.39-11.29,.58-16.96,.58Z"/><path d="M356.96,217.56c24.75,0,49.9,4.68,74.74,13.9,24.7,9.17,47.8,22.34,68.65,39.14,44.21,35.62,73.62,84.24,82.81,136.92,5.28,30.24,4.56,61.76-2.07,91.14-6.98,30.91-20.03,58.71-38.77,82.64-38.01,48.53-96.61,76.84-169.48,81.89-5.46,.38-11.06,.57-16.62,.57-54.19,0-109.54-17.85-151.85-48.98-21.94-16.14-39.51-35.1-52.23-56.36-13.55-22.64-21.18-47.33-22.69-73.38-4.23-73.08,15.18-137.5,56.13-186.28,37.32-44.46,90.32-72.83,149.23-79.89,7.23-.87,14.67-1.3,22.13-1.3h0m0-10c-7.82,0-15.6,.45-23.31,1.38-120.35,14.41-223.47,115.72-214.16,276.67,6.66,115.05,125.02,188.15,236.75,188.15,5.79,0,11.57-.2,17.31-.59,172.92-11.97,240.33-147.96,219.48-267.36-20.42-116.98-131.27-198.24-236.07-198.24h0Z"/></g><g><path class="cls-18" d="M526.23,1041.83c-65.04,0-131.5-21.44-182.32-58.84-26.49-19.49-47.73-42.42-63.12-68.16-16.47-27.54-25.75-57.56-27.59-89.24-5.07-87.57,18.27-164.85,67.48-223.48,44.93-53.53,108.72-87.68,179.61-96.17,8.75-1.05,17.76-1.58,26.78-1.58,59.4,0,122.32,23.25,172.63,63.78,53.19,42.85,88.58,101.41,99.67,164.88,13.29,76.11-4.68,152.43-49.29,209.39-45.84,58.53-116.34,92.67-203.87,98.73-6.57,.46-13.29,.69-19.98,.69Z"/><path d="M527.08,509.36c29.27,0,59.01,5.53,88.38,16.43,29.18,10.83,56.47,26.39,81.11,46.24,52.24,42.09,87,99.57,97.88,161.84,6.24,35.74,5.39,72.99-2.45,107.71-8.26,36.55-23.68,69.43-45.86,97.74-44.94,57.39-114.2,90.87-200.27,96.83-6.46,.45-13.06,.67-19.64,.67-64,0-129.37-21.09-179.36-57.86-25.95-19.09-46.74-41.53-61.8-66.7-16.05-26.84-25.1-56.1-26.89-86.97-4.99-86.27,17.94-162.34,66.32-219.98,44.11-52.55,106.75-86.08,176.38-94.42,8.55-1.02,17.37-1.54,26.19-1.54h0m0-10c-9.18,0-18.32,.53-27.38,1.62-141.34,16.93-262.43,135.9-251.49,324.91,7.82,135.11,146.82,220.95,278.03,220.95,6.8,0,13.59-.23,20.33-.7,203.07-14.06,282.22-173.75,257.74-313.97-23.99-137.37-154.15-232.81-277.23-232.8h0Z"/></g><g><path class="cls-17" d="M1679.75,505.98c-103.27,0-208.79-34.05-289.5-93.43-42.12-30.99-75.9-67.47-100.41-108.43-26.24-43.87-41.03-91.7-43.95-142.18-8.04-138.98,29.03-261.66,107.19-354.78,71.39-85.06,172.74-139.33,285.38-152.82,13.93-1.67,28.27-2.51,42.62-2.51,47.49,0,95.69,8.95,143.26,26.61,47.16,17.5,91.25,42.64,131.04,74.7,84.5,68.08,140.74,161.13,158.35,262.01,10.09,57.81,8.72,118.06-3.97,174.24-13.39,59.26-38.42,112.6-74.41,158.55-72.88,93.05-184.87,147.33-323.87,156.95-10.44,.72-21.12,1.09-31.74,1.09Z"/><path d="M1681.1-343.18c46.89,0,94.5,8.85,141.52,26.3,46.65,17.32,90.27,42.18,129.64,73.91,40.43,32.57,74.37,70.8,100.88,113.63,28,45.23,46.73,94.13,55.68,145.34,9.98,57.16,8.62,116.73-3.92,172.28-6.44,28.51-15.81,56.09-27.85,81.99-12.41,26.69-27.76,51.79-45.61,74.58-71.98,91.91-182.73,145.52-320.28,155.04-10.32,.71-20.89,1.08-31.4,1.08-102.23,0-206.66-33.7-286.54-92.46-41.58-30.59-74.92-66.58-99.08-106.97-25.82-43.17-40.38-90.24-43.25-139.91-4.1-70.79,3.62-137.63,22.92-198.64,18.07-57.11,46.03-108.47,83.1-152.63,70.57-84.08,170.77-137.73,282.14-151.07,13.73-1.64,27.87-2.48,42.03-2.48h0m-.01-10c-14.49,0-28.93,.84-43.21,2.55-223.09,26.72-414.23,214.51-396.97,512.85,12.34,213.26,231.74,348.76,438.85,348.76,10.73,0,21.45-.36,32.09-1.1,320.53-22.19,445.48-274.26,406.83-495.59-37.86-216.83-243.32-367.47-437.59-367.46h0Z"/></g><g><path class="cls-29" d="M1478.33,933.66c-38.23,0-75.18-6.84-109.83-20.34-36.7-14.29-68.93-35.4-95.79-62.73-56.28-57.26-85.96-133.15-81.42-208.21,4.67-77.13,44.82-147.94,116.1-204.78,26.97-21.5,56.44-38.12,87.59-49.39,30.88-11.17,62.72-16.83,94.62-16.83,67.71,0,131.4,25.24,184.16,73,75.11,67.98,90.48,146.57,90.14,200.52-.26,41.7-10.07,84.66-28.37,124.25-17.76,38.41-42.99,72.71-72.97,99.17-47.05,41.53-114.2,65.35-184.23,65.35Z"/><path d="M1489.6,376.37c32.27,0,63.9,5.92,94,17.58,31.33,12.14,60.54,30.35,86.8,54.12,73.74,66.74,88.83,143.85,88.5,196.78-.26,40.99-9.9,83.24-27.9,122.18-17.47,37.79-42.28,71.51-71.74,97.52-23.25,20.53-51.08,36.56-82.7,47.65-31.13,10.92-64.17,16.45-98.23,16.45-37.6,0-73.95-6.73-108.02-20-36.04-14.04-67.68-34.75-94.04-61.57-26.45-26.91-47.72-59.29-61.51-93.64-14.52-36.16-20.74-73.43-18.48-110.76,4.58-75.68,44.08-145.24,114.23-201.17,26.55-21.16,55.54-37.51,86.18-48.6,30.34-10.97,61.6-16.54,92.92-16.54h0m0-10c-65.02,0-130.06,23.25-185.33,67.31-165.29,131.79-138.77,314.98-35.13,420.41,56.62,57.6,133.77,84.56,209.19,84.56,69.91,0,138.34-23.17,187.54-66.6,110.83-97.83,157.02-299.45,11.24-431.39-55.66-50.37-121.57-74.29-187.51-74.29h0Z"/></g><g><path class="cls-26" d="M693.53,1340.38c-38.23,0-75.18-6.84-109.83-20.34-36.7-14.29-68.93-35.4-95.79-62.73-56.28-57.26-85.96-133.15-81.42-208.21,4.67-77.13,44.82-147.94,116.1-204.78,26.97-21.5,56.44-38.12,87.59-49.39,30.88-11.17,62.72-16.83,94.62-16.83,67.71,0,131.4,25.24,184.16,73,75.11,67.98,90.48,146.57,90.14,200.52-.26,41.7-10.07,84.66-28.37,124.25-17.76,38.41-42.99,72.71-72.97,99.17-47.05,41.53-114.2,65.35-184.23,65.35Z"/><path d="M704.8,783.1c32.27,0,63.9,5.92,94,17.58,31.33,12.14,60.54,30.35,86.8,54.12,73.74,66.74,88.83,143.85,88.5,196.78-.26,40.99-9.9,83.24-27.9,122.18-17.47,37.79-42.28,71.51-71.74,97.52-23.25,20.53-51.08,36.56-82.7,47.65-31.13,10.92-64.17,16.45-98.23,16.45-37.6,0-73.95-6.73-108.02-20-36.04-14.04-67.68-34.75-94.04-61.57-26.45-26.91-47.72-59.29-61.51-93.64-14.52-36.16-20.74-73.43-18.48-110.76,4.58-75.68,44.08-145.24,114.23-201.17,26.55-21.16,55.54-37.51,86.18-48.6,30.34-10.97,61.6-16.54,92.92-16.54h0m0-10c-65.02,0-130.06,23.25-185.33,67.31-165.29,131.79-138.77,314.98-35.13,420.41,56.62,57.6,133.77,84.56,209.19,84.56,69.91,0,138.34-23.17,187.54-66.6,110.83-97.83,157.02-299.45,11.24-431.39-55.66-50.37-121.57-74.29-187.51-74.29h0Z"/></g><g><path class="cls-27" d="M166.28,461.18c-44.96,0-88.42-8.05-129.17-23.92-43.17-16.81-81.08-41.64-112.69-73.79-66.2-67.35-101.11-156.62-95.77-244.93C-165.86,27.79-118.65-55.5-34.81-122.34c31.72-25.29,66.37-44.83,103.01-58.08,36.33-13.14,73.77-19.8,111.3-19.8,79.66,0,154.57,29.69,216.64,85.87,88.36,79.97,106.43,172.42,106.04,235.9-.3,49.05-11.84,99.57-33.36,146.12-20.88,45.17-50.56,85.51-85.82,116.63-55.36,48.86-134.34,76.89-216.71,76.89Z"/><path d="M179.5-195.22c38.08,0,75.39,6.98,110.91,20.74,36.96,14.32,71.4,35.8,102.37,63.83C428.48-78.33,455.52-41.03,473.14,.23c16.21,37.96,24.3,78.77,24.03,121.28-.3,48.34-11.68,98.15-32.9,144.06-20.59,44.55-49.85,84.31-84.59,114.98-27.45,24.23-60.29,43.15-97.59,56.23-36.7,12.87-75.67,19.4-115.81,19.4-44.33,0-87.18-7.93-127.36-23.58-42.51-16.56-79.83-41-110.94-72.64-31.19-31.73-56.27-69.91-72.54-110.43-17.13-42.67-24.47-86.64-21.8-130.7C-160.96,29.55-114.39-52.5-31.7-118.43-.41-143.38,33.77-162.65,69.9-175.72c35.78-12.94,72.65-19.5,109.6-19.5h0m0-10c-76.28,0-152.59,27.28-217.43,78.97C-231.85,28.37-200.73,243.29-79.15,366.97c66.43,67.57,156.94,99.21,245.43,99.21,82.02,0,162.3-27.19,220.02-78.14,130.03-114.77,184.22-351.31,13.19-506.11-65.3-59.1-142.63-87.16-219.99-87.16h0Z"/></g><g><path class="cls-14" d="M1167.44,923.26c-44.96,0-88.42-8.05-129.17-23.92-43.17-16.82-81.08-41.64-112.69-73.79-66.2-67.35-101.11-156.62-95.77-244.93,5.49-90.74,52.7-174.03,136.54-240.87,31.72-25.29,66.37-44.83,103.01-58.08,36.33-13.14,73.77-19.8,111.3-19.8,79.66,0,154.57,29.69,216.64,85.86,88.36,79.97,106.43,172.42,106.04,235.9-.3,49.05-11.84,99.57-33.36,146.12-20.88,45.17-50.56,85.51-85.82,116.63-55.36,48.86-134.34,76.89-216.71,76.89Z"/><path d="M1180.66,266.86c38.07,0,75.39,6.98,110.91,20.74,36.96,14.32,71.4,35.8,102.37,63.83,35.71,32.32,62.74,69.62,80.36,110.88,16.21,37.96,24.3,78.77,24.03,121.28-.3,48.34-11.68,98.15-32.9,144.06-20.59,44.55-49.85,84.31-84.59,114.98-27.45,24.23-60.29,43.15-97.59,56.23-36.7,12.87-75.67,19.4-115.81,19.4-44.33,0-87.18-7.93-127.36-23.58-42.51-16.56-79.83-41-110.94-72.64-31.19-31.73-56.27-69.91-72.54-110.43-17.13-42.67-24.47-86.64-21.8-130.7,5.4-89.29,51.97-171.33,134.66-237.26,31.29-24.95,65.47-44.22,101.59-57.29,35.78-12.94,72.65-19.5,109.6-19.5h0m0-10c-76.28,0-152.59,27.28-217.43,78.97-193.92,154.61-162.8,369.54-41.22,493.22,66.43,67.57,156.94,99.21,245.43,99.21,82.02,0,162.3-27.19,220.02-78.14,130.03-114.77,184.22-351.31,13.19-506.11-65.3-59.1-142.63-87.16-219.99-87.16h0Z"/></g><g><path class="cls-9" d="M1018.41,451.82c-40.77,0-79.88-12.76-113.1-36.91-31.61-22.98-55.19-54.82-66.39-89.65-13.88-43.16-12.79-90.54,3.05-133.41,16.44-44.48,47.88-80.31,88.52-100.91,27.08-13.72,60.48-21.28,94.06-21.28,41.13,0,79.37,10.77,110.58,31.14,35.85,23.4,60,57.64,71.78,101.75,11.5,43.03,6.18,91.57-14.98,136.68-19.94,42.51-51.39,76.25-86.29,92.58-28.4,13.28-57.75,20.02-87.24,20.02Z"/><path d="M1024.56,74.66c19.29,0,38.15,2.48,56.08,7.36,18.89,5.15,36.31,12.88,51.76,22.97,16.51,10.78,30.68,24.21,42.12,39.93,12.39,17.01,21.66,36.83,27.56,58.92,11.19,41.9,5.98,89.23-14.67,133.27-9.48,20.21-22.1,39.08-36.5,54.58-14.44,15.54-30.82,27.84-47.38,35.59-27.73,12.97-56.37,19.55-85.12,19.55-20.11,0-39.98-3.24-59.07-9.62-18.27-6.11-35.46-14.97-51.09-26.34-30.76-22.36-53.69-53.31-64.57-87.14-13.54-42.1-12.48-88.32,2.98-130.15,7.8-21.09,18.93-40.14,33.09-56.62,14.86-17.29,32.7-31.28,53-41.57,26.38-13.37,58.99-20.74,91.81-20.74h0m-.02-10c-34.73,0-68.62,7.78-96.32,21.82-88.52,44.86-122.66,151.4-94.07,240.31,23.28,72.39,97.2,130.03,184.25,130.03,28.8,0,59.05-6.31,89.36-20.49,72.74-34.02,129.13-140.91,103.98-235.07-25.89-96.92-108.73-136.61-187.2-136.6h0Z"/></g><g><path class="cls-7" d="M1868.19,1146.02c-20.33,0-39.84-6.37-56.41-18.41-15.75-11.45-27.5-27.3-33.07-44.62-6.93-21.56-6.39-45.22,1.53-66.64,8.19-22.17,23.85-40.02,44.08-50.28,13.51-6.85,30.21-10.62,47-10.62,20.56,0,39.66,5.37,55.22,15.53,17.81,11.63,29.82,28.66,35.69,50.62,5.73,21.46,3.06,45.69-7.51,68.24-9.96,21.23-25.62,38.06-42.96,46.17-14.2,6.64-28.86,10.01-43.58,10.01Z"/><path d="M1871.33,960.45c19.59,0,37.73,5.09,52.48,14.72,16.75,10.94,28.05,26.99,33.59,47.73,5.43,20.32,2.87,43.34-7.21,64.82-9.47,20.19-24.25,36.14-40.55,43.77-13.53,6.33-27.48,9.54-41.46,9.54-19.27,0-37.76-6.04-53.47-17.46-14.9-10.83-26-25.79-31.25-42.11-6.59-20.5-6.07-43,1.46-63.38,7.76-20.98,22.55-37.87,41.66-47.55,12.82-6.5,28.71-10.08,44.75-10.08h0m0-10c-17.76,0-35.1,3.98-49.26,11.16-45.27,22.94-62.73,77.43-48.11,122.91,11.9,37.03,49.71,66.5,94.23,66.5,14.73,0,30.2-3.23,45.7-10.48,37.2-17.4,66.04-72.07,53.18-120.23-13.24-49.57-55.61-69.87-95.74-69.86h0Z"/></g><g><path class="cls-8" d="M1441.37,1056.77c-32.48,0-63.64-10.17-90.11-29.41-25.18-18.3-43.96-43.66-52.88-71.39-11.06-34.4-10.2-72.17,2.43-106.33,13.1-35.43,38.13-63.98,70.5-80.38,21.58-10.93,48.2-16.96,74.98-16.96,32.79,0,63.27,8.58,88.13,24.81,28.54,18.63,47.76,45.89,57.15,81.02,9.16,34.28,4.91,72.97-11.95,108.92-15.89,33.88-40.94,60.77-68.72,73.76-22.64,10.59-46.04,15.96-69.53,15.96Z"/><path d="M1446.31,757.3c31.81,0,61.34,8.3,85.39,24,27.47,17.94,45.99,44.22,55.04,78.12,8.85,33.15,4.72,70.62-11.65,105.51-15.4,32.84-39.57,58.85-66.31,71.35-21.97,10.28-44.66,15.49-67.42,15.49-31.42,0-61.56-9.84-87.17-28.45-24.33-17.69-42.46-42.15-51.06-68.88-10.72-33.34-9.88-69.95,2.36-103.07,6.17-16.69,14.98-31.76,26.18-44.79,11.75-13.67,25.84-24.73,41.89-32.86,20.88-10.58,46.71-16.41,72.73-16.42h0m-.01-10c-27.85,0-55.03,6.24-77.24,17.5-70.98,35.97-98.36,121.41-75.43,192.7,18.67,58.05,77.94,104.27,147.75,104.27,23.09,0,47.35-5.06,71.65-16.43,58.33-27.28,103.55-112.99,83.38-188.5-20.76-77.72-87.19-109.54-150.11-109.54h0Z"/></g><g><path class="cls-10" d="M1137.3,897.04c-31.95,0-62.6-10-88.64-28.93-24.77-18-43.24-42.94-52.01-70.22-10.88-33.84-10.03-70.99,2.39-104.6,12.88-34.85,37.51-62.93,69.34-79.06,21.22-10.75,47.42-16.68,73.75-16.68,32.26,0,62.24,8.44,86.69,24.41,28.07,18.32,46.98,45.13,56.21,79.69,9.01,33.72,4.83,71.77-11.75,107.14-15.63,33.33-40.27,59.77-67.59,72.55-22.27,10.42-45.29,15.7-68.4,15.7Z"/><path d="M1142.16,602.56c31.28,0,60.31,8.16,83.95,23.6,27,17.63,45.2,43.46,54.1,76.79,8.7,32.59,4.64,69.42-11.45,103.73-15.14,32.29-38.9,57.85-65.18,70.14-21.6,10.1-43.91,15.23-66.28,15.23-30.89,0-60.52-9.67-85.7-27.97-23.92-17.39-41.74-41.43-50.19-67.7-10.54-32.78-9.71-68.77,2.32-101.33,6.06-16.41,14.72-31.22,25.74-44.04,11.55-13.44,25.4-24.3,41.18-32.3,20.53-10.4,45.92-16.14,71.5-16.14h0m-.01-10c-27.41,0-54.16,6.14-76.01,17.22-69.85,35.4-96.8,119.48-74.24,189.65,18.37,57.13,76.71,102.62,145.41,102.62,22.73,0,46.6-4.98,70.52-16.17,57.4-26.84,101.91-111.2,82.06-185.51-20.43-76.48-85.8-107.81-147.73-107.8h0Z"/></g><g><path class="cls-12" d="M199.75,1167.96c-60.57,0-118.67-18.96-168.02-54.83-46.98-34.15-82.02-81.47-98.67-133.26-20.61-64.09-19-134.44,4.53-198.09,11.89-32.16,28.88-61.22,50.5-86.38,22.74-26.45,50.01-47.84,81.06-63.58,40.21-20.38,89.81-31.6,139.65-31.6,61.06,0,117.85,16,164.21,46.27,25.32,16.53,47.05,37.13,64.61,61.24,18.96,26.03,33.13,56.32,42.14,90.03,17.08,63.94,9.19,136.02-22.21,202.98-29.6,63.12-76.35,113.25-128.27,137.52-42.16,19.72-85.74,29.71-129.52,29.71Z"/><path d="M208.82,605.21c28.83,0,57.05,3.71,83.86,11.02,28.31,7.72,54.42,19.31,77.6,34.44,24.8,16.2,46.1,36.38,63.3,60,18.59,25.53,32.5,55.27,41.34,88.37,8.6,32.2,10.79,66.46,6.5,101.81-4.04,33.29-13.59,66.18-28.41,97.76-14.17,30.21-33.04,58.43-54.59,81.62-21.68,23.33-46.32,41.83-71.27,53.49-41.49,19.4-84.36,29.24-127.41,29.24-30.14,0-59.92-4.85-88.52-14.42-27.37-9.16-53.13-22.43-76.55-39.46-46.13-33.53-80.52-79.96-96.85-130.75-10.09-31.38-14.79-64.35-13.98-97.98,.81-33.37,7.01-65.95,18.43-96.85,11.68-31.6,28.37-60.15,49.6-84.85,22.31-25.95,49.06-46.94,79.53-62.38,39.52-20.03,88.31-31.06,137.4-31.06h0m-.02-10c-51.17,0-101.1,11.46-141.91,32.14-130.41,66.08-180.7,223.05-138.59,354.04,34.29,106.65,143.2,191.57,271.45,191.57,42.43,0,86.99-9.3,131.64-30.18,107.16-50.11,190.24-207.6,153.19-346.32-38.14-142.78-160.18-201.25-275.79-201.25h0Z"/></g><g><path class="cls-23" d="M835.72,947.52c-30.11,0-59.5-9.72-85.01-28.11-23.88-17.22-43.41-41.09-56.47-69.04-14.55-31.14-17.52-69.92-8.15-106.39,10.12-39.42,33.67-71.9,66.3-91.45,21.43-12.84,47.49-19.63,75.37-19.63,30.79,0,62.62,8.53,89.62,24.01,29.22,16.75,52.29,41.05,66.71,70.27,17.07,34.57,19.26,74.19,6.17,111.58-13.25,37.85-40.84,69.31-77.7,88.59-25.57,13.38-51.43,20.16-76.85,20.16Z"/><path d="M827.78,637.91c29.93,0,60.87,8.29,87.13,23.35,28.35,16.26,50.73,39.82,64.71,68.15,16.47,33.35,18.57,71.61,5.94,107.72-12.83,36.65-39.57,67.12-75.3,85.81-24.85,13-49.92,19.59-74.54,19.59-29.05,0-57.44-9.39-82.08-27.16-23.19-16.72-42.16-39.92-54.86-67.1-14.06-30.11-16.92-67.66-7.84-103.03,9.8-38.14,32.54-69.53,64.03-88.4,20.65-12.37,45.83-18.91,72.8-18.92h0m0-10c-27.99,0-55.15,6.68-77.94,20.34-72.84,43.64-90,140.27-60.11,204.24,26.12,55.91,80.07,100.03,146,100.03,24.96,0,51.64-6.32,79.17-20.73,79.08-41.36,109.97-133.35,73.7-206.82-31.42-63.63-98.2-97.07-160.82-97.07h0Z"/></g><g><path class="cls-22" d="M1297.9,669.04c-49.94,0-98.69-16.11-140.97-46.59-39.52-28.49-71.83-67.99-93.42-114.21-24.11-51.61-29.05-115.85-13.54-176.23,16.78-65.32,55.83-119.16,109.95-151.58,35.56-21.31,78.77-32.57,124.97-32.57,50.93,0,103.58,14.1,148.24,39.71,48.36,27.73,86.55,67.96,110.43,116.34,28.31,57.34,31.95,123.05,10.25,185.05-21.95,62.7-67.64,114.81-128.68,146.74-42.3,22.13-85.11,33.34-127.23,33.34Z"/><path d="M1284.9,152.86c24.86,0,49.94,3.31,74.55,9.84,25.03,6.64,48.98,16.47,71.2,29.21,47.49,27.23,84.99,66.73,108.43,114.22,13.95,28.25,21.81,58.58,23.37,90.14,1.52,30.74-2.98,61.37-13.36,91.04-21.53,61.5-66.37,112.62-126.27,143.96-41.58,21.75-83.61,32.78-124.92,32.78-48.89,0-96.62-15.78-138.04-45.65-38.83-27.99-70.58-66.82-91.81-112.27-23.63-50.58-28.45-113.59-13.22-172.87,7.9-30.76,20.75-58.94,38.19-83.74,18.67-26.56,42.05-48.36,69.49-64.8,34.78-20.84,77.11-31.85,122.41-31.86h0m-.01-10c-45.8,0-90.25,10.94-127.54,33.28-119.19,71.41-147.28,229.53-98.37,334.21,42.74,91.49,131.03,163.69,238.92,163.69,40.84,0,84.5-10.35,129.55-33.91,129.4-67.68,179.94-218.21,120.59-338.43-51.41-104.13-160.69-158.84-263.16-158.84h0Z"/></g><g><path class="cls-21" d="M134.21,185.44c-15.76,0-31.16-5.09-44.53-14.73-12.57-9.06-22.85-21.64-29.73-36.37-15.08-32.28-6.43-81.7,30.48-103.82,11.21-6.71,24.86-10.26,39.49-10.26,35.12,0,67.43,19.47,82.3,49.6,8.93,18.1,10.08,38.85,3.22,58.44-6.96,19.87-21.46,36.4-40.83,46.53-13.47,7.04-27.06,10.62-40.41,10.62Z"/><path d="M129.92,25.26c15.36,0,31.25,4.26,44.73,11.99,14.5,8.32,25.94,20.36,33.08,34.82,8.33,16.88,9.39,36.26,2.99,54.57-6.54,18.67-20.18,34.21-38.43,43.75-12.74,6.67-25.56,10.05-38.09,10.05-14.71,0-29.09-4.77-41.61-13.79-11.88-8.56-21.61-20.47-28.13-34.43-14.16-30.31-6.08-76.68,28.52-97.41,10.43-6.25,23.2-9.55,36.92-9.55h0m0-10c-15.1,0-29.76,3.61-42.06,10.98-39.31,23.55-48.57,75.7-32.44,110.22,14.1,30.17,43.21,53.98,78.79,53.98,13.47,0,27.87-3.41,42.73-11.18,42.68-22.32,59.34-71.97,39.77-111.61-16.95-34.34-52.99-52.39-86.79-52.38h0Z"/></g><g><path class="cls-20" d="M429.47,945.15c-27.17,0-53.69-8.77-76.71-25.36-21.56-15.55-39.19-37.1-50.99-62.34-13.13-28.1-15.81-63.11-7.35-96.03,9.14-35.58,30.39-64.89,59.83-82.53,19.33-11.58,42.85-17.71,68.01-17.71,27.8,0,56.55,7.7,80.93,21.68,26.38,15.12,47.21,37.06,60.23,63.44,15.4,31.19,17.38,66.95,5.57,100.69-11.96,34.16-36.87,62.56-70.14,79.97-23.09,12.08-46.43,18.2-69.38,18.2Z"/><path d="M422.28,666.17c26.94,0,54.8,7.47,78.44,21.02,25.51,14.63,45.65,35.83,58.23,61.31,14.8,29.98,16.69,64.36,5.33,96.82-11.54,32.96-35.59,60.38-67.74,77.19-22.37,11.7-44.93,17.63-67.06,17.63-26.11,0-51.63-8.44-73.79-24.42-20.87-15.05-37.95-35.94-49.38-60.4-25.01-53.54-10.68-135.49,50.52-172.16,18.56-11.12,41.19-16.99,65.45-17h0m0-10c-25.35,0-49.95,6.05-70.58,18.42-65.96,39.52-81.51,127.03-54.44,184.97,23.65,50.63,72.51,90.59,132.23,90.59,22.6,0,46.77-5.73,71.7-18.77,71.61-37.46,99.59-120.77,66.74-187.3-28.45-57.63-88.93-87.91-145.64-87.91h0Z"/></g><g><path class="cls-24" d="M133.34,777.83c-22.56,0-44.59-7.29-63.71-21.07-17.93-12.93-32.59-30.86-42.4-51.85-21.55-46.13-9.17-116.75,43.59-148.36,16.05-9.62,35.59-14.7,56.49-14.7,50.08,0,96.15,27.78,117.38,70.77,12.79,25.9,14.43,55.59,4.62,83.62-9.94,28.39-30.64,51.99-58.3,66.46-19.2,10.04-38.61,15.14-57.68,15.14Z"/><path d="M127.32,546.85c22.26,0,45.28,6.17,64.82,17.37,21.06,12.08,37.69,29.58,48.07,50.61,12.19,24.69,13.74,53.01,4.38,79.75-9.52,27.19-29.37,49.8-55.9,63.68-18.48,9.67-37.1,14.57-55.36,14.57-21.5,0-42.52-6.96-60.78-20.12-17.24-12.43-31.35-29.69-40.79-49.91-20.63-44.15-8.82-111.73,41.63-141.96,15.27-9.15,33.92-13.99,53.92-13.99h0m0-10c-21.21,0-41.79,5.06-59.06,15.41C13.06,585.33,.05,658.55,22.7,707.03c19.79,42.37,60.68,75.8,110.64,75.8,18.91,0,39.13-4.79,59.99-15.71,59.92-31.34,83.33-101.05,55.84-156.72-23.81-48.22-74.41-73.56-121.86-73.55h0Z"/></g><g><path class="cls-13" d="M1116.11,1315.53c-68.15,0-137.78-22.47-191.04-61.65-27.76-20.42-50.02-44.46-66.16-71.43-17.27-28.86-27-60.34-28.92-93.55-5.31-91.75,19.14-172.72,70.71-234.16,47.08-56.09,113.92-91.88,188.21-100.78,9.17-1.1,18.62-1.66,28.07-1.66,62.25,0,128.18,24.36,180.9,66.83,55.74,44.91,92.83,106.27,104.44,172.78,13.92,79.75-4.9,159.73-51.66,219.43-48.04,61.34-121.91,97.12-213.62,103.47-6.89,.48-13.93,.72-20.94,.72Z"/><path d="M1117,757.3c30.7,0,61.89,5.8,92.7,17.24,30.6,11.36,59.22,27.68,85.06,48.49,54.79,44.15,91.24,104.43,102.65,169.74,6.54,37.48,5.66,76.54-2.57,112.96-8.66,38.34-24.84,72.83-48.1,102.53-47.14,60.19-119.77,95.31-210.03,101.56-6.77,.47-13.7,.71-20.59,.71-67.11,0-135.66-22.12-188.08-60.68-27.22-20.03-49.03-43.57-64.83-69.97-16.85-28.16-26.34-58.87-28.22-91.27-5.23-90.46,18.82-170.22,69.55-230.66,46.26-55.12,111.96-90.28,184.98-99.03,8.98-1.08,18.22-1.62,27.48-1.62h0m-.01-10c-9.61,0-19.19,.56-28.66,1.69-147.99,17.72-274.77,142.29-263.32,340.19,8.18,141.46,153.72,231.34,291.1,231.34,7.12,0,14.23-.24,21.28-.73,212.62-14.72,295.5-181.92,269.87-328.75-25.11-143.83-161.41-243.76-290.27-243.75h0Z"/></g><g><path class="cls-15" d="M1720.02,1018.15c-41.1,0-83.08-13.55-115.19-37.17-34.61-25.46-54.89-60.62-57.11-99.02-3.2-55.37,11.53-104.21,42.61-141.24,28.35-33.78,68.61-55.33,113.36-60.69,5.51-.66,11.18-1,16.86-1,37.47,0,77.18,14.68,108.95,40.27,33.57,27.05,55.92,64,62.91,104.04,8.39,48.03-2.94,96.17-31.08,132.09-28.91,36.91-73.41,58.44-128.7,62.27-4.15,.29-8.39,.43-12.62,.43Z"/><path d="M1720.56,684.04c36.35,0,74.91,14.28,105.8,39.16,32.63,26.29,54.33,62.16,61.12,101.01,8.14,46.63-2.82,93.34-30.09,128.15-28.01,35.76-71.27,56.64-125.11,60.36-4.04,.28-8.16,.42-12.27,.42-40.05,0-80.96-13.19-112.22-36.19-16.16-11.89-29.09-25.84-38.44-41.47-9.93-16.61-15.53-34.71-16.64-53.8-3.13-54.08,11.2-101.7,41.45-137.74,27.53-32.8,66.64-53.74,110.13-58.94,5.31-.64,10.79-.96,16.27-.96h0m0-10c-5.85,0-11.69,.34-17.46,1.03-90.13,10.79-167.34,86.66-160.37,207.18,4.98,86.15,93.62,140.89,177.29,140.89,4.33,0,8.67-.15,12.96-.44,129.49-8.96,179.97-110.79,164.35-200.21-15.29-87.6-98.3-148.45-176.78-148.45h0Z"/></g><g><path class="cls-19" d="M624.13,403.45c-48.55,0-95.95-15.67-137.05-45.3-38.43-27.7-69.84-66.11-90.84-111.06-23.44-50.18-28.24-112.63-13.16-171.34,16.31-63.51,54.28-115.85,106.89-147.38,34.57-20.71,76.59-31.66,121.5-31.66,49.52,0,100.71,13.71,144.14,38.61,47.02,26.96,84.15,66.08,107.38,113.12,27.52,55.74,31.06,119.64,9.96,179.91-21.34,60.96-65.77,111.63-125.11,142.67-41.13,21.51-82.75,32.42-123.71,32.42Z"/><path d="M611.49-98.28c24.16,0,48.54,3.22,72.45,9.57,24.33,6.46,47.61,16.01,69.19,28.39,46.15,26.47,82.59,64.85,105.38,110.99,13.55,27.45,21.19,56.92,22.71,87.59,1.48,29.87-2.89,59.63-12.98,88.46-20.92,59.76-64.5,109.44-122.71,139.89-40.41,21.14-81.25,31.85-121.39,31.85-47.5,0-93.88-15.34-134.13-44.35-37.74-27.21-68.59-64.94-89.23-109.12-22.96-49.15-27.64-110.38-12.85-167.98,7.68-29.89,20.16-57.27,37.11-81.37,18.14-25.8,40.85-46.99,67.52-62.96,33.79-20.25,74.92-30.95,118.94-30.95h0m-.01-10c-44.55,0-87.79,10.64-124.07,32.37C371.46-6.44,344.14,147.38,391.71,249.22c41.58,89,127.46,159.24,232.42,159.24,39.73,0,82.2-10.07,126.03-32.99,125.88-65.84,175.05-212.28,117.31-329.23-50.01-101.29-156.32-154.52-256-154.52h0Z"/></g></g></svg>