<?xml version="1.0" encoding="UTF-8"?><svg id="Calque_1" xmlns="http://www.w3.org/2000/svg" xmlns:xlink="http://www.w3.org/1999/xlink" viewBox="0 0 1920 1080"><defs><style>.cls-1{fill:none;}.cls-2{clip-path:url(#clippath);}.cls-3{fill:#fff;}.cls-4{fill:url(#Dégradé_sans_nom_37-10);}.cls-5{fill:url(#Dégradé_sans_nom_37-12);}.cls-6{fill:url(#Dégradé_sans_nom_37-17);}.cls-7{fill:url(#Dégradé_sans_nom_37-16);}.cls-8{fill:url(#Dégradé_sans_nom_37-15);}.cls-9{fill:url(#Dégradé_sans_nom_37-13);}.cls-10{fill:url(#Dégradé_sans_nom_37-11);}.cls-11{fill:url(#Dégradé_sans_nom_37-14);}.cls-12{fill:url(#Dégradé_sans_nom_74-10);}.cls-13{fill:url(#Dégradé_sans_nom_74-13);}.cls-14{fill:url(#Dégradé_sans_nom_74-14);}.cls-15{fill:url(#Dégradé_sans_nom_74-12);}.cls-16{fill:url(#Dégradé_sans_nom_74-16);}.cls-17{fill:url(#Dégradé_sans_nom_74-11);}.cls-18{fill:url(#Dégradé_sans_nom_74-15);}.cls-19{fill:url(#Dégradé_sans_nom_74-17);}.cls-20{fill:url(#Dégradé_sans_nom_29-13);}.cls-21{fill:url(#Dégradé_sans_nom_29-14);}.cls-22{fill:url(#Dégradé_sans_nom_29-11);}.cls-23{fill:url(#Dégradé_sans_nom_29-16);}.cls-24{fill:url(#Dégradé_sans_nom_29-17);}.cls-25{fill:url(#Dégradé_sans_nom_29-12);}.cls-26{fill:url(#Dégradé_sans_nom_29-15);}.cls-27{fill:url(#Dégradé_sans_nom_29-10);}.cls-28{fill:url(#Dégradé_sans_nom_15-11);}.cls-29{fill:url(#Dégradé_sans_nom_15-10);}.cls-30{fill:url(#Dégradé_sans_nom_15-12);}.cls-31{fill:url(#Dégradé_sans_nom_15-14);}.cls-32{fill:url(#Dégradé_sans_nom_15-13);}.cls-33{fill:url(#Dégradé_sans_nom_15-16);}.cls-34{fill:url(#Dégradé_sans_nom_15-15);}.cls-35{fill:url(#Dégradé_sans_nom_15-18);}.cls-36{fill:url(#Dégradé_sans_nom_15-17);}.cls-37{fill:url(#Dégradé_sans_nom_15-19);}.cls-38{fill:url(#Dégradé_sans_nom_15-20);}.cls-39{fill:url(#Dégradé_sans_nom_15-21);}.cls-40{fill:url(#Dégradé_sans_nom_15-22);}.cls-41{fill:url(#Dégradé_sans_nom_15-25);}.cls-42{fill:url(#Dégradé_sans_nom_15-26);}.cls-43{fill:url(#Dégradé_sans_nom_15-23);}.cls-44{fill:url(#Dégradé_sans_nom_15-24);}.cls-45{fill:url(#Dégradé_sans_nom_37);}.cls-46{fill:url(#Dégradé_sans_nom_29);}.cls-47{fill:url(#Dégradé_sans_nom_74);}.cls-48{fill:url(#Dégradé_sans_nom_15);}.cls-49{clip-path:url(#clippath-1);}.cls-50{fill:url(#Dégradé_sans_nom_37-4);}.cls-51{fill:url(#Dégradé_sans_nom_37-5);}.cls-52{fill:url(#Dégradé_sans_nom_37-9);}.cls-53{fill:url(#Dégradé_sans_nom_37-3);}.cls-54{fill:url(#Dégradé_sans_nom_37-6);}.cls-55{fill:url(#Dégradé_sans_nom_37-2);}.cls-56{fill:url(#Dégradé_sans_nom_37-8);}.cls-57{fill:url(#Dégradé_sans_nom_37-7);}.cls-58{fill:url(#Dégradé_sans_nom_15-6);}.cls-59{fill:url(#Dégradé_sans_nom_15-5);}.cls-60{fill:url(#Dégradé_sans_nom_15-8);}.cls-61{fill:url(#Dégradé_sans_nom_15-7);}.cls-62{fill:url(#Dégradé_sans_nom_15-2);}.cls-63{fill:url(#Dégradé_sans_nom_15-4);}.cls-64{fill:url(#Dégradé_sans_nom_15-3);}.cls-65{fill:url(#Dégradé_sans_nom_15-9);}.cls-66{fill:url(#Dégradé_sans_nom_29-9);}.cls-67{fill:url(#Dégradé_sans_nom_29-8);}.cls-68{fill:url(#Dégradé_sans_nom_29-7);}.cls-69{fill:url(#Dégradé_sans_nom_29-5);}.cls-70{fill:url(#Dégradé_sans_nom_29-4);}.cls-71{fill:url(#Dégradé_sans_nom_29-3);}.cls-72{fill:url(#Dégradé_sans_nom_29-2);}.cls-73{fill:url(#Dégradé_sans_nom_29-6);}.cls-74{fill:url(#Dégradé_sans_nom_74-7);}.cls-75{fill:url(#Dégradé_sans_nom_74-8);}.cls-76{fill:url(#Dégradé_sans_nom_74-2);}.cls-77{fill:url(#Dégradé_sans_nom_74-9);}.cls-78{fill:url(#Dégradé_sans_nom_74-5);}.cls-79{fill:url(#Dégradé_sans_nom_74-6);}.cls-80{fill:url(#Dégradé_sans_nom_74-3);}.cls-81{fill:url(#Dégradé_sans_nom_74-4);}</style><clipPath id="clippath"><rect class="cls-1" x="-2020" y="0" width="1920" height="1080"/></clipPath><linearGradient id="Dégradé_sans_nom_29" x1="-240.63" y1="321.27" x2="1.23" y2="985.77" gradientTransform="matrix(1, 0, 0, 1, 0, 0)" gradientUnits="userSpaceOnUse"><stop offset="0" stop-color="#76ff44"/><stop offset=".17" stop-color="#72fa47"/><stop offset=".35" stop-color="#66ee51"/><stop offset=".53" stop-color="#54d962"/><stop offset=".71" stop-color="#39bc79"/><stop offset=".89" stop-color="#189797"/><stop offset="1" stop-color="#007dad"/></linearGradient><linearGradient id="Dégradé_sans_nom_15" x1="-473.3" y1="-267.18" x2="-182.14" y2="532.77" gradientTransform="matrix(1, 0, 0, 1, 0, 0)" gradientUnits="userSpaceOnUse"><stop offset="0" stop-color="#efeb1b"/><stop offset="1" stop-color="#f6a11b"/></linearGradient><clipPath id="clippath-1"><rect class="cls-1" y="0" width="1920" height="1080"/></clipPath><linearGradient id="Dégradé_sans_nom_37" x1="-161.17" y1="376.74" x2="-15.87" y2="775.92" gradientTransform="matrix(1, 0, 0, 1, 0, 0)" gradientUnits="userSpaceOnUse"><stop offset="0" stop-color="#d3389b"/><stop offset=".13" stop-color="#ce3798"/><stop offset=".27" stop-color="#c23592"/><stop offset=".41" stop-color="#ad3287"/><stop offset=".55" stop-color="#902d77"/><stop offset=".7" stop-color="#6b2863"/><stop offset=".84" stop-color="#3d214b"/><stop offset=".9" stop-color="#281e40"/></linearGradient><linearGradient id="Dégradé_sans_nom_37-2" x1="-21.75" y1="409.71" x2="136.74" y2="845.14" xlink:href="#Dégradé_sans_nom_37"/><linearGradient id="Dégradé_sans_nom_37-3" x1="142.25" y1="534.52" x2="249.11" y2="828.12" xlink:href="#Dégradé_sans_nom_37"/><linearGradient id="Dégradé_sans_nom_29-2" x1="1604.12" y1="385.06" x2="1729.76" y2="730.25" xlink:href="#Dégradé_sans_nom_29"/><linearGradient id="Dégradé_sans_nom_29-3" x1="1714.5" y1="370.01" x2="1898.36" y2="875.15" xlink:href="#Dégradé_sans_nom_29"/><linearGradient id="Dégradé_sans_nom_29-4" x1="1859.51" y1="423.94" x2="2048.81" y2="944.02" xlink:href="#Dégradé_sans_nom_29"/><linearGradient id="Dégradé_sans_nom_74" x1="1531.8" y1="892.3" x2="1723.02" y2="1417.66" gradientTransform="matrix(1, 0, 0, 1, 0, 0)" gradientUnits="userSpaceOnUse"><stop offset="0" stop-color="#f4f2f3"/><stop offset=".23" stop-color="#efedee"/><stop offset=".47" stop-color="#e3e1e2"/><stop offset=".71" stop-color="#cecdce"/><stop offset=".95" stop-color="#b1b1b1"/><stop offset="1" stop-color="#ababab"/></linearGradient><linearGradient id="Dégradé_sans_nom_74-2" x1="863.38" y1="-245.85" x2="1005.73" y2="145.26" xlink:href="#Dégradé_sans_nom_74"/><linearGradient id="Dégradé_sans_nom_74-3" x1="1000.37" y1="-215.42" x2="1157.01" y2="214.93" xlink:href="#Dégradé_sans_nom_74"/><linearGradient id="Dégradé_sans_nom_74-4" x1="1164.28" y1="-92.56" x2="1271.11" y2="200.95" xlink:href="#Dégradé_sans_nom_74"/><linearGradient id="Dégradé_sans_nom_15-2" x1="837.94" y1="355.66" x2="980.87" y2="748.37" xlink:href="#Dégradé_sans_nom_15"/><linearGradient id="Dégradé_sans_nom_15-3" x1="969.24" y1="365.5" x2="1142.82" y2="842.42" xlink:href="#Dégradé_sans_nom_15"/><linearGradient id="Dégradé_sans_nom_15-4" x1="1127.25" y1="447.26" x2="1277.91" y2="861.19" xlink:href="#Dégradé_sans_nom_15"/><linearGradient id="Dégradé_sans_nom_15-5" x1="1316.45" y1="627.85" x2="1373.13" y2="783.59" xlink:href="#Dégradé_sans_nom_15"/><linearGradient id="Dégradé_sans_nom_74-5" x1="546.38" y1="285.82" x2="620.8" y2="490.3" xlink:href="#Dégradé_sans_nom_74"/><linearGradient id="Dégradé_sans_nom_74-6" x1="657.93" y1="265.99" x2="781.92" y2="606.65" xlink:href="#Dégradé_sans_nom_74"/><linearGradient id="Dégradé_sans_nom_74-7" x1="808.4" y1="362.89" x2="898.01" y2="609.1" xlink:href="#Dégradé_sans_nom_74"/><linearGradient id="Dégradé_sans_nom_37-4" x1="595.16" y1="489.54" x2="704.91" y2="791.09" xlink:href="#Dégradé_sans_nom_37"/><linearGradient id="Dégradé_sans_nom_37-5" x1="732.85" y1="545.87" x2="834.45" y2="825.03" xlink:href="#Dégradé_sans_nom_37"/><linearGradient id="Dégradé_sans_nom_15-6" x1="162.93" y1="286.94" x2="246.42" y2="516.31" xlink:href="#Dégradé_sans_nom_15"/><linearGradient id="Dégradé_sans_nom_15-7" x1="279.1" y1="278.43" x2="408.81" y2="634.81" xlink:href="#Dégradé_sans_nom_15"/><linearGradient id="Dégradé_sans_nom_15-8" x1="429.76" y1="363.59" x2="530.68" y2="640.85" xlink:href="#Dégradé_sans_nom_15"/><linearGradient id="Dégradé_sans_nom_15-9" x1="262.65" y1="635.22" x2="299.83" y2="737.35" xlink:href="#Dégradé_sans_nom_15"/><linearGradient id="Dégradé_sans_nom_15-10" x1="361.71" y1="576.08" x2="497.83" y2="950.06" xlink:href="#Dégradé_sans_nom_15"/><linearGradient id="Dégradé_sans_nom_15-11" x1="501.68" y1="610.69" x2="649.56" y2="1016.98" xlink:href="#Dégradé_sans_nom_15"/><linearGradient id="Dégradé_sans_nom_15-12" x1="663.02" y1="726.91" x2="760.51" y2="994.75" xlink:href="#Dégradé_sans_nom_15"/><linearGradient id="Dégradé_sans_nom_15-13" x1="1282.22" y1="-183.97" x2="1399.32" y2="137.74" xlink:href="#Dégradé_sans_nom_15"/><linearGradient id="Dégradé_sans_nom_15-14" x1="1474.42" y1="-248.88" x2="1725.18" y2="440.1" xlink:href="#Dégradé_sans_nom_15"/><linearGradient id="Dégradé_sans_nom_15-15" x1="1694.9" y1="-142.88" x2="1914.93" y2="461.65" xlink:href="#Dégradé_sans_nom_15"/><linearGradient id="Dégradé_sans_nom_15-16" x1="1863.9" y1="-24.43" x2="2033.11" y2="440.49" xlink:href="#Dégradé_sans_nom_15"/><linearGradient id="Dégradé_sans_nom_74-8" x1="1228.43" y1="455.03" x2="1319.6" y2="705.51" xlink:href="#Dégradé_sans_nom_74"/><linearGradient id="Dégradé_sans_nom_74-9" x1="1340.97" y1="419.83" x2="1494.49" y2="841.63" xlink:href="#Dégradé_sans_nom_74"/><linearGradient id="Dégradé_sans_nom_74-10" x1="1488.43" y1="478" x2="1637.37" y2="887.2" xlink:href="#Dégradé_sans_nom_74"/><linearGradient id="Dégradé_sans_nom_74-11" x1="1670.05" y1="640.37" x2="1743.95" y2="843.4" xlink:href="#Dégradé_sans_nom_74"/><linearGradient id="Dégradé_sans_nom_74-12" x1="470.12" y1="845.92" x2="582.22" y2="1153.9" xlink:href="#Dégradé_sans_nom_74"/><linearGradient id="Dégradé_sans_nom_74-13" x1="630.41" y1="816.39" x2="812.52" y2="1316.74" xlink:href="#Dégradé_sans_nom_74"/><linearGradient id="Dégradé_sans_nom_74-14" x1="-110.62" y1="-114.07" x2="11.17" y2="220.56" xlink:href="#Dégradé_sans_nom_74"/><linearGradient id="Dégradé_sans_nom_74-15" x1="5.16" y1="-140.8" x2="183.58" y2="349.39" xlink:href="#Dégradé_sans_nom_74"/><linearGradient id="Dégradé_sans_nom_74-16" x1="153.97" y1="-86.64" x2="331.92" y2="402.29" xlink:href="#Dégradé_sans_nom_74"/><linearGradient id="Dégradé_sans_nom_74-17" x1="323.51" y1="46.06" x2="445.94" y2="382.42" xlink:href="#Dégradé_sans_nom_74"/><linearGradient id="Dégradé_sans_nom_15-17" x1="868.87" y1="364.66" x2="971.5" y2="646.64" xlink:href="#Dégradé_sans_nom_15"/><linearGradient id="Dégradé_sans_nom_15-18" x1="981.95" y1="320.13" x2="1154.42" y2="793.99" xlink:href="#Dégradé_sans_nom_15"/><linearGradient id="Dégradé_sans_nom_15-19" x1="1125.32" y1="359.75" x2="1307.23" y2="859.54" xlink:href="#Dégradé_sans_nom_15"/><linearGradient id="Dégradé_sans_nom_15-20" x1="1289.8" y1="475.48" x2="1426.82" y2="851.96" xlink:href="#Dégradé_sans_nom_15"/><linearGradient id="Dégradé_sans_nom_37-6" x1="837.7" y1="144.06" x2="872.45" y2="239.55" xlink:href="#Dégradé_sans_nom_37"/><linearGradient id="Dégradé_sans_nom_37-7" x1="937.9" y1="99.17" x2="1047.98" y2="401.6" xlink:href="#Dégradé_sans_nom_37"/><linearGradient id="Dégradé_sans_nom_37-8" x1="1080.39" y1="181.08" x2="1164.23" y2="411.42" xlink:href="#Dégradé_sans_nom_37"/><linearGradient id="Dégradé_sans_nom_37-9" x1="1815.48" y1="968.61" x2="1868.47" y2="1114.2" xlink:href="#Dégradé_sans_nom_37"/><linearGradient id="Dégradé_sans_nom_37-10" x1="1319.81" y1="786.93" x2="1378.75" y2="948.86" xlink:href="#Dégradé_sans_nom_37"/><linearGradient id="Dégradé_sans_nom_37-11" x1="1429.21" y1="791.11" x2="1518.28" y2="1035.81" xlink:href="#Dégradé_sans_nom_37"/><linearGradient id="Dégradé_sans_nom_37-12" x1="1007.23" y1="636.52" x2="1056.53" y2="772" xlink:href="#Dégradé_sans_nom_37"/><linearGradient id="Dégradé_sans_nom_37-13" x1="1114.27" y1="629.89" x2="1203.77" y2="875.78" xlink:href="#Dégradé_sans_nom_37"/><linearGradient id="Dégradé_sans_nom_37-14" x1="-28.09" y1="665.21" x2="80.95" y2="964.8" xlink:href="#Dégradé_sans_nom_37"/><linearGradient id="Dégradé_sans_nom_37-15" x1="86.43" y1="652.31" x2="244.47" y2="1086.52" xlink:href="#Dégradé_sans_nom_37"/><linearGradient id="Dégradé_sans_nom_37-16" x1="237.36" y1="720.03" x2="382.44" y2="1118.63" xlink:href="#Dégradé_sans_nom_37"/><linearGradient id="Dégradé_sans_nom_37-17" x1="440.6" y1="933.3" x2="475.67" y2="1029.64" xlink:href="#Dégradé_sans_nom_37"/><linearGradient id="Dégradé_sans_nom_29-5" x1="748.03" y1="652.51" x2="834.71" y2="890.66" xlink:href="#Dégradé_sans_nom_29"/><linearGradient id="Dégradé_sans_nom_29-6" x1="878.47" y1="720.48" x2="949.54" y2="915.77" xlink:href="#Dégradé_sans_nom_29"/><linearGradient id="Dégradé_sans_nom_29-7" x1="1110.48" y1="194.32" x2="1224.66" y2="508.02" xlink:href="#Dégradé_sans_nom_29"/><linearGradient id="Dégradé_sans_nom_29-8" x1="1230.29" y1="209.04" x2="1377.11" y2="612.45" xlink:href="#Dégradé_sans_nom_29"/><linearGradient id="Dégradé_sans_nom_29-9" x1="1386.72" y1="308.84" x2="1497.24" y2="612.51" xlink:href="#Dégradé_sans_nom_29"/><linearGradient id="Dégradé_sans_nom_29-10" x1="89.37" y1="29.62" x2="136.3" y2="158.56" xlink:href="#Dégradé_sans_nom_29"/><linearGradient id="Dégradé_sans_nom_29-11" x1="356.3" y1="677.7" x2="437.8" y2="901.62" xlink:href="#Dégradé_sans_nom_29"/><linearGradient id="Dégradé_sans_nom_29-12" x1="490.51" y1="759.97" x2="545.69" y2="911.58" xlink:href="#Dégradé_sans_nom_29"/><linearGradient id="Dégradé_sans_nom_29-13" x1="58.65" y1="559.13" x2="117.97" y2="722.09" xlink:href="#Dégradé_sans_nom_29"/><linearGradient id="Dégradé_sans_nom_29-14" x1="172.21" y1="613.48" x2="222.81" y2="752.51" xlink:href="#Dégradé_sans_nom_29"/><linearGradient id="Dégradé_sans_nom_15-21" x1="878.72" y1="843.63" x2="982.7" y2="1129.32" xlink:href="#Dégradé_sans_nom_15"/><linearGradient id="Dégradé_sans_nom_15-22" x1="1047.59" y1="818.11" x2="1232.99" y2="1327.49" xlink:href="#Dégradé_sans_nom_15"/><linearGradient id="Dégradé_sans_nom_15-23" x1="1327.78" y1="1054.5" x2="1393.26" y2="1234.38" xlink:href="#Dégradé_sans_nom_15"/><linearGradient id="Dégradé_sans_nom_15-24" x1="1557.46" y1="755.07" x2="1589.62" y2="843.43" xlink:href="#Dégradé_sans_nom_15"/><linearGradient id="Dégradé_sans_nom_15-25" x1="1662.44" y1="724.7" x2="1762.12" y2="998.57" xlink:href="#Dégradé_sans_nom_15"/><linearGradient id="Dégradé_sans_nom_15-26" x1="1810.79" y1="823.51" x2="1870.37" y2="987.2" xlink:href="#Dégradé_sans_nom_15"/><linearGradient id="Dégradé_sans_nom_29-15" x1="444.85" y1="-59.16" x2="558.06" y2="251.89" xlink:href="#Dégradé_sans_nom_29"/><linearGradient id="Dégradé_sans_nom_29-16" x1="566.01" y1="-41.02" x2="708.98" y2="351.8" xlink:href="#Dégradé_sans_nom_29"/><linearGradient id="Dégradé_sans_nom_29-17" x1="723.81" y1="64.98" x2="825.94" y2="345.58" xlink:href="#Dégradé_sans_nom_29"/></defs><g class="cls-2"><g><path class="cls-46" d="M-126.52,1010.68c-67.27,0-132.93-21.7-189.86-62.75-53.19-38.34-96.66-91.49-125.71-153.69-32.47-69.5-39.12-155.98-18.24-237.25,22.59-87.96,75.18-160.45,148.08-204.13,47.91-28.7,106.11-43.88,168.31-43.88,68.53,0,139.37,18.97,199.46,53.43,65.09,37.32,116.49,91.47,148.64,156.6,38.13,77.23,43.03,165.75,13.81,249.25-29.55,84.42-91.06,154.57-173.22,197.54-56.92,29.77-114.54,44.87-171.26,44.87Z"/><path d="M-143.93,313.99c33.6,0,67.5,4.47,100.75,13.3,33.82,8.98,66.19,22.26,96.21,39.47,64.22,36.83,114.93,90.24,146.64,154.47,18.89,38.27,29.55,79.36,31.66,122.11,2.06,41.63-4.03,83.1-18.09,123.27-29.13,83.21-89.79,152.38-170.82,194.77-56.2,29.4-113.04,44.3-168.94,44.3-33.97,0-67.53-5.55-99.73-16.5-30.6-10.4-59.94-25.64-87.21-45.3-26.27-18.94-50.35-41.77-71.56-67.84-20.8-25.57-38.48-53.8-52.54-83.9-15.6-33.39-25.49-72.2-28.6-112.23-3.17-40.83,.42-81.76,10.67-121.67,10.69-41.61,28.07-79.74,51.67-113.3,25.29-35.97,56.96-65.51,94.14-87.78,47.13-28.24,104.44-43.16,165.75-43.17h0m-.02-10c-61.36,0-120.91,14.65-170.88,44.59-159.69,95.68-197.32,307.53-131.8,447.79,57.26,122.58,175.55,219.31,320.11,219.31,54.72,0,113.22-13.87,173.58-45.44,173.37-90.69,241.09-292.37,161.57-453.44C139.75,377.3-6.67,303.99-143.95,303.99h0Z"/></g><g><path class="cls-48" d="M-340.25,505.98c-103.27,0-208.79-34.05-289.5-93.43-42.12-30.99-75.9-67.47-100.41-108.43-26.24-43.87-41.03-91.71-43.95-142.19-8.04-138.98,29.03-261.66,107.19-354.78,71.39-85.06,172.74-139.33,285.38-152.82,13.93-1.67,28.27-2.51,42.62-2.51,47.49,0,95.69,8.95,143.26,26.61,47.16,17.5,91.25,42.64,131.04,74.7C19.89-178.78,76.13-85.73,93.74,15.15c10.09,57.81,8.72,118.06-3.97,174.24-13.39,59.26-38.42,112.6-74.41,158.55-72.88,93.05-184.87,147.33-323.87,156.95-10.44,.72-21.12,1.09-31.74,1.09Z"/><path d="M-338.9-343.18c46.89,0,94.5,8.85,141.52,26.3,46.65,17.32,90.27,42.18,129.64,73.91C-27.32-210.39,6.63-172.16,33.14-129.33,61.14-84.11,79.88-35.21,88.82,16.01c9.98,57.16,8.62,116.73-3.92,172.28-6.44,28.51-15.81,56.09-27.85,81.99-12.41,26.69-27.76,51.79-45.61,74.58-71.98,91.91-182.73,145.52-320.28,155.04-10.33,.71-20.89,1.08-31.4,1.08-102.22,0-206.66-33.7-286.54-92.46-41.58-30.59-74.92-66.58-99.08-106.97-25.82-43.17-40.38-90.24-43.25-139.91-4.1-70.79,3.62-137.63,22.92-198.64,18.07-57.11,46.03-108.47,83.1-152.63,70.57-84.08,170.77-137.73,282.15-151.07,13.73-1.64,27.87-2.48,42.03-2.48h0m-.01-10c-14.49,0-28.93,.84-43.21,2.55-223.09,26.72-414.23,214.51-396.97,512.85,12.34,213.26,231.74,348.76,438.85,348.76,10.73,0,21.45-.37,32.09-1.1C12.37,487.69,137.31,235.63,98.67,14.29,60.81-202.54-144.66-353.18-338.92-353.18h0Z"/></g></g><g class="cls-49"><g><path class="cls-45" d="M-172.08,832.77c-20.96-17.02-39.11-36.63-54.05-58.41L-48.84,335.85c16.02-3.25,32.52-5.31,49.09-6.13,5.67-.28,11.42-.43,17.08-.43,4.67,0,9.37,.1,14.04,.29l-203.45,503.19Z"/><path d="M17.32,334.29c2.24,0,4.48,.02,6.72,.07L-6.86,410.79h0l-4.17,10.31-163.12,403.44c-17.7-15.09-33.23-32.13-46.34-50.81L-61.04,379.37l15.82-39.14c14.94-2.9,30.3-4.75,45.72-5.52,5.59-.28,11.25-.42,16.82-.42m0-10c-5.79,0-11.57,.15-17.32,.43-17.87,.89-35.47,3.18-52.46,6.77h-.01l-17.84,44.13-161.46,399.34c16.63,24.75,37.57,47.09,61.82,65.88L-1.76,424.86c.58,.31,1.17,.63,1.76,.94v-5.29l38.63-95.55c-7.11-.45-14.22-.66-21.31-.66h0Z"/></g><g><path class="cls-55" d="M-5,896.73c-24.9-1.15-49.5-5.58-73.27-13.18L5,677.59v-.12l.08-.08,12.46-30.81,.06-.75c2.18-25.18,11.79-48.99,27.08-67.06l.52-.61,91.41-226.09c1.23,.51,2.53,1.05,3.94,1.65,21.47,9.19,41.3,20.9,58.99,34.81L-5,894.41v2.32Z"/><path d="M139.34,358.64c19.59,8.46,37.77,19.05,54.14,31.52l-29.19,72.2-29.04,71.83-6.39,15.8-21.99,54.38-58.74,145.29L-9.21,891.5c-21.13-1.31-42.05-5.04-62.38-11.12L9.27,680.36l.73-1.8h0l.11-.28,11.78-29.13,.56-1.39,.13-1.5c2.09-24.16,11.29-46.98,25.91-64.26l1.03-1.22,.6-1.49,47.57-117.66,41.64-102.99m-5.5-13.07l-45.41,112.31-47.57,117.66c-16.83,19.9-26.08,44.91-28.24,69.86l-11.78,29.13c-.28,.27-.56,.54-.84,.82v1.26l-84.91,210.01c25.94,8.83,53.59,14.15,82.3,15.21,.87,.04,1.74,.07,2.61,.09v-6.54l57.4-141.97,58.74-145.29,21.99-54.38,6.39-15.8,29.04-71.83,32.01-79.17c-19.34-15.68-40.63-28.22-63.07-37.83-2.87-1.22-5.75-2.41-8.66-3.54h0Z"/></g><g><path class="cls-53" d="M215.05,632.94l19.75-48.83,39.48-97.64c5.52,12.8,10.2,26.33,13.94,40.35,6.92,25.88,9.77,53.25,8.5,81.34-.17,3.8-.41,7.55-.72,11.16l-.02,.23c-.2,2.35-.42,4.7-.68,7.01l-13.24,32.76-1.23,3.02-52.08,128.83c-26.39,34.32-57.84,60.65-91,76.15-6.96,3.25-14.02,6.27-21.1,9.01l98.41-243.39Z"/><path d="M274.28,499.8c3.47,9.14,6.51,18.61,9.1,28.32,6.78,25.39,9.59,52.24,8.33,79.83-.17,3.72-.4,7.4-.7,10.95l-.04,.43h0c-.17,2-.36,4.01-.57,6l-11.67,28.88h0l-2.53,6.25-34.08,84.3-17.75,43.9c-25.82,33.43-56.48,59.05-88.74,74.13-3.28,1.54-6.59,3.02-9.91,4.44l33.08-81.81,60.89-150.61,14.35-35.48,5.4-13.35,34.84-86.18m-.29-25.97l-43.83,108.41-5.4,13.35-14.35,35.48-60.89,150.61-41.74,103.23c10.67-3.7,21.37-8.04,32.08-13.05,34.69-16.22,66.87-43.7,93.25-78.16h.01l18.26-45.18,34.08-84.3h.01l14.72-36.42h0c.3-2.68,.56-5.36,.78-8.04h0c.32-3.79,.56-7.57,.73-11.36,1.26-27.71-1.39-55.65-8.66-82.86-4.98-18.66-11.4-35.88-19.05-51.71h0Z"/></g><g><path class="cls-72" d="M1574.53,786.75c-2.25-5.2-4.37-10.52-6.33-15.88-12.56-34.21-19.4-71.29-20.34-110.25l99.17-245.27,9.91-24.52c15.54-14.31,32.63-27.07,50.8-37.95,16.19-9.7,33.67-17.92,52.11-24.49l-71.76,177.51-1.25,3.07-112.31,277.78Z"/><path d="M1750.93,337.1l-53.02,131.16-13.17,32.59h0l-2.53,6.25-82.68,204.5-25.01,61.86c-.55-1.44-1.09-2.88-1.62-4.32-12.25-33.39-18.98-69.58-20.01-107.61l61.67-152.53,37.11-91.78,9.49-23.47c15.07-13.77,31.6-26.07,49.16-36.59,12.77-7.65,26.37-14.37,40.62-20.06m17.63-16.92c-22.31,7.09-43.6,16.55-63.39,28.41-19.25,11.53-36.72,24.75-52.45,39.33l-10.33,25.56-37.11,91.78-62.45,154.45c.85,39.4,7.82,77.87,20.67,112.88,2.97,8.13,6.26,16.06,9.87,23.78,.47,1.01,.95,2.03,1.43,3.04l33.99-84.06,82.68-204.5h0l15.7-38.84,61.38-151.83h0Z"/></g><g><path class="cls-71" d="M1701.87,946.67c-20.53-14.99-39.78-32.39-57.33-51.8l.84-.57,11.05-27.32,147.59-365.04,1.27-3.13,76.72-189.77c12.42,.19,25,1,37.44,2.39,12.28,1.38,24.66,3.36,36.88,5.89l-57.14,141.32-170.16,420.87-27.16,67.16Z"/><path d="M1885.35,314.11c11.15,.27,22.4,1.04,33.53,2.29,10.16,1.14,20.39,2.7,30.54,4.64l-38.7,95.71-16.18,40.01-96.15,237.82-74.01,183.05-24.73,61.16c-17.36-13.16-33.75-28.08-48.89-44.51l10.29-25.43,77.15-190.82,34.55-85.46,34.62-85.64h0l2.53-6.25,75.43-186.57m-6.7-10.11l-78,192.93h0l-37.15,91.89-34.55,85.46-77.15,190.82-10.48,25.91c-1.43,.97-2.88,1.93-4.34,2.86,.72,.83,1.45,1.66,2.18,2.48,19.42,21.76,41.19,41.35,64.97,58.08l29.54-73.05,74.01-183.05,96.15-237.82,16.18-40.01,43.19-106.82c-14.33-3.19-28.76-5.6-43.19-7.22-13.81-1.55-27.62-2.37-41.35-2.46h0Z"/></g><g><path class="cls-70" d="M1868.39,1009.68c-19.92-1.58-39.79-5.1-59.09-10.47-4.24-1.17-8.53-2.45-12.79-3.83l260.03-643.15c21.96,11.06,42.78,24.09,61.98,38.8l-203.16,502.48-22.12,54.71-1.27,3.13-18.15,44.91-5.43,13.42Z"/><path d="M2059.13,359.17c18.77,9.78,36.64,21.02,53.33,33.53l-201.73,498.93-20.85,51.59h-.01l-2.53,6.25-18.15,44.91-4.05,10c-18.38-1.68-36.68-5.03-54.53-10-2.47-.68-4.95-1.4-7.44-2.16l3.57-8.84,20.09-49.68,63.18-156.26,39.25-97.08,129.86-321.19m-5.2-13.82l-133.93,331.26-39.25,97.08-63.18,156.26-20.09,49.68-7.6,18.8c5.95,2.04,11.98,3.91,18.08,5.59,20.47,5.7,41.75,9.43,63.7,10.91l6.8-16.8,18.15-44.91h.01l23.38-57.84,204.58-505.99c-22.06-17.25-45.82-31.95-70.65-44.04h0Z"/></g><g><path class="cls-47" d="M1629.42,1432.16c-38.23,0-75.18-6.84-109.83-20.34-36.7-14.29-68.93-35.4-95.79-62.73-34.99-35.6-60.17-79.1-72.8-125.77-4.84-17.88-7.77-36.13-8.72-54.25l46.93-116.04,34.7-85.83c8.74-8.92,18.29-17.68,28.38-26.05,2.08-1.73,4.17-3.42,6.2-5.05,22.83-18.2,47.47-32.91,73.38-43.82l-66.75,165.09-8.39,20.76-78.97,195.32,98.27,39.73,93.52-231.31,75.4-186.52-.42-.47,.85-.58,9.72-24.03c5.38,.29,10.79,.75,16.13,1.37,18.96,2.19,37.73,6.46,55.84,12.71l-53.56,132.47-24.78,61.3-78.97,195.33,98.27,39.73,93.52-231.31,12-29.69,14.91-36.87,13.66-33.8,17.5-43.27c1.77,1.53,3.52,3.08,5.25,4.64,5.23,4.74,10.24,9.58,14.88,14.4,4.54,4.71,8.95,9.59,13.11,14.53,7.25,8.59,13.97,17.62,20.01,26.86l-5.83,14.39-50.32,124.48-54.95,135.91,98.27,39.73,51.5-127.36c-4.57,29.19-13.59,58.26-26.64,85.55-17.64,36.88-42.26,69.88-71.22,95.44-47.05,41.53-114.2,65.35-184.23,65.35Z"/><path d="M1658.38,875.48c4.1,.28,8.21,.65,12.27,1.12,16.86,1.95,33.57,5.57,49.79,10.8l-25.59,63.28-25.98,64.26-24.78,61.3-77.1,190.69-3.75,9.27,9.27,3.75,89,35.98,9.27,3.75,3.75-9.27,91.65-226.67,12-29.69,14.91-36.87,6.06-15,7.6-18.8,14.85-36.72c5.11,4.63,10,9.37,14.55,14.08,4.45,4.61,8.79,9.42,12.88,14.28,6.55,7.76,12.66,15.88,18.2,24.19l-4.84,11.96-26.3,65.06-24.02,59.42-53.08,131.27-3.75,9.27,9.27,3.75,88.39,35.73c-12.62,17.61-26.95,33.59-42.56,47.37-23.25,20.53-51.08,36.56-82.69,47.65-31.13,10.92-64.17,16.45-98.23,16.45-37.6,0-73.95-6.73-108.02-20-36.04-14.04-67.68-34.75-94.04-61.57-19.58-19.92-36.03-42.36-48.86-66.44l2.01,.81,89,35.98,9.27,3.75,3.75-9.27,91.65-226.67,38.07-94.17,36.17-89.47,1.02-2.52h0l1.14-2.82,7.8-19.29m-135.8,26.41l-12.26,30.31-49.85,123.29-8.39,20.76-77.1,190.69-1.2,2.96c-7.49-15.42-13.52-31.45-17.97-47.88-4.65-17.18-7.5-34.69-8.49-52.1l34.85-86.17,11.66-28.84,23.16-57.29,11.17-27.62c8.44-8.55,17.62-16.96,27.31-25,2.04-1.69,4.1-3.37,6.13-4.99,19.15-15.26,39.58-28.03,60.98-38.12m129.2-36.78l-10.48,25.91c-1.43,.97-2.88,1.93-4.34,2.86,.72,.83,1.45,1.66,2.18,2.48l-36.17,89.47-38.07,94.17-91.65,226.67-89-35.98,77.1-190.69,8.39-20.76,49.85-123.29,21.29-52.65c-30.04,11.29-58.91,27.68-85.52,48.89-2.12,1.69-4.22,3.4-6.28,5.11-10.64,8.83-20.45,17.88-29.45,27.11l-11.91,29.46-23.16,57.29-11.66,28.84-35.68,88.22h0c.92,19.19,3.98,38.08,8.94,56.41,13.04,48.18,39.18,92.48,74.06,127.97,56.62,57.6,133.77,84.56,209.19,84.56,69.91,0,138.34-23.17,187.54-66.6,59.07-52.14,99.78-133.76,102.85-218.59l-62.55,154.7-89-35.98,53.08-131.27,24.02-59.42,26.3-65.06,6.8-16.8c-6.44-10.08-13.69-19.95-21.79-29.55-4.21-5-8.65-9.93-13.33-14.78-4.79-4.97-9.84-9.85-15.13-14.64-3.51-3.17-7.06-6.24-10.64-9.21l-20.09,49.68-7.6,18.8-6.06,15-14.91,36.87-12,29.69-91.65,226.67-89-35.98,77.1-190.69,24.78-61.3,25.98-64.26,29.54-73.05c-20.24-7.43-40.97-12.31-61.86-14.72-6.66-.77-13.33-1.29-20.01-1.56h0Z"/></g><path d="M791.68-139.6l-30.16,74.58-1.33,3.28c.58-2.67,1.21-5.33,1.89-7.98,6.19-24.31,16.09-47.67,29.6-69.89m35.79-61.85c-39.69,40.64-63.76,84.81-75.08,129.27C746.24-48.04,743.85-23.8,744.76,0c.03,.93,.07,1.87,.13,2.8L746.02,0l24.77-61.27,56.68-140.18h0Z"/><g><path class="cls-76" d="M851.15,201.53c-4.15-3.45-8.18-7.01-12.04-10.63-2.74-2.58-5.25-5.03-7.66-7.48-12.53-12.74-23.92-26.67-33.9-41.42L854.2,1.87l114.25-282.57-4.41-1.78c27.63-8.84,55.91-13.32,84.27-13.32,1.29,0,2.59,0,3.89,.03L933.38-1.87l-48.77,120.62h0l-33.46,82.78Z"/><path d="M1044.79-290.78L928.75-3.75l-44.08,109.01-4.33,10.71-.73,1.81h0l-30.5,75.44c-2.24-1.96-4.44-3.95-6.58-5.96-2.66-2.49-5.18-4.97-7.53-7.35-11.69-11.89-22.38-24.83-31.82-38.52l51.71-127.91,3.93-9.73,112.38-277.94,2.42-5.98c23.41-6.73,47.26-10.29,71.17-10.61m3.52-10.02c-33.27,0-66.55,6.1-98.52,17.95l12.15,4.91L849.56,0l-3.93,9.73-53.71,132.85c10.54,15.89,22.61,30.76,35.96,44.34,2.56,2.61,5.17,5.15,7.81,7.63,5.68,5.33,11.54,10.36,17.56,15.12l36.36-89.94h0l4.33-10.72L938.02,0l121.52-300.57c-3.74-.15-7.48-.23-11.23-.23h0Z"/></g><g><path class="cls-80" d="M1017.15,265.83c-8.04-.51-16.11-1.34-24.04-2.49l-.37-.05c-16.25-2.34-32.3-6-47.81-10.92L1046.2,1.87l110.92-274.34c21.91,9.83,42.71,22.65,62.16,38.35l-202.13,499.95Z"/><path d="M1159.79-265.74c18.72,8.84,36.59,19.93,53.46,33.2L1120.75-3.75l-31.25,77.29-74.88,185.21-.75,1.84c-6.71-.51-13.43-1.24-20.05-2.2l-.72-.1h0c-14.06-2.04-27.97-5.09-41.49-9.1l73.01-180.59,26.22-64.85,108.96-269.48m-35.3-24.11l29.45,11.91L1041.56,0l-26.22,64.85-77.06,190.61c17.66,5.95,35.8,10.22,54.1,12.83h.01c9.33,1.35,18.68,2.26,28.04,2.74h.01l3.45-8.53,74.88-185.21L1130.02,0l95.28-235.66c-31.27-25.86-65.43-43.78-100.81-54.19h0Z"/></g><g><path class="cls-81" d="M1238.2,1.87l57.53-142.27c1.62,3.26,3.15,6.53,4.6,9.8,16.1,36.18,23.56,75.24,22.15,116.11l-63.18,156.25-14.56,36.01c-1.59,1.78-3.27,3.61-5.12,5.57-5.9,6.27-12.06,12.25-18.33,17.78-3.15,2.79-6.48,5.56-9.89,8.24-21.4,16.86-46,30.28-73.26,39.96L1238.2,1.87Z"/><path d="M1296.06-127.89c15.47,35.03,22.69,72.82,21.45,112.35l-4.77,11.79-58.08,143.64-14.23,35.2c-1.38,1.54-2.85,3.13-4.45,4.84-5.78,6.15-11.84,12.02-18,17.46-3.07,2.72-6.32,5.42-9.67,8.06-18.16,14.31-38.69,26.09-61.24,35.16l26.06-64.47,15.32-37.89L1242.83,3.75l53.23-131.64m-.91-24.42L1233.56,0l-54.38,134.5-15.32,37.89-34.41,85.12c31.21-9.8,60.21-24.64,85.05-44.21,3.45-2.71,6.83-5.52,10.11-8.42,6.45-5.69,12.68-11.74,18.66-18.1,1.96-2.08,3.89-4.18,5.79-6.33l14.88-36.81L1322.02,0l5.43-13.43h0c1.49-39.94-5.36-80.58-22.55-119.2-2.94-6.63-6.19-13.19-9.75-19.68h0Z"/></g><g><path class="cls-62" d="M806.44,786.98c-20.82-22.31-36.94-47.03-47.94-73.51l86.43-213.78,74.63-184.57,7.56-18.73c20.96-9.98,43.13-17.76,65.96-23.13l.45-.1c7.42-1.73,14.94-3.21,22.44-4.43l-14.33,35.48-52.86,130.73h0l-3.15,7.8-53.49,132.3h0l-6.7,16.57-.39,.95-45.54,112.65-33.06,81.77Z"/><path d="M1007.95,275.22l-10.95,27.12-52.5,129.83-.73,1.81h0l-2.78,6.89-53.13,131.4-.73,1.81h0l-5.96,14.73h-.01l-.75,1.87-15.93,39.41-29.61,73.24-30.08,74.38c-17.39-19.78-31.11-41.35-40.89-64.29l21.89-54.14,.75-1.85,8.24-20.38,54.78-135.5,39.59-97.91,35.04-86.66,6.83-16.91c19.92-9.34,40.95-16.66,62.56-21.8l1.07-.25c4.4-1.03,8.84-1.97,13.29-2.81m15.94-12.72c-10.62,1.43-21.13,3.37-31.5,5.79h-.01c-23.95,5.6-47.15,13.78-69.17,24.43l-8.29,20.52-35.04,86.66-39.59,97.91-54.78,135.5-8.24,20.38-.75,1.86-23.42,57.93c11.88,29.33,29.53,55.7,51.36,78.69h.01c1.22,1.29,2.45,2.56,3.71,3.83,.01,.02,.03,.04,.06,.06,.01-.08,.01-.16,.02-.24h0l.73-1.81,35.15-86.93,29.61-73.24,15.93-39.41h.01l7.44-18.41h0l53.13-131.41,3.51-8.69h0l52.5-129.84,14.16-35.05h.01l3.45-8.53h0Z"/></g><g><path class="cls-64" d="M961.56,878.17c-16.81-4.7-33.3-10.59-49.08-17.52-5.91-2.59-11.85-5.39-17.65-8.33-.13-.07-.26-.13-.4-.2l68.09-168.42,86.28-213.38,79.75-197.27c23.07,5.48,45.84,13.66,67.82,24.36l-37.53,92.83-.39,.95-70.15,173.52-15.38,38.02-65.09,161-1.27,3.13-16.04,39.69-28.96,71.62Z"/><path d="M1131.57,278.94c19.82,5,39.4,12.03,58.41,20.96l-35.39,87.53h0l-.76,1.9-70.15,173.52-15.38,38.02-63.82,157.88h-.01l-2.53,6.25-7.54,18.66-8.5,21.03-24.67,61.01-2.61,6.44c-15.11-4.42-29.91-9.81-44.13-16.06-4.57-2-9.16-4.14-13.68-6.36l14.07-34.8,52.29-129.33,86.28-213.38,5.71-14.13,72.42-179.13m-6.05-11.72l-75.64,187.1-5.71,14.13-86.28,213.38-52.29,129.33-14.29,35.34-3.22,7.98c1.49,.78,2.98,1.55,4.48,2.3,5.88,2.98,11.85,5.8,17.9,8.45,17.43,7.66,35.56,14,54.06,18.94l5.96-14.73,24.67-61.01,8.5-21.03,7.54-18.66h.01l66.35-164.13,15.38-38.02,70.15-173.52h.01l39.65-98.08c-24.79-12.48-50.82-21.87-77.23-27.77h0Z"/></g><g><path class="cls-63" d="M1172.99,638.04l15.64-38.67,96.88-239.63c17.31,16.7,32.69,35.07,45.8,54.68,2.1,3.16,4.11,6.29,5.99,9.32l-97.95,242.25-86.75,214.57c-19.15,4.65-39.45,7.95-60.38,9.81l-.24,.02c-2.82,.25-5.73,.48-8.63,.68-4.3,.29-8.63,.51-12.92,.64l102.57-253.69Z"/><path d="M1287.34,368.57c14.9,15.03,28.26,31.34,39.81,48.62,1.58,2.38,3.11,4.74,4.57,7.05l-84.98,210.17-12.02,29.72-34.76,86h0l-3.49,8.64-47.53,117.54c-18.11,4.27-37.23,7.32-56.94,9.08h-.02l-.45,.04c-2.81,.25-5.68,.48-8.52,.67-1.68,.11-3.36,.22-5.04,.31l54.69-135.27,44.97-111.22,15.64-38.67,94.07-232.68m-3.72-17.49l-99.63,246.42-15.64,38.67-44.97,111.22-55.82,138.07-4.62,11.42c6.94-.06,13.85-.33,20.74-.8,2.94-.2,5.85-.43,8.74-.69h.01c22.64-2,43.91-5.58,63.84-10.57l49.45-122.3c.77,.25,1.54,.52,2.31,.8-.46-1.06-.91-2.12-1.34-3.19l37.29-92.25,12.02-29.72,86.88-214.87c-2.39-3.94-4.87-7.82-7.41-11.64-14.89-22.28-32.4-42.58-51.85-60.57h0Z"/></g><g><path class="cls-59" d="M1383.53,592.18c-.24,22.64-2.82,45.04-7.71,66.87-12.27,54.76-38.66,103.5-76.56,141.56l84.27-208.42Z"/><path d="M1376.8,622.15c-1.27,12.07-3.22,24.02-5.86,35.8-9.91,44.2-29.16,84.4-56.35,118.08l41.71-103.18,20.5-50.71m11.11-54.14l-40.88,101.1-55.97,138.44-4.84,11.97c3.23-2.76,6.39-5.58,9.46-8.48,44.38-41.53,72.39-94.54,85.02-150.9,6.76-30.17,9.11-61.29,7.21-92.13h0Z"/></g><g><path class="cls-78" d="M528.86,523.76c-3.58-8.33-6.62-16.85-9.06-25.45-10.83-38.07-10.05-77.56,2.27-114.2,7.84-23.31,20.31-45.55,37.07-66.1l1.12-1.38c11.56-13.97,25.26-27.31,40.76-39.67,11.91-9.49,24.53-17.78,37.62-24.72l-109.78,271.52Z"/><path d="M628.61,263.71l-48.73,120.53-6.75,16.69-38.52,95.27-5.7,14.09c-1.6-4.42-3.03-8.87-4.3-13.35-10.56-37.09-9.8-75.56,2.2-111.24,7.65-22.74,19.83-44.46,36.2-64.54l.9-1.11c11.38-13.8,24.91-26.98,40.22-39.19,7.87-6.27,16.05-12,24.48-17.16m19.59-21.77c-17.56,8.07-34.45,18.48-50.3,31.11-16.7,13.32-30.85,27.32-42.64,41.79h0c-17.76,21.79-30.17,44.6-37.93,67.68-13.31,39.59-12.93,79.95-2.34,117.16,3.59,12.63,8.36,24.9,14.18,36.66l14.71-36.39,38.52-95.27,6.75-16.69,59.05-146.05h0Z"/></g><g><path class="cls-79" d="M671.02,647.01c-23.84-6.34-45.88-16.33-65.63-29.75l157.46-389.47c20.92,2.4,41.29,8.05,60.62,16.83,2.87,1.29,5.74,2.68,8.58,4.13l-128.56,317.99-32.46,80.28Z"/><path d="M766.05,233.23c19.08,2.56,37.67,7.91,55.38,15.95,1.42,.64,2.84,1.3,4.25,1.98l-10.03,24.8-25.35,62.7-47.05,116.37-44.4,109.82-30.79,76.14c-20.34-5.84-39.28-14.44-56.5-25.64l35.37-87.49,26.45-65.42,23.74-58.73,68.93-170.49m-6.42-10.8l-71.78,177.54-23.74,58.73-26.45,65.42-38.4,94.98c22.83,16.15,48.33,27.34,74.76,33.84l34.1-84.33,44.4-109.82,47.05-116.37,25.35-62.7,13.46-33.29c-4.24-2.29-8.52-4.41-12.84-6.36-21.3-9.67-43.5-15.49-65.91-17.64h0Z"/></g><g><path class="cls-74" d="M844.93,499.68l71.16-175.99c7.27,11.01,13.41,22.65,18.29,34.7,9.74,24.05,14.59,49.8,14.4,76.53l-3.15,7.81-53.49,132.3h0l-6.72,16.64c-4.47,4.73-9.12,9.24-13.85,13.41-8.16,7.2-17.22,13.8-26.92,19.61-6.29,3.77-12.88,7.23-19.6,10.28-12.75,5.82-26.29,10.42-40.36,13.73l60.24-149.01Z"/><path d="M917.05,334.66c4.88,8.25,9.13,16.82,12.69,25.62,9.38,23.16,14.1,47.93,14.04,73.67l-2.79,6.92-53.13,131.4-.73,1.81h0l-6,14.85c-4.17,4.37-8.49,8.54-12.87,12.41-7.93,7-16.74,13.41-26.18,19.07-6.12,3.67-12.55,7.04-19.11,10.02-9.55,4.36-19.56,8.02-29.92,10.95l1.74-4.31,54.78-135.5,39.59-97.91,27.9-68.99m-2.13-21.42l-35.04,86.66-39.59,97.91-54.78,135.5-8.24,20.38-.75,1.86c.52-.1,1.04-.21,1.57-.31,17.06-3.4,33.57-8.67,49.02-15.72,6.93-3.15,13.64-6.67,20.1-10.54,9.87-5.91,19.14-12.63,27.66-20.15,5.12-4.52,10.06-9.33,14.81-14.4h.01l7.44-18.41h0l53.13-131.41,3.51-8.69h0c.3-26.61-4.28-53.53-14.76-79.4-6.02-14.86-13.98-29.38-24.09-43.28h0Z"/></g><g><path class="cls-50" d="M596.88,830.41c-4.87-2.98-9.62-6.16-14.17-9.5-5.72-4.19-11.26-8.71-16.46-13.45-9.7-8.81-18.46-18.51-26.08-28.87l20.99-51.93,42.74-105.69,63.81-157.84c13.27-2.3,26.88-3.47,40.49-3.47,12.6,0,25.14,1,37.37,2.98l-42.08,104.09-34.1,84.33-52.65,130.23-1.27,3.13-18.58,45.98Z"/><path d="M708.21,464.66c10.2,0,20.36,.67,30.34,2l-39.7,98.2-34.1,84.33-51.38,127.11h-.01l-2.53,6.25-16.34,40.43c-3.01-1.96-5.96-4.01-8.83-6.12-5.57-4.08-10.97-8.49-16.05-13.11-8.75-7.94-16.72-16.64-23.75-25.9l19.94-49.32,42.74-105.69,38.4-94.98,24.37-60.27c12.12-1.95,24.51-2.94,36.91-2.94h0m0-10c-14.98,0-29.81,1.38-44.09,4.04l-26.45,65.42-38.4,94.98-42.74,105.69-22.03,54.5c8.2,11.49,17.74,22.2,28.39,31.87,5.35,4.87,10.98,9.47,16.87,13.78,6.25,4.59,12.79,8.84,19.59,12.73l20.76-51.37h0l53.91-133.36,34.1-84.33,44.4-109.82c-14.68-2.79-29.57-4.13-44.32-4.13h0Z"/></g><g><path class="cls-51" d="M701.78,860.03c-.84,0-1.69,0-2.54-.02l143.13-354.01c21.78,18.62,38.37,42.13,49.38,69.98l-6.32,15.62-.39,.95-45.54,112.65-31.8,78.66h0l-24.01,59.4c-26.78,11.13-54.32,16.77-81.9,16.77Z"/><path d="M844.35,514.46c18.14,16.86,32.23,37.5,42.02,61.51l-5.17,12.8h-.01l-.77,1.91-15.93,39.41-29.61,73.24-27.7,68.5h0l-8.26,20.42-19.07,47.18c-23.97,9.71-48.54,14.93-73.16,15.54l31.16-77.07,24.53-60.67,23.42-57.94,.75-1.85,8.24-20.38,49.56-122.6m-4.06-16.65l-54.78,135.5-8.24,20.38-.75,1.86-23.42,57.93-24.53,60.67-34.9,86.31-1.75,4.33c1.39,.07,2.79,.12,4.19,.16,1.89,.05,3.78,.08,5.68,.08,27.68,0,56.64-5.57,85.75-17.97l20.64-51.06s.03,.04,.06,.06c.01-.08,.01-.16,.02-.24h0l.73-1.81,35.15-86.93,29.61-73.24,15.93-39.41h.01l7.44-18.41h0c-12.61-32.85-32.12-58.33-55.66-77.26-.39-.33-.79-.64-1.18-.95h0Z"/></g><g><path class="cls-58" d="M137.76,541.32c-.89-2.06-1.74-4.14-2.54-6.23-6.13-15.87-9.75-32.61-10.74-49.77-.43-7.44-.62-14.9-.57-22.16,.29-40.63,8.08-78.32,23.15-112.01,23.28-52.06,63.78-93.15,114.8-116.8l-124.1,306.96Z"/><path d="M252.29,244.7l-55.99,138.5-32.01,79.17-26.43,65.38c-4.72-13.71-7.54-28.05-8.38-42.71-.42-7.33-.61-14.68-.56-21.83,.29-39.94,7.93-76.95,22.72-110.01,12.44-27.82,29.7-52.34,51.3-72.88,14.81-14.09,31.35-26.01,49.36-35.62m18.78-19.77c-55.24,22.24-101.99,64.75-128.57,124.19-14.75,32.98-23.28,71.18-23.59,114.02-.05,7.36,.14,14.85,.58,22.48,1.05,18.18,4.89,35.31,11.06,51.27,2.22,5.78,4.75,11.4,7.58,16.86l6.39-15.8,29.04-71.83,32.01-79.17,65.5-162.02h0Z"/></g><g><path class="cls-61" d="M282.51,658.2c-1.32-.38-2.67-.79-4.08-1.21-5.45-1.66-10.87-3.51-16.11-5.48-16.17-6.06-31.53-13.6-45.71-22.43l18.19-44.97L384.27,214.4c23.5,3.13,46.75,10.14,69.24,20.85l-29.19,72.2-24.67,61.04-.39,.94-98.6,243.86h0l-5.47,13.52h0l-12.68,31.39Z"/><path d="M387.44,219.91c20.2,3.07,40.2,9.06,59.65,17.88l-27.41,67.79-24.31,60.15h0l-.74,1.83-96.56,238.82-4.06,10.05h0l-3.08,7.61-.73,1.81h0l-10.61,26.26c-5.25-1.61-10.47-3.39-15.51-5.28-14.51-5.43-28.34-12.08-41.24-19.8l11.2-27.69,5.4-13.35,43.83-108.41,11.12-27.5,93.06-230.17m-6.37-10.94l-2.18,5.41-93.78,231.95-11.12,27.5-43.83,108.41-5.4,13.35-14.35,35.48c15.57,10.07,32.48,18.5,50.15,25.12,5.4,2.03,10.88,3.89,16.41,5.58,2.82,.86,5.64,1.68,8.49,2.45h.01l14.72-36.42h0l6.46-15.97c.38-.52,.76-1.03,1.16-1.55-.16-.05-.32-.1-.48-.15l96.56-238.82h0l25.05-61.98,30.94-76.52c-25.11-12.53-51.92-20.73-78.82-23.84h0Z"/></g><g><path class="cls-60" d="M397.56,656.42l142.77-353.11c3.57,4.39,6.97,8.88,10.16,13.43l.67,.97c15.07,21.66,26.08,45.19,32.74,69.95l-101.22,250.35c-10.88,5.95-22.55,11.11-34.72,15.36l-.78,.27c-12.19,4.23-25.16,7.62-38.54,10.1-4.88,.91-9.9,1.71-14.99,2.39l3.92-9.7Z"/><path d="M541.72,313.19c1.45,1.92,2.86,3.85,4.23,5.79l1.1,1.58c14.42,20.72,25.03,43.17,31.57,66.79l-5.49,13.58-38.52,95.27-14.71,36.39-41.19,101.88c-9.95,5.33-20.55,9.99-31.58,13.89h0l-1.59,.55c-11.95,4.14-24.68,7.48-37.83,9.91-2.03,.38-4.08,.74-6.16,1.08l.65-1.6,57.99-143.43,54.6-135.05,26.94-66.63m-2.92-19.45l-33.29,82.33-54.6,135.05-57.99,143.43-1.96,4.86-5.13,12.68c8.15-.86,16.06-2.01,23.71-3.44,13.9-2.57,26.98-6.03,39.27-10.29h.01c13.57-4.68,26.17-10.33,37.81-16.82h.01l42.53-105.2,14.71-36.39,38.52-95.27,6.75-16.69c-6.96-26.71-18.68-51.28-33.89-73.14h0c-5.1-7.36-10.61-14.4-16.46-21.11h0Z"/></g><g><path class="cls-65" d="M285.46,664.22l-34.08,84.3c4.68-31.63,13.45-60.62,25.59-86.75,6.94-14.96,14.99-28.97,24-42.01h0c1.85-2.69,3.74-5.33,5.68-7.93l-6.46,15.96h0l-14.72,36.43h-.01Z"/><path d="M306.65,611.83c-1.94,2.6-3.83,5.24-5.68,7.92h0c-9.01,13.05-17.06,27.06-24,42.02-12.14,26.13-20.91,55.12-25.59,86.75l34.08-84.3h.01l14.72-36.42h0l6.46-15.97h0Z"/></g><g><path class="cls-29" d="M343.34,982.59c-22.08-16.32-40.56-35.14-55.02-56.02l107.27-265.29,1.96-4.87,57.08-141.19c14.87-4.32,30.21-7.44,45.64-9.29,4.88-.59,9.92-1.01,14.96-1.27,3.92-.21,7.92-.31,11.89-.31,3.14,0,6.31,.06,9.5,.19l-53.37,132.01-1.26,3.09-118.65,293.48-20,49.45Z"/><path d="M527.13,509.37c.72,0,1.44,0,2.16,.01l-9.38,23.22-40,98.95h-.01l-2.53,6.25-9.68,23.94-23.23,57.47-85.74,212.07-17.55,43.39c-18.61-14.47-34.43-30.82-47.18-48.74l19.75-48.84,81.37-201.25,5.13-12.69,1.96-4.85,56.17-138.93c13.88-3.9,28.16-6.74,42.52-8.46,4.76-.57,9.68-.99,14.63-1.24,3.83-.2,7.74-.3,11.61-.3m0-10c-4.05,0-8.1,.1-12.14,.31-5.12,.26-10.23,.69-15.3,1.3-16.6,1.99-32.92,5.39-48.78,10.14l-57.99,143.43-1.96,4.86-5.13,12.68-81.37,201.25-21.77,53.84c16.51,24.49,38.07,45.71,62.9,63.2l22.39-55.36,85.74-212.07,23.23-57.47,9.68-23.94h.01l42.53-105.2,14.71-36.39c-5.59-.39-11.18-.58-16.75-.58h0Z"/></g><g><path class="cls-28" d="M511.54,1041.47c-22.04-1.07-44.21-4.56-65.96-10.37-2.22-.59-4.47-1.21-6.76-1.88l100.3-248.07,22.03-54.5,42.74-105.69,36.43-90.11c22.06,10.44,42.81,23.62,61.79,39.25l-32.73,80.95-52.65,130.23-1.27,3.13-20.76,51.37-83.17,205.68Z"/><path d="M642.96,537.69c18.83,9.34,36.64,20.73,53.14,33.97l-31.35,77.53-51.38,127.11h-.01l-2.53,6.25-20.76,51.37-81.83,202.36c-20.52-1.24-41.13-4.6-61.39-10.01-.43-.11-.86-.23-1.3-.35l31.28-77.36,25.57-63.24,11.69-28.91,29.67-73.38,22.03-54.5,42.74-105.69,34.43-85.15m-5.3-13.57l-38.4,94.98-42.74,105.69-22.03,54.5-29.67,73.38-11.69,28.91-25.57,63.24-35.43,87.62c4.03,1.25,8.08,2.42,12.16,3.5,23.11,6.17,46.9,9.8,70.56,10.68l84.49-208.95,20.76-51.37h0l53.91-133.36,34.1-84.33c-21.49-18.13-45.35-33.14-70.46-44.49h0Z"/></g><g><path class="cls-30" d="M698.31,862.33l79.47-196.55c10.3,21.48,17.55,44.06,21.6,67.25,3.48,19.96,4.82,40.31,3.98,60.49l-.05,1.2-65.59,162.23c-27.96,30.34-63.18,52.92-104.84,67.23l65.44-161.85Z"/><path d="M778.04,678.48c7.6,17.87,13.1,36.43,16.41,55.41,3.42,19.6,4.74,39.6,3.91,59.42v.33l-20.09,49.66-32.81,81.15-12.04,29.77c-24.91,26.82-55.67,47.41-91.7,61.4l59.47-147.09,1.75-4.33,34.9-86.31,24.53-60.67,15.66-38.75m-.77-24.79l-.75,1.86-23.42,57.93-24.53,60.67-34.9,86.31-1.75,4.33-67.7,167.45c49.48-15.05,88.58-40.63,117.79-72.57l12.72-31.46,32.81-81.15,20.64-51.06s.03,.04,.06,.06c.01-.08,.01-.16,.02-.24h0c.03-.71,.06-1.39,.09-2.08h0c.86-20.61-.51-41.29-4.05-61.57-4.79-27.46-13.83-53.25-26.21-76.93-.27-.52-.54-1.04-.82-1.55h0Z"/></g><g><path class="cls-32" d="M1246.72,172.9c-.34-3.64-.61-7.3-.83-10.97-.31-5.32-.55-10.58-.7-15.62-1.72-50.6,2.7-99.45,13.12-145.21,10.72-47.08,27.85-91.24,50.93-131.24,28.84-50.02,66.32-92.84,111.57-127.53L1322.45-14.42h0l-75.73,187.32Z"/><path d="M1408.98-241.77l-90.8,224.58-.73,1.81-4.7,11.63-58.08,143.64-4.33,10.71c-.06-1.5-.11-2.99-.16-4.47-1.7-50.16,2.67-98.58,13-143.91,10.61-46.6,27.56-90.28,50.38-129.85,25.29-43.86,57.3-82.12,95.41-114.13m23.06-30.37c-50.66,35.71-94.31,82.57-127.14,139.5-22.78,39.49-40.36,83.82-51.47,132.63-10.27,45.09-15.02,94.01-13.24,146.47,.16,5.22,.4,10.47,.71,15.76,.48,8.3,1.27,16.49,2.37,24.55,.27,1.96,.55,3.92,.86,5.86l4.93-12.19,14.88-36.81L1322.02,0l5.43-13.43h0l104.59-258.7h0Z"/></g><g><path class="cls-31" d="M1508.45,475.33c-5.81-2.12-11.55-4.33-17.13-6.62-16.73-6.8-33.05-14.51-48.59-22.94l77.83-192.5L1622.2,1.87l114.25-282.58-98.27-39.73-261.33,646.38-22.9,56.61c-20.27-18.82-38.06-39.32-52.97-61.07L1430.2,1.87l114.25-282.58-52.63-21.28c45.77-22.82,95.05-37.5,146.65-43.67,13.93-1.67,28.27-2.52,42.62-2.52,49.18,0,99.96,9.96,148.7,28.74l-279.74,691.89-41.59,102.88Z"/><path d="M1681.08-343.17c39.59,0,79.98,6.38,120.06,18.96,7.42,2.33,14.79,4.86,22.1,7.58L1696.75-3.75l-140.77,348.17-10.58,26.16-39.77,98.38c-4.2-1.58-8.36-3.21-12.44-4.88-15.15-6.16-29.96-13.07-44.15-20.59l14.18-35.07,15.17-37.52,46.8-115.75L1626.83,3.75l112.38-277.94,3.75-9.27-9.27-3.75-89-35.98-9.27-3.75-3.75,9.27L1504.75-3.75l-74.91,185.28-57.63,142.54-20.15,49.82c-17.14-16.53-32.38-34.31-45.44-53.03l13.12-32.44,53.05-131.21L1434.83,3.75l112.38-277.94,3.75-9.27-9.27-3.75-37.53-15.18c42.37-19.79,87.65-32.65,134.91-38.3,13.73-1.65,27.87-2.48,42.02-2.48h0m0-10c-14.49,0-28.92,.84-43.21,2.55-55.58,6.65-109.17,23.3-158.05,49.18l58.12,23.5L1425.56,0l-62.04,153.46-53.05,131.21-15.13,37.42c17.04,25.27,37.48,48.35,60.55,69l25.59-63.27,57.63-142.54L1514.02,0l126.92-313.92,89,35.98L1617.56,0l-101.64,251.4-46.8,115.75-15.17,37.52-17.53,43.35c17.05,9.46,34.78,17.91,53,25.32,7.21,2.95,14.5,5.72,21.86,8.32l43.39-107.33,10.58-26.16L1706.02,0l126.92-313.92,87.13,35.22c-72.66-47.51-156.82-74.47-238.99-74.47h0Z"/></g><g><path class="cls-34" d="M1679.78,505.99c-22.27,0-44.94-1.6-67.48-4.76l34.73-85.88,10.33-25.56L1814.2,1.87l109.92-271.87c20.78,14.1,40.48,29.89,58.66,47.01l-217.58,538.17-1.27,3.13-75.84,187.62c-2.76,.05-5.54,.07-8.3,.07Z"/><path d="M1926.42-262.35c17.75,12.39,34.66,26.02,50.44,40.66L1888.75-3.75l-126.92,313.93h-.01l-2.53,6.25-61.38,151.83-13.22,32.71c-1.64,.02-3.28,.03-4.91,.03-19.95,0-40.22-1.3-60.43-3.86l32.31-79.91,10.33-25.56L1818.83,3.74l107.59-266.09m-4.63-15.23L1809.56,0l-156.84,387.92-10.33,25.56-37.11,91.78c24.76,3.79,49.72,5.73,74.5,5.73,3.9,0,7.8-.05,11.69-.14h0l15.7-38.84,61.38-151.83h0L1898.02,0l90.67-224.27c-20.74-19.82-43.2-37.66-66.9-53.3h0Z"/></g><g><path class="cls-33" d="M2059.16-129.1c17.39,28.59,31.24,58.84,41.25,90.08l-200.5,495.89c-28.13,13.82-58.68,24.88-90.98,32.94l250.23-618.91Z"/><path d="M2060-117.86c14.5,25.15,26.26,51.51,35.08,78.65l-141.16,349.15-43.19,106.82-14.75,36.47c-24.54,11.91-50.92,21.72-78.7,29.25l70.64-174.72,41.35-102.27,130.73-323.34m-1.8-22.22l-138.2,341.81-41.35,102.27-78,192.93c37.82-8.67,72.18-21.02,103.17-36.42l16.18-40.01,43.19-106.82,142.52-352.5c-11.41-36.19-27.58-70.1-47.51-101.26h0Z"/></g><g><path class="cls-75" d="M1206.78,746.58c-11.9-32.69-17.18-66.28-15.71-100.03,.66-15.3,2.78-30.65,6.28-45.61,6.88-29.42,19.21-57.8,36.65-84.37,18.69-28.48,43.38-55.04,73.39-78.97,9.84-7.85,20.17-15.15,30.72-21.7,1.05-.65,2.09-1.3,3.15-1.93l-101.91,252.04-32.57,80.57Z"/><path d="M1330.74,426.63l-84.01,207.78-12.02,29.72-27.5,68.04c-8.65-28.04-12.4-56.67-11.14-85.41,.65-14.99,2.72-30.02,6.16-44.69,6.74-28.84,18.84-56.69,35.96-82.77,18.4-28.03,42.73-54.21,72.33-77.8,6.55-5.23,13.32-10.2,20.24-14.88m20.57-24.21c-5.34,2.9-10.62,5.98-15.84,9.23-10.69,6.64-21.11,13.99-31.2,22.04-63.07,50.28-98.21,108.04-111.79,166.11-3.64,15.54-5.74,31.09-6.41,46.53-1.72,39.45,5.82,78.15,20.62,113.8l37.29-92.25,12.02-29.72,86.88-214.87,8.43-20.87h0Z"/></g><g><path class="cls-77" d="M1337.19,898.88c-5.04-2.71-9.99-5.57-14.76-8.54-10.56-6.55-20.68-13.84-30.09-21.68-5.14-4.27-10.21-8.82-15.11-13.56l115.68-286.11h0l79.67-197.06c5.67-.36,11.39-.54,17.04-.54,19.61,0,39.17,2.18,58.23,6.47l-41.21,101.93-11.16,27.59-46.69,115.49-51.77,128.03-49.84,123.28-.44,1.07-9.55,23.63Z"/><path d="M1489.63,376.38c17.26,0,34.49,1.72,51.35,5.12l-38.98,96.41-11.16,27.59-46.69,115.49-51.77,128.03-47.43,117.32-2.05,5.07h-.01l-.79,1.96-7.44,18.41c-3.26-1.84-6.47-3.75-9.61-5.7-10.36-6.43-20.29-13.58-29.54-21.28-4.2-3.49-8.35-7.16-12.39-10.98l12.35-30.56,4.84-11.97,55.97-138.44,40.88-101.1,.73-1.81h0l47.78-118.18,17.53-43.35,12.81-31.69c4.54-.23,9.09-.35,13.6-.35h0m0-10c-6.84,0-13.68,.26-20.51,.77l-15.17,37.52-17.53,43.35-48.51,119.98h0l-40.88,101.11-55.97,138.44-4.84,11.97-14.88,36.8c5.74,5.7,11.68,11.1,17.8,16.18,9.78,8.14,20.03,15.49,30.65,22.08,6.52,4.06,13.19,7.82,19.97,11.29l11.62-28.75h.01l2.84-7.03,47.43-117.32,51.77-128.03,46.69-115.49,11.16-27.59,43.39-107.33c-21.43-5.33-43.23-7.95-65.04-7.95h0Z"/></g><g><path class="cls-12" d="M1478.34,933.65c-9.58,0-19.27-.45-28.79-1.34-3.62-.33-7.32-.74-11.05-1.23l69.77-172.56,39.19-96.95,97.23-240.46c10.04,7.06,19.8,14.86,29.06,23.25,10,9.05,19.29,18.64,27.67,28.54l-13.34,33.01-1.24,3.05-117.03,289.46h0l-32.28,79.84,.04,.92-.49,.18-21.02,51.98c-12.46,1.53-25.13,2.3-37.72,2.3Z"/><path d="M1646.94,428.9c8.07,5.94,15.93,12.36,23.46,19.18,9.06,8.2,17.53,16.86,25.25,25.78l-10.91,26.99h0l-2.53,6.25-82.68,204.5-33.99,84.06-.73,1.81h0l-1.86,4.61-29.64,73.3-.82,2.04h0l-.86,2.13-19.08,47.19c-11.32,1.27-22.79,1.92-34.19,1.92-9.43,0-18.96-.44-28.34-1.32-1.46-.13-2.93-.28-4.41-.44l67.32-166.49,39.19-96.95,62.45-154.45,32.39-80.1m-4.55-15.42l-37.11,91.78-62.45,154.45-39.19,96.95-72.17,178.5c5.86,.88,11.74,1.6,17.62,2.14,9.75,.91,19.51,1.36,29.25,1.36,13.86,0,27.66-.91,41.26-2.71l21.29-52.65c.62-.23,1.24-.46,1.86-.69-.01-.12-.01-.23-.02-.35-.06-1.05-.11-2.09-.16-3.13l29.64-73.3,2.59-6.41h0l33.99-84.07,82.68-204.5h0l15.7-38.84c-8.94-10.8-18.95-21.27-30.07-31.34-11.19-10.13-22.79-19.18-34.72-27.19h0Z"/></g><g><path class="cls-17" d="M1761.5,607.08c3.21,23.82,3.2,48.29-.03,72.99-9.06,69.36-42.99,136.04-93.09,182.94-1.92,1.8-3.87,3.58-5.82,5.29-3.24,2.87-6.61,5.67-10.07,8.39l109-269.61Z"/><path d="M1758.47,627.92c.96,16.95,.31,34.17-1.96,51.51-4.48,34.28-14.98,67.67-31.21,99.26-15.67,30.49-36.53,58.39-60.35,80.68l-.1,.09,73.36-181.44,20.26-50.12m5.02-39.09l-34.55,85.46-77.15,190.82-10.48,25.91c8.62-5.81,16.83-12.13,24.56-18.96,2-1.76,3.98-3.56,5.93-5.39,49.62-46.45,85.23-113.97,94.63-185.94,3.96-30.26,3.28-61.3-2.94-91.9h0Z"/></g><g><path class="cls-15" d="M446.04,1203.47c-18.91-31.26-31.64-65.8-37.01-100.53l11.3-27.94h0l16.45-40.69,72.24-178.67c4.25-3.71,8.82-7.52,13.58-11.32,13.55-10.81,27.93-20.5,42.74-28.81,6.06-3.41,12.24-6.61,18.38-9.52,9.07-4.31,18.34-8.16,27.69-11.5l-16.69,41.29-84.49,208.95-13.49,33.38-50.68,125.34Z"/><path d="M602.47,803.23l-12.4,30.69-84.49,208.95-13.49,33.38-46.85,115.87c-15.55-27.92-26.18-58.17-31.05-88.6l8-19.78,5.56-13.75h0l13.67-33.81,35.43-87.62,25.57-63.24,10.79-26.7c3.95-3.42,8.15-6.91,12.51-10.4,13.34-10.64,27.49-20.18,42.08-28.36,5.94-3.34,12.02-6.49,18.07-9.36,5.47-2.6,11.02-5.03,16.62-7.28m17.63-16.93c-13.06,4.12-25.93,9.19-38.54,15.18-6.3,2.99-12.53,6.22-18.68,9.68-14.98,8.4-29.51,18.17-43.41,29.26-5.06,4.04-9.95,8.12-14.65,12.25l-11.69,28.91-25.57,63.24-35.43,87.62-18.51,45.79c-.51,.59-1.02,1.18-1.53,1.77h.82l-9.03,22.33h0c5.98,40.11,21.12,78.33,43.13,112.08l54.35-134.41,13.49-33.38,84.49-208.95,20.76-51.37h0Z"/></g><g><path class="cls-13" d="M693.54,1340.38c-60.94,0-120.37-18.15-167.83-51.18l103.15-255.09,69.45-171.78,33.5-82.85c24.18,2.46,47.94,8.27,70.67,17.28l-192.73,476.69,98.27,39.73,126.91-313.87h0l18.38-45.48,32.44-80.23h0l7.5-18.54,.16,.15c4.65,4.37,9.16,8.89,13.41,13.43,13.25,14.13,24.87,29.35,34.54,45.24,1.22,2.01,2.35,3.92,3.43,5.79l-143.04,353.77,51.17,20.69c-44.63,29.88-100.84,46.25-159.38,46.25Z"/><path d="M735.03,784.86c20.78,2.42,41.22,7.37,60.91,14.74l-17.67,43.71-32.81,81.15-12.72,31.46-48.65,120.33-77.1,190.69-3.75,9.27,9.27,3.75,89,35.98,9.27,3.75,3.75-9.27,91.65-226.67,33.02-81.66,.73-1.81h0l18.01-44.57,32.08-79.33,.65-1.63,4.44-10.96c2.76,2.72,5.46,5.49,8.06,8.28,13.01,13.88,24.42,28.82,33.91,44.42,.75,1.23,1.46,2.42,2.15,3.59l-63.15,156.17-37.52,92.8-39.58,97.89-3.75,9.27,9.27,3.75,37.57,15.19c-42.43,26.05-94.46,40.24-148.54,40.24-29.98,0-59.45-4.35-87.58-12.92-26.74-8.15-51.64-19.95-74.11-35.11l82.33-203.6,19.31-47.76,67.7-167.45,1.75-4.33,32.09-79.35m-6.46-10.71l-34.9,86.31-1.75,4.33-67.7,167.45-19.31,47.76-85.32,211c51.36,36.89,113.21,54.38,173.95,54.38s122.57-18.15,169.81-52.42l-55.09-22.27,39.58-97.89,37.52-92.8,64.97-160.68h0c-1.51-2.7-3.08-5.37-4.7-8.03-9.69-15.92-21.36-31.34-35.16-46.06-4.32-4.62-8.87-9.18-13.63-13.65-1.49-1.41-3-2.8-4.53-4.19-.33-.3-.66-.6-1-.89l-3.22,7.98-7.34,18.14h0l-32.08,79.34-18.74,46.37h0l-33.02,81.67-91.65,226.67-89-35.98,77.1-190.69,48.65-120.33,12.72-31.46,32.81-81.15,20.64-51.06s.03,.04,.06,.06c.01-.08,.01-.16,.02-.24h0l.73-1.81c-.21-.1-.43-.19-.64-.27h0c-1.3-.54-2.58-1.07-3.88-1.57h-.01c-24.7-9.81-50.2-15.77-75.89-18.02h0Z"/></g><g><path class="cls-14" d="M-138.59,275.07c-14.01-28.26-23.73-57.84-28.93-88.08-6.06-35.26-5.81-70.65,.75-105.18,6.98-36.77,21.09-72.25,41.94-105.47,22.41-35.72,52.7-68.91,90.02-98.67,23.71-18.9,49.18-34.66,75.88-46.95L-138.59,275.07Z"/><path d="M31.58-159.15L-138.96,262.64c-11.21-24.71-19.14-50.36-23.63-76.5-5.96-34.67-5.71-69.46,.74-103.4,6.87-36.15,20.75-71.06,41.26-103.75,22.11-35.24,52.02-68.01,88.9-97.42,19.94-15.9,41.14-29.54,63.27-40.73m18.73-19.65c-30.9,12.94-60.61,30.53-88.24,52.56C-194.76-1.2-204.4,163.28-138.04,287.05L50.31-178.8h0Z"/></g><g><path class="cls-18" d="M-4.29,417.77c-21.78-12.18-41.97-26.77-60.1-43.46l15.3-37.83,1.27-3.1L56.68,74.9l.11-.33c1.47-4.78,3.32-9.36,5.5-13.61l.1-.2L86.2,1.87l81.62-201.87c3.9-.15,7.83-.22,11.71-.22,21.32,0,42.62,2.19,63.41,6.51L157.08,18.65,92.18,179.15-4.29,417.77Z"/><path d="M179.53-195.22c18.97,0,37.92,1.76,56.51,5.24L160.75-3.75l-8.3,20.53L87.55,177.28,29.36,321.21-6.78,410.59c-18.56-10.82-35.88-23.43-51.67-37.64l12.72-31.46h.01l2.53-6.25L9.27,205.48,61.27,76.87l.11-.27,.09-.25,.05-.16,.05-.16c1.39-4.5,3.12-8.81,5.17-12.8l.21-.4,.17-.42L90.83,3.74l80.4-198.85c2.77-.07,5.55-.11,8.3-.11h0m0-10c-5.05,0-10.1,.12-15.14,.36L81.56,0l-23.72,58.68c-2.38,4.64-4.31,9.48-5.83,14.42v.03L0,201.74l-52.46,129.76h-.01l-17.84,44.13c20.95,19.71,44.05,36.08,68.55,49.23,.58,.31,1.17,.63,1.76,.94v-5.29l38.63-95.55,58.19-143.93L161.72,20.53,170.02,0l79.78-197.33c-23.2-5.29-46.73-7.89-70.27-7.89h0Z"/></g><g><path class="cls-16" d="M166.34,461.18c-15.68,0-31.42-1.01-46.79-3.01-8.09-1.04-16.22-2.37-24.24-3.97L278.2,1.87l63.41-156.8c19.12,11.47,37.44,25.11,54.53,40.58,1.63,1.48,3.27,2.99,4.9,4.52L266.43,223.05l-96.27,238.11c-1.28,.01-2.56,.02-3.83,.02Z"/><path d="M344.02-147.59c17.04,10.65,33.4,23.04,48.75,36.94,.78,.7,1.55,1.41,2.33,2.13L352.75-3.75l-90.95,224.93-65.5,162.02-29.51,72.99c-.15,0-.29,0-.44,0-15.46,0-30.99-1-46.17-2.97-5.98-.77-11.99-1.7-17.95-2.78l40.88-101.11L282.83,3.74l61.19-151.33m-4.88-14.6L273.56,0,133.84,345.58l-45.41,112.31c10.1,2.19,20.27,3.94,30.48,5.25,15.78,2.05,31.65,3.05,47.44,3.05,2.4,0,4.81-.02,7.21-.07l32.01-79.17,65.5-162.02L362.02,0l44.93-111.12c-2.44-2.33-4.92-4.64-7.46-6.94-19.18-17.36-39.4-32.04-60.35-44.12h0Z"/></g><g><path class="cls-19" d="M383.53,216.25l2.18-5.42L474.56-8.91c1.65,3.59,3.22,7.2,4.7,10.81,14.64,35.55,22.34,73.58,22.89,113.05l-77.83,192.51-24.68,61.05c-5.43,5.52-11.01,10.81-16.65,15.8-25.4,22.42-55.3,40.36-89.01,53.43l89.55-221.48Z"/><path d="M474.72,4.02c14.21,34.59,21.75,71.59,22.41,109.99l-46.51,115.05-30.94,76.52-24.3,60.12c-5.1,5.16-10.38,10.15-15.69,14.84-22.19,19.59-47.89,35.7-76.63,48.07l85.11-210.5,2.18-5.4L474.72,4.02m-.56-25.28L465.56,0l-84.49,208.97-2.18,5.41-93.78,231.95c37.65-13.17,72.25-32.74,101.19-58.28,6.03-5.33,11.89-10.91,17.59-16.74h0l25.05-61.98,30.94-76.52,47.27-116.92c-.43-38.91-7.74-78.15-23.28-115.89-2.93-7.14-6.17-14.23-9.72-21.26h0Z"/></g><g><path class="cls-36" d="M844.49,692.87c-5.77-17.75-9.94-35.88-12.43-54.03-.55-3.99-.99-7.71-1.34-11.39-4.27-43.34,.93-86.07,15.45-127.02,10.9-30.73,27.09-60.31,48.13-87.93,13.86-18.19,30.03-35.78,48.08-52.29,7.63-6.98,15.69-13.86,23.97-20.46,9.54-7.61,19.43-14.75,29.53-21.32l-47.11,116.51h0l-3.15,7.8-53.49,132.3h0l-6.7,16.57-.39,.95-40.55,100.32Z"/><path d="M985.05,331.89l-40.55,100.27-.73,1.81h0l-2.78,6.89-53.13,131.4-.72,1.8-5.95,14.71h-.01l-.77,1.91-15.93,39.41-19.29,47.72c-3.62-13.11-6.35-26.37-8.17-39.66-.54-3.91-.97-7.57-1.31-11.21-4.2-42.59,.91-84.59,15.19-124.85,10.72-30.24,26.66-59.36,47.39-86.57,13.67-17.95,29.65-35.32,47.48-51.63,7.55-6.91,15.52-13.71,23.71-20.24,5.1-4.07,10.3-7.99,15.57-11.77m21.22-25.81c-14.8,8.78-29.17,18.71-43.03,29.76-8.51,6.78-16.58,13.68-24.23,20.68-18.69,17.1-34.86,34.81-48.68,52.95-22.03,28.92-38.1,58.94-48.86,89.29-15.29,43.1-19.89,86.87-15.72,129.17,.37,3.88,.83,7.74,1.36,11.59,3.17,23.15,8.95,45.79,17.03,67.56l29.61-73.24,15.93-39.41h.01l7.44-18.41h0l53.13-131.41,3.51-8.69h0l52.5-129.84h0Z"/></g><g><path class="cls-35" d="M968.2,861.77c-15.26-10.79-29.57-22.95-42.61-36.22-.66-.67-1.31-1.34-1.95-2.01-4.21-4.34-8.32-8.82-12.25-13.34l137.43-339.88,82.73-204.64c16.29-2.53,32.8-3.82,49.11-3.82,9.84,0,19.75,.47,29.54,1.39l-51.34,126.98-.4,.96-70.15,173.52-15.38,38.02-65.09,161-1.27,3.13-16.04,39.69-22.33,55.22Z"/><path d="M1180.65,266.86c7.44,0,14.92,.27,22.35,.81l-9.53,23.57-38.89,96.19h0l-.76,1.9-70.15,173.52-15.38,38.02-63.82,157.88h-.01l-2.53,6.25-7.54,18.66-8.5,21.03-19.94,49.3c-13.1-9.67-25.44-20.38-36.81-31.94-.64-.65-1.27-1.3-1.9-1.95l-.02-.02-.02-.02c-3.42-3.53-6.78-7.15-10.03-10.82l49.99-123.64,86.28-213.38,5.71-14.13,75.64-187.1,.31-.77c15.13-2.21,30.42-3.34,45.55-3.34h0m0-10c-17.61,0-35.22,1.45-52.69,4.33l-2.44,6.03-75.64,187.1-5.71,14.13-86.28,213.38-52.29,129.33c4.64,5.43,9.45,10.71,14.42,15.84,.66,.69,1.33,1.38,2,2.06,15.02,15.28,31.28,28.73,48.47,40.38l24.67-61.01,8.5-21.03,7.54-18.66h.01l66.35-164.13,15.38-38.02,70.15-173.52h.01l39.65-98.08,14.56-36.01c-12.19-1.41-24.42-2.12-36.66-2.12h0Z"/></g><g><path class="cls-37" d="M1135.88,921.91c-24.63-2.13-48.84-6.76-72.1-13.77l8.41-20.8,100.79-249.29,15.64-38.67,124.52-307.98c21.74,10.16,42.66,22.94,62.28,38.05l-28.75,71.1-8.43,20.87-98.9,244.59-103.46,255.9Z"/><path d="M1315.79,298.19c18.61,9.08,36.57,20.11,53.57,32.92l-22.74,56.23-4.58,11.33-8.43,20.87-86.88,214.87-12.02,29.72-34.76,86h0l-3.49,8.64-49.45,122.3-6.77,16.75-7.59,18.77c-21.17-2.05-42-5.98-62.15-11.7l1.72-4.26,4.62-11.42,55.82-138.07,44.97-111.22,15.64-38.67,99.63-246.42,11.72-28.99,11.18-27.64m-5.32-13.52l-15.13,37.42-11.72,28.99-99.63,246.42-15.64,38.67-44.97,111.22-55.82,138.07-4.62,11.42-5.83,14.42c26.74,8.52,54.35,13.77,82.03,15.89l10.36-25.62,6.77-16.75,49.45-122.3c.77,.25,1.54,.52,2.31,.8-.46-1.06-.91-2.12-1.34-3.19l37.29-92.25,12.02-29.72,86.88-214.87,8.43-20.87,4.58-11.33,25.59-63.27c-22.6-17.8-46.42-32.15-71.01-43.15h0Z"/></g><g><path class="cls-38" d="M1351.67,670.98l41.24-102h0l62.12-153.64c12.13,18.91,22.1,38.96,29.7,59.72,4.04,11.04,7.46,22.4,10.17,33.79l-46.1,114.02-51.77,128.03-49.67,122.85c-9.47,5.93-19.47,11.42-29.72,16.33-10.8,5.18-22.08,9.82-33.54,13.8-9.82,3.42-19.94,6.42-30.2,8.96l97.77-241.84Z"/><path d="M1455.97,426.35c9.63,16.12,17.7,33.02,24.06,50.42,3.79,10.35,7.02,21,9.62,31.68l-45.49,112.53-51.77,128.03-47.43,117.32-1.63,4.02c-8.9,5.51-18.26,10.61-27.87,15.2-10.62,5.1-21.73,9.66-33.03,13.58-6.6,2.3-13.34,4.41-20.17,6.31l18.35-45.39,14.88-36.8,4.84-11.97,55.97-138.44,40.88-101.1,.73-1.81h0l47.78-118.18,10.28-25.41m-2.02-21.68l-17.53,43.35-48.51,119.98h0l-40.88,101.11-55.97,138.44-4.84,11.97-14.88,36.8-25.69,63.56c13.65-2.98,27.05-6.75,40.08-11.29,11.67-4.05,23.05-8.73,34.06-14.01,10.92-5.22,21.48-11.05,31.59-17.46h.01l2.84-7.03,47.43-117.32,51.77-128.03,46.69-115.49c-2.8-12.06-6.36-24.05-10.7-35.91-8.61-23.54-20.33-46.57-35.47-68.67h0Z"/></g><g><path class="cls-54" d="M829.44,255.21c.19-4.88,.55-9.75,1.07-14.6,1.66-15.18,5-30.13,9.91-44.44,8.8-25.57,22.6-48.72,40.29-67.76l-32.09,79.39-19.18,47.41Z"/><path d="M861.67,162.15l-17.69,43.77-4.19,10.36c1.49-6.26,3.28-12.42,5.35-18.47,4.32-12.56,9.88-24.51,16.53-35.65m32.27-53.14c-1.77,1.46-3.51,2.97-5.21,4.5-24.68,22.17-42.47,50.33-53.04,81.04-5.05,14.71-8.45,30.01-10.15,45.52-1.43,13.14-1.65,26.44-.62,39.65l13.46-33.29,14.87-36.76,36.36-89.94h0l4.33-10.72h0Z"/></g><g><path class="cls-57" d="M947.46,438.18c-19.65-7.83-37.76-18.75-53.89-32.51-2.64-2.25-5.25-4.6-7.8-7.02l33.78-83.54,8.29-20.52,15.07-37.26,75.84-187.59c1.93-.05,3.87-.07,5.79-.07,23.63,0,46.35,3.57,67.62,10.63l-75.1,185.74-1.27,3.13-14.16,35.05-52.86,130.73h0l-1.3,3.24Z"/><path d="M1024.54,74.67c21.21,0,41.67,2.94,60.96,8.76l-70.88,175.32-.92,2.28h-.01l-2.53,6.25-14.16,35.05-52.29,129.3c-17.37-7.46-33.45-17.45-47.91-29.78-1.72-1.46-3.43-2.97-5.11-4.51l32.49-80.36,8.29-20.52,15.07-37.26,74.6-184.53c.8,0,1.6-.01,2.39-.01h0m0-10c-3.07,0-6.14,.06-9.2,.18l-77.06,190.61-15.07,37.26-8.29,20.52-35.04,86.66c3.35,3.3,6.84,6.5,10.45,9.57,17.41,14.85,37.69,26.91,59.93,35.14l3.51-8.69h0l52.5-129.84,14.16-35.05h.01l3.45-8.53,74.88-185.21c-23.87-8.61-49.27-12.62-74.23-12.62h0Z"/></g><g><path class="cls-56" d="M1180.47,144.65c3.59,5.14,6.91,10.51,9.92,16.05,6.96,12.76,12.51,26.84,16.52,41.85,1.02,3.85,1.93,7.79,2.68,11.69,2.68,13.86,3.7,28.32,3.03,43l-53.84,133.16c-15.94,18.29-34.3,32.59-53.14,41.4-15.58,7.29-31.59,12.64-47.72,15.96l122.55-303.12Z"/><path d="M1181.53,155.38c1.56,2.53,3.05,5.11,4.47,7.73,6.76,12.41,12.17,26.12,16.08,40.73,1,3.75,1.87,7.57,2.61,11.36,2.55,13.2,3.55,26.98,2.98,40.98l-14.18,35.07-39.02,96.51c-15.35,17.46-32.94,31.11-50.94,39.53-12.24,5.73-24.75,10.23-37.37,13.46l68.63-169.77,2.44-6.03,1.49-3.69,34.41-85.12,8.39-20.76m-2.35-20.88l-15.32,37.89-34.41,85.12-1.49,3.68-2.44,6.03-75.64,187.1c19.02-3.03,38.43-8.88,57.88-17.98,20.17-9.43,39.07-24.46,55.33-43.27h.01l39.65-98.08,14.56-36.01c.08,0,.16,0,.23,.03,.02-.22,.03-.45,.03-.68,.75-15.01-.19-30.13-3.07-45.03-.78-4.03-1.7-8.04-2.76-12.03-4.22-15.81-9.96-30.11-16.96-42.95-4.66-8.58-9.89-16.51-15.6-23.82h0Z"/></g><g><path class="cls-52" d="M1818.83,1132.27c-19.2-11.53-33.68-29.24-40.12-49.29-.49-1.54-.91-2.95-1.27-4.29-2.41-8.86-3.59-18.07-3.54-27.39l14.56-35.99,13.29-32.87c6.62-6.62,14.21-12.13,22.58-16.37,6.14-3.11,12.94-5.6,20.22-7.41,8.6-2.12,17.57-3.2,26.65-3.21h.13c6.21,0,12.37,.51,18.38,1.52l-15.88,39.3-6.8,16.8-48.19,119.21Z"/><path d="M1871.33,960.45c3.81,0,7.59,.2,11.33,.6l-13.47,33.34-6.8,16.8-26.3,65.06-19.63,48.55c-15.7-10.85-27.48-26.19-32.99-43.33-.47-1.48-.87-2.81-1.21-4.1-2.2-8.11-3.33-16.55-3.36-25.09l14.19-35.1,6.06-15,6.84-16.92c6.08-5.94,12.99-10.89,20.59-14.74,5.8-2.94,12.25-5.3,19.16-7.01,8.21-2.03,16.78-3.06,25.46-3.07h.13m0-10h-.14c-9.55,0-18.98,1.17-27.85,3.36-7.59,1.88-14.77,4.5-21.28,7.8-9.41,4.77-17.61,10.9-24.58,18.03l-7.6,18.8-6.06,15-14.91,36.87c-.15,9.98,1.07,20.01,3.7,29.69,.41,1.52,.86,3.02,1.34,4.52,7.37,22.93,24.69,42.97,47.39,54.9l24.02-59.42,26.3-65.06,6.8-16.8,18.15-44.91c-8.33-1.88-16.84-2.78-25.28-2.78h0Z"/></g><g><path class="cls-4" d="M1306.33,975.22c-3.17-6.25-5.83-12.69-7.94-19.25-4.89-15.21-7.46-31.17-7.65-47.44-.16-11.75,.96-23.53,3.31-35.03,3.59-17.67,9.96-34.27,18.92-49.35,14.07-23.69,34.25-42.67,58.36-54.89,6.81-3.46,14.14-6.43,21.87-8.89l-46.06,113.92-.39,.95-40.42,99.98Z"/><path d="M1384.38,768.83l-39.42,97.51-2.06,5.1h-.01l-.78,1.93-11.62,28.75-24.43,60.42c-1.07-2.67-2.04-5.38-2.92-8.1-4.74-14.74-7.23-30.2-7.41-45.98-.15-11.38,.93-22.8,3.21-33.97,3.48-17.11,9.64-33.19,18.32-47.79,13.58-22.87,33.05-41.19,56.33-52.99,3.46-1.76,7.07-3.39,10.79-4.88m17.28-16.06c-11.61,2.92-22.61,6.96-32.6,12.03-26.18,13.27-46.43,33.27-60.4,56.8-9.34,15.71-15.88,32.99-19.52,50.9-2.42,11.84-3.57,23.96-3.41,36.09,.19,16.53,2.8,33.07,7.89,48.91,3.28,10.19,7.8,20.02,13.42,29.29l32.72-80.92,11.62-28.75h.01l2.84-7.03,47.43-117.32h0Z"/></g><g><path class="cls-10" d="M1441.39,1056.77c-9.75,0-19.54-.94-29.08-2.81-7.13-1.38-14.23-3.3-21.17-5.72l33.14-81.97,11.83-29.25,70.37-174.04c17.82,6.73,33.5,16.42,46.65,28.83,4.83,4.57,9.32,9.53,13.39,14.77l-28.99,71.68,.04,.93-.49,.18-70.92,175.4c-8.23,1.33-16.55,2-24.77,2Z"/><path d="M1509.25,769.47c15.33,6.38,28.9,15.09,40.43,25.98,3.95,3.74,7.67,7.75,11.1,11.97l-27.48,67.96-.82,2.04h0l-.86,2.13-21.29,52.65-47.74,118.06c-7.06,1.01-14.17,1.51-21.2,1.51-9.43,0-18.9-.91-28.14-2.72-5.19-1.01-10.37-2.31-15.47-3.89l19.22-47.56,11.91-29.46,11.83-29.25,68.5-169.43m-5.61-12.81l-72.17,178.5-11.83,29.25-11.91,29.46-23.16,57.29c8.58,3.32,17.53,5.93,26.78,7.72,9.72,1.9,19.77,2.9,30.04,2.9,9.29,0,18.77-.82,28.36-2.54l49.85-123.29,21.29-52.65c.62-.23,1.24-.46,1.86-.69-.01-.12-.01-.23-.02-.35-.06-1.05-.11-2.09-.16-3.13l29.64-73.3c-4.79-6.45-10.04-12.32-15.66-17.64-15.38-14.52-33.55-24.88-52.91-31.53h0Z"/></g><g><path class="cls-5" d="M995.52,794.2c-1.47-5.01-2.7-10.14-3.67-15.31-3.54-18.85-3.68-38.07-.41-57.12,8.14-47.63,36.14-86.79,76.81-107.46l-60.41,149.43-1.27,3.13-11.05,27.34Z"/><path d="M1058.17,625.88l-53.71,132.86h-.01l-2.53,6.25-5.19,12.85c-3.41-18.22-3.53-36.8-.37-55.23,7.02-41.06,29.26-75.59,61.81-96.73m19.39-21.27c-3.94,1.58-7.75,3.31-11.43,5.17-44.63,22.62-71.75,65.12-79.62,111.15-3.33,19.41-3.23,39.45,.42,58.89,1.24,6.62,2.89,13.17,4.96,19.61,.98,3.04,2.07,6.04,3.27,9l8.5-21.03,7.54-18.66h.01l66.35-164.13h0Z"/></g><g><path class="cls-9" d="M1137.31,897.05c-14.73,0-29.34-2.17-43.43-6.44l-.72-.22c-6.54-2.01-12.98-4.49-19.22-7.39l99.04-244.95,14-34.62c1.38,.37,2.72,.76,4.05,1.16,23.32,6.99,43.19,18.66,59.11,34.71l-10.8,26.7-93.31,230.79c-2.91,.17-5.83,.25-8.73,.25Z"/><path d="M1189.93,609.48c21.23,6.42,39.48,16.85,54.32,31.05l-9.55,23.61-34.76,86h0l-3.49,8.64-49.45,122.3-4.4,10.88c-1.77,.06-3.54,.1-5.29,.1-14.24,0-28.36-2.09-41.97-6.23l-.79-.24c-4.78-1.47-9.51-3.21-14.15-5.18l52.26-129.26,44.97-111.22,12.31-30.44m-5.94-11.98l-15.64,38.67-44.97,111.22-55.82,138.07c7.91,3.98,16.22,7.32,24.86,9.93h.01c14.19,4.31,29.27,6.66,44.88,6.66,4.03,0,8.1-.16,12.19-.48l6.77-16.75,49.45-122.3c.77,.25,1.54,.52,2.31,.8-.46-1.06-.91-2.12-1.34-3.19l37.29-92.25,12.02-29.72c-17.72-18.76-39.87-31.27-63.52-38.36-2.81-.85-5.64-1.61-8.49-2.3h0Z"/></g><g><path class="cls-11" d="M-53.2,1013.63c-5.46-11.03-10.07-22.34-13.74-33.76-9.18-28.52-13.98-58.46-14.28-89.02L5,677.59v-.12c3.5-3.39,7.05-6.63,10.57-9.67,16.26-14.1,34.29-26.2,53.58-35.97,12.01-6.09,24.9-11.39,38.41-15.82L-5,894.41v2.31l-.92-.04-47.28,116.95Z"/><path d="M98.79,624.35l-50.66,125.31L-9.22,891.52h0l-2.65,6.57-41.65,103.02c-3.3-7.51-6.19-15.12-8.65-22.78-8.92-27.72-13.64-56.83-14.03-86.55l.57-1.41L9.27,680.36l.05-.12c3.15-3.02,6.34-5.93,9.53-8.69,15.94-13.82,33.63-25.7,52.56-35.28,8.69-4.4,17.85-8.39,27.38-11.92m17.35-16.23c-17.42,5.04-33.97,11.49-49.25,19.23-20.12,10.19-38.33,22.55-54.59,36.65-3.94,3.4-7.76,6.92-11.46,10.53-.28,.27-.56,.54-.84,.82v1.26l-84.91,210.01c-.44-.15-.88-.3-1.32-.45,0,1.24,0,2.48,0,3.72,.21,30.93,5,61.88,14.53,91.5,4.89,15.22,11.31,29.99,19.08,44.14L-2.61,901.84c.87,.04,1.74,.07,2.61,.09v-6.54l57.4-141.97,58.74-145.29h0Z"/></g><g><path class="cls-8" d="M86.01,1144.19c-22.35-9.74-43.37-22.28-62.58-37.34l10.11-24.98,78.87-195.09,102.63-253.84,13.02-32.18c4.27,.24,8.56,.57,12.8,.97,20.36,1.96,40.36,5.82,59.42,11.46,.13,.04,.25,.07,.38,.11l-5.47,13.51h0l-13.13,32.5-1.23,3.03-51.92,128.42-.43,1.06-142.46,352.37Z"/><path d="M231.35,605.97c3.02,.2,6.04,.45,9.03,.74,18.31,1.76,36.3,5.08,53.56,9.86l-3.02,7.46-.73,1.81h0l-11.46,28.37h0l-2.53,6.25-34.08,84.3-17.51,43.31h-.01l-.75,1.87-115.75,286.3-24.77,61.27c-19.08-8.73-37.13-19.56-53.83-32.29l8.69-21.48,78.87-195.09,41.74-103.23,60.89-150.61,11.67-28.84m-6.59-10.39l-14.35,35.48-60.89,150.61-41.74,103.23-78.87,195.09-11.51,28.45c21.33,17.17,45.34,31.55,71.34,42.34l28.62-70.79,115.75-286.3h.01l18.26-45.18,34.08-84.3h.01l14.72-36.42h0l6.46-15.97c.38-.52,.76-1.03,1.16-1.55-.16-.05-.32-.1-.48-.15-1.87-.6-3.75-1.17-5.63-1.73-19.74-5.84-40.02-9.68-60.36-11.64-5.53-.53-11.06-.92-16.58-1.17h0Z"/></g><g><path class="cls-7" d="M199.72,1167.96c-2.96,0-5.95-.05-8.93-.14l34.76-85.95,61.78-152.82,107.72-266.41c3.79,3.11,7.52,6.36,11.09,9.67,16.16,14.95,30.28,32.12,42,51.1l-84.8,209.74-22.39,55.36-68.85,170.29c-23.92,6.09-48.26,9.17-72.39,9.17Z"/><path d="M397.09,670.91c1.92,1.67,3.8,3.36,5.65,5.08,15.21,14.07,28.58,30.17,39.8,47.91l-83.84,207.37-22.39,55.36-36.23,89.62-31.66,78.31c-22.73,5.58-45.82,8.41-68.71,8.41-.52,0-1.05,0-1.57,0l32.03-79.21,61.78-152.82,21.77-53.84,81.37-201.25,1.99-4.93m-4.17-16.36l-1.96,4.86-5.13,12.68-81.37,201.25-21.77,53.84-61.78,152.82-37.41,92.51c5.37,.3,10.78,.45,16.22,.45,24.77,0,50.26-3.17,76.08-9.96l33.56-83,36.23-89.62,22.39-55.36,85.74-212.07c-12.59-20.83-27.51-38.88-44.18-54.3-3.92-3.64-7.94-7.13-12.05-10.47-1.51-1.23-3.03-2.45-4.57-3.63h0Z"/></g><g><path class="cls-6" d="M484,917.5c-1.19,6.79-2.61,13.58-4.26,20.34-8.16,33.55-21.52,65.67-39.72,95.49-2.5,4.1-5.09,8.14-7.75,12.1l51.73-127.93Z"/><path d="M493.13,881.58l-25.57,63.24-35.43,87.62-18.51,45.79c11.15-12.98,21.44-27.17,30.67-42.29,17.97-29.44,31.92-62.41,40.31-96.91,4.58-18.81,7.51-38.07,8.53-57.45h0Z"/></g><g><path class="cls-69" d="M752.41,920.62c-20.9-14.65-38.78-34.63-51.93-58.11-.44-.78-.87-1.56-1.29-2.34l90.02-222.65c11.71-2.91,24.01-4.46,36.61-4.59,.71,0,1.42-.01,2.12-.01,6.19,0,12.5,.35,18.74,1.03,6.8,.74,13.59,1.87,20.28,3.38l-59.24,146.52h0l-55.3,136.77Z"/><path d="M827.93,637.92c6.01,0,12.13,.34,18.2,1.01,4.65,.5,9.31,1.2,13.93,2.08l-25.2,62.33-27.67,68.42h0l-8.29,20.5-20.64,51.06-28.09,69.48c-18.1-13.81-33.64-31.84-45.35-52.76-.04-.07-.08-.13-.11-.2l33.13-81.94,24.53-60.67,23.42-57.94,.75-1.85,6.33-15.65c10.59-2.44,21.67-3.73,33.01-3.86,.68,0,1.37-.01,2.06-.01m0-10c-.73,0-1.46,0-2.18,.01-13.78,.15-27.33,1.94-40.24,5.38l-8.24,20.38-.75,1.86-23.42,57.93-24.53,60.67-34.9,86.31c.79,1.51,1.6,3,2.44,4.49,14.2,25.35,34.29,47.56,58.62,63.26l32.81-81.15,20.64-51.06s.03,.04,.06,.06c.01-.08,.01-.16,.02-.24h0l.73-1.81,35.15-86.93,29.61-73.24c-8.77-2.28-17.66-3.9-26.54-4.86-6.45-.71-12.88-1.06-19.28-1.06h0Z"/></g><g><path class="cls-73" d="M885.75,873.6h0l6.97-17.25,3.22-7.98,63.65-157.42c8.81,9.84,16.36,20.68,22.49,32.31,.68,1.25,1.33,2.52,2.01,3.92,7.12,14.42,11.69,29.81,13.59,45.76,.53,4.51,.85,9.06,.96,13.54l-38.75,95.82-5.82,14.42c-3.69,3.75-7.6,7.36-11.65,10.74-9.1,7.62-19.15,14.32-29.85,19.92-18.61,9.74-37.44,16-56.11,18.67l29.29-72.43Z"/><path d="M961.14,700.48c6.31,7.83,11.85,16.24,16.53,25.11l.03,.05,.03,.05c.62,1.15,1.24,2.36,1.91,3.72,6.86,13.89,11.27,28.73,13.09,44.11,.47,4.02,.77,8.06,.9,12.05l-7.73,19.11-24.67,61.01-5.96,14.74-5.44,13.48c-3.37,3.39-6.93,6.64-10.6,9.71-8.83,7.38-18.57,13.88-28.96,19.32-15.2,7.95-30.54,13.52-45.79,16.63l25.55-63.19,.65-1.63,6.69-16.53,3.22-7.97,14.29-35.34,46.26-114.43m-3.25-18.65l-52.29,129.33-14.29,35.34-3.22,7.98-7.34,18.14h0l-32.08,79.34c21.16-1.83,43.4-8.22,66.22-20.16,11.24-5.88,21.5-12.78,30.74-20.51,4.48-3.74,8.72-7.68,12.71-11.79l6.19-15.33,5.96-14.73,24.67-61.01,8.5-21.03c-.08-5.02-.42-10.04-1.01-15.05-1.92-16.17-6.55-32.17-14.06-47.37-.67-1.37-1.36-2.72-2.08-4.05-7.77-14.74-17.49-27.79-28.62-39.1h0Z"/></g><g><path class="cls-68" d="M1091.66,556.43c-10.81-15.11-20.25-31.28-28.14-48.18-5.77-12.34-10.5-25.61-14.09-39.44l118.4-292.88c9.09-4.92,18.73-9.26,28.68-12.91,14.13-5.19,29.09-9.1,44.49-11.61,4.96-.82,10.06-1.51,15.24-2.05l-97.39,240.89-.39,.95-66.8,165.23Z"/><path d="M1248.43,155.33l-8.64,21.37-4.93,12.19-26.56,65.69-.73,1.8h0l-14.09,34.86-38.89,96.18h-.01l-.76,1.9-63.33,156.64c-8.47-12.65-15.99-25.99-22.45-39.83-5.41-11.59-9.9-24.02-13.36-36.99l4.47-11.07,75.64-187.1,2.44-6.03,1.49-3.69,33.06-81.78c8.42-4.46,17.3-8.41,26.45-11.77,13.83-5.08,28.49-8.91,43.6-11.37,2.17-.36,4.37-.69,6.6-1m15.51-11.69c-8,.6-15.92,1.53-23.75,2.83-15.63,2.55-30.85,6.5-45.41,11.85-10.7,3.93-21.04,8.62-30.92,14.07l-34.41,85.12-1.49,3.68-2.44,6.03-75.64,187.1-5.71,14.13c3.69,14.63,8.64,28.7,14.81,41.91,9.26,19.83,20.67,38.76,33.96,56.23l70.15-173.52h.01l39.65-98.08,14.56-36.01c.08,0,.16,.01,.23,.03,.02-.22,.03-.45,.03-.68l26.56-65.69,4.93-12.19,14.88-36.81h0Z"/></g><g><path class="cls-67" d="M1240.96,662.01c-18.04-4.54-35.71-11.3-52.58-20.11-4.6-2.4-9.23-5.01-13.81-7.77l14.06-34.75,177.86-439.9c23.27,6.66,45.56,16.05,66.37,27.95l-56,138.52-30.17,74.6-8.43,20.87-97.28,240.59Z"/><path d="M1369.42,165.55c19.93,6.03,39.08,14.1,57.15,24.08l-54.36,134.44-25.59,63.27-4.58,11.33-8.43,20.87-86.88,214.87-8.75,21.64c-16.2-4.41-32.07-10.65-47.28-18.59-3.28-1.71-6.59-3.53-9.88-5.45l12.44-30.77,99.63-246.42,11.72-28.99,15.13-37.42,49.68-122.87m-5.9-12.09l-53.05,131.21-15.13,37.42-11.72,28.99-99.63,246.42-15.64,38.67c5.77,3.61,11.68,7.01,17.72,10.16,18.17,9.49,37.54,16.82,57.91,21.55l12.02-29.72,86.88-214.87,8.43-20.87,4.58-11.33,25.59-63.27,57.63-142.54c-23.82-14.09-49.38-24.73-75.59-31.82h0Z"/></g><g><path class="cls-66" d="M1392.91,568.98h0l124.4-307.67c10.04,13.32,18.85,27.62,26.25,42.6,6.95,14.07,12.47,28.84,16.44,43.91l-53.35,131.96-11.16,27.59-46.11,114.05c-7.75,5.1-15.9,9.9-24.26,14.27-15.21,7.96-30.69,14.59-46,19.7-7.96,2.66-15.96,4.95-23.91,6.82l37.7-93.24Z"/><path d="M1518.56,271.54c7.7,10.97,14.57,22.55,20.51,34.59,6.55,13.27,11.82,27.18,15.66,41.37l-9.33,23.08-43.39,107.33-11.16,27.59-45.52,112.6c-7.22,4.69-14.79,9.12-22.52,13.17-14.98,7.84-30.21,14.36-45.28,19.39-4.65,1.56-9.31,2.98-13.97,4.26l33.63-83.16,.73-1.81h0l47.78-118.18,17.53-43.35,15.17-37.52,40.17-99.36m-2.64-20.14l-46.8,115.75-15.17,37.52-17.53,43.35-48.51,119.98h0l-40.88,101.11c11.08-2.19,22.31-5.17,33.67-8.97,15.37-5.13,30.97-11.76,46.74-20.01,9.05-4.74,17.72-9.88,25.99-15.39l46.69-115.49,11.16-27.59,43.39-107.33,10.58-26.16c-4.04-15.82-9.76-31.38-17.21-46.47-9.04-18.3-19.86-35.08-32.12-50.3h0Z"/></g><g><path class="cls-27" d="M94.34,173.83c-14.54-9.05-26.64-22.89-34.4-39.49-8.1-17.35-9.29-39.64-3.19-59.65l.04-.12c1.47-4.78,3.32-9.36,5.5-13.61,6.62-12.97,16.09-23.21,28.14-30.43,11.21-6.72,24.87-10.27,39.5-10.27,8.43,0,16.85,1.16,25.11,3.45l-60.71,150.12Z"/><path d="M129.94,25.26c6.12,0,12.25,.65,18.3,1.93l-56.22,139.04c-11.52-8.45-21.1-20.22-27.55-34-7.59-16.24-8.69-37.18-2.95-56.02v-.02l.05-.14c1.39-4.51,3.12-8.81,5.18-12.81,6.18-12.12,15.02-21.67,26.25-28.41,10.44-6.25,23.21-9.56,36.93-9.56h0m0-10c-15.11,0-29.77,3.61-42.07,10.98-13.48,8.08-23.42,19.51-30.02,32.44-2.38,4.64-4.31,9.48-5.83,14.42v.03c-6.58,21.44-5.21,44.9,3.4,63.33,8.73,18.67,23.21,34.91,41.41,44.57L161.72,20.53c-10.38-3.5-21.19-5.27-31.79-5.27h0Z"/></g><g><path class="cls-22" d="M365.45,927.95c-22.25-12.67-41.3-31.57-55.42-55.03l84.57-209.15c1.22-.24,2.46-.45,3.69-.65,7.8-1.29,15.87-1.94,24-1.94s17.16,.71,25.73,2.11l.41,.07c7.37,1.22,14.71,2.97,21.9,5.2l-104.87,259.39Z"/><path d="M422.28,666.18c8.24,0,16.62,.69,24.92,2.05l.51,.08c5.33,.89,10.65,2.06,15.9,3.5l-19.16,47.39-81.45,201.46c-18.74-11.74-34.94-28.19-47.39-48.21l79.5-196.62,3.09-7.64c.29-.05,.58-.1,.88-.14h.05c7.51-1.25,15.3-1.87,23.16-1.87m0-10c-8.38,0-16.68,.66-24.79,2-2.19,.35-4.37,.76-6.53,1.23l-5.13,12.68-81.37,201.25c15.08,25.88,36.99,47.93,63.52,61.68l85.74-212.07,23.23-57.47c-9.22-3.19-18.65-5.57-28.13-7.12h-.01c-8.84-1.45-17.73-2.18-26.53-2.18h0Z"/></g><g><path class="cls-25" d="M539.13,781.16l18.43-45.6c2.11,3.49,4.07,7.08,5.87,10.73,8.53,17.26,12.95,35.84,13.13,55.24,.09,7.52-.5,15.12-1.74,22.59-3.42,20.87-11.91,41.15-24.56,58.64-13.34,18.46-30.64,33.32-51.41,44.19-5.29,2.77-10.71,5.27-16.12,7.44-2.17,.88-4.37,1.7-6.57,2.48l62.96-155.71Z"/><path d="M558.27,747.15c.23,.45,.45,.9,.68,1.36,8.19,16.58,12.44,34.43,12.62,53.09,.08,7.22-.48,14.52-1.68,21.73-3.29,20.1-11.48,39.64-23.68,56.51-12.89,17.82-29.6,32.18-49.67,42.69-3.74,1.96-7.54,3.78-11.37,5.44l17.24-42.63,11.69-28.91,29.67-73.38,14.51-35.88m-1.75-22.36l-22.03,54.5-29.67,73.38-11.69,28.91-25.57,63.24c5.62-1.56,11.31-3.48,17.04-5.79,5.48-2.2,11.01-4.74,16.57-7.65,43.99-23.02,71.52-63.34,78.58-106.44,1.29-7.76,1.9-15.61,1.81-23.46-.19-19.53-4.61-39.1-13.65-57.4-3.36-6.81-7.18-13.25-11.39-19.29h0Z"/></g><g><path class="cls-20" d="M55.47,744.84c-11.55-11.26-21.24-24.94-28.24-39.93-5.7-12.19-9.14-26.43-9.94-41.17-.32-5.94-.21-11.96,.31-17.89,2.18-25.19,11.79-49,27.08-67.07,7.48-8.84,16.27-16.32,26.14-22.23,16.06-9.62,35.59-14.7,56.49-14.7,1.04,0,2.08,.01,3.12,.04,2.32,.05,4.65,.17,6.96,.35l-25.89,64.01-56.03,138.59Z"/><path d="M127.31,546.85c.93,0,1.87,.01,2.81,.03l-1.26,3.12-21.99,54.38-53.15,131.45c-8.82-9.7-16.3-20.92-21.96-33.04-5.43-11.61-8.71-25.21-9.47-39.32-.31-5.71-.21-11.49,.3-17.2,2.09-24.16,11.29-46.98,25.91-64.26,7.12-8.42,15.5-15.54,24.89-21.17,15.28-9.15,33.93-13.99,53.92-13.99m0-10c-21.21,0-41.79,5.06-59.06,15.41-10.7,6.41-19.81,14.33-27.39,23.29-16.83,19.9-26.08,44.91-28.24,69.86-.55,6.23-.65,12.46-.32,18.6,.83,15.29,4.33,30.04,10.4,43.02,8.22,17.59,20.07,33.64,34.7,46.39l58.74-145.29,21.99-54.38,6.39-15.8c-4.66-.6-9.33-.95-13.97-1.06-1.08-.03-2.16-.04-3.24-.04h0Z"/></g><g><path class="cls-21" d="M215.05,632.94l16.62-41.1c1.94,2.5,3.78,5.06,5.49,7.66,2.77,4.18,5.3,8.59,7.54,13.12,6.76,13.69,10.41,28.4,10.87,43.71,.62,21-4.86,41.94-15.86,60.54-11.39,19.27-28.22,35.11-48.69,45.82-11.09,5.8-22.31,9.96-33.45,12.44l57.49-142.19Z"/><path d="M232.9,602.13c.03,.05,.07,.1,.1,.15,2.64,3.99,5.07,8.22,7.21,12.56,6.44,13.05,9.92,27.06,10.35,41.65,.59,20.05-4.65,40.06-15.17,57.85-10.91,18.47-27.06,33.66-46.7,43.93-7.56,3.95-15.16,7.11-22.75,9.47l53.74-132.92,13.22-32.69m-2.74-19.89l-5.4,13.35-14.35,35.48-60.89,150.61c14.11-2.01,28.79-6.7,43.81-14.55,44.2-23.12,68.53-67.11,67.23-110.94-.46-15.6-4.17-31.17-11.38-45.78-2.36-4.78-4.98-9.33-7.84-13.65-3.4-5.17-7.15-10.01-11.18-14.52h0Z"/></g><g><path class="cls-39" d="M847.44,1160.45c-10.15-22.62-16.01-46.64-17.45-71.54-.17-2.92-.31-5.97-.42-9.08-1.02-27.66,.73-54.6,5.2-80.11l18.54-45.88,31.88-78.83c3.54-5.08,7.34-10.16,11.29-15.09,1.52-1.9,2.89-3.57,4.18-5.09,7.09-8.46,14.75-16.59,22.8-24.18,19.56-18.43,41.69-34.03,65.76-46.37,4.14-2.12,8.44-4.19,12.81-6.17l-36.17,89.46-5.96,14.73-6.19,15.33-8.37,20.71h0l-97.89,242.11Z"/><path d="M992.56,788.17l-6.67,16.51-24.67,61.01-5.96,14.74-6.19,15.33-8.01,19.81-.72,1.8-64.25,158.89-28.69,70.97c-7.08-18.75-11.24-38.38-12.41-58.62-.17-2.9-.31-5.83-.42-8.97-1-27.11,.7-53.54,5.04-78.54l18.34-45.38,31.67-78.31c3.39-4.84,7.01-9.67,10.77-14.37,1.5-1.88,2.84-3.51,4.09-4.98l.02-.02,.02-.02c6.95-8.29,14.47-16.27,22.37-23.72,19.22-18.11,40.96-33.44,64.61-45.56,.36-.18,.72-.37,1.08-.55m18.64-19.43c-2.87,1.16-5.72,2.36-8.55,3.61-5.31,2.34-10.56,4.83-15.72,7.47-24.24,12.42-46.79,28.22-66.91,47.18-8.14,7.68-15.89,15.88-23.18,24.58-1.45,1.71-2.87,3.45-4.27,5.2-4.09,5.11-8.04,10.39-11.82,15.84h0l-32.08,79.34-18.74,46.37h0c-4.51,25.55-6.42,52.8-5.36,81.67,.11,3.05,.25,6.11,.43,9.19,1.76,30.38,9.85,58.37,22.84,83.61l37.52-92.8,64.97-160.68h0l8.01-19.82,6.19-15.33,5.96-14.73,24.67-61.01,8.5-21.03,7.54-18.66h0Z"/></g><g><path class="cls-40" d="M1116.08,1315.53c-68.74,0-138.42-22.65-191.84-62.26l13.04-32.26,.39-.94,46.14-114.14h0l9.72-24.05,74.03-183.12,4.62-11.42,54.51-134.84c24.01,.94,48.32,5.33,72.38,13.08l-205.34,507.87,98.27,39.73,93.52-231.31,63.47-156.99,1.27-3.13,25.69-63.56,17.27-42.72c4.07,3.15,8.16,6.48,12.16,9.92,16.02,13.75,30.51,29.04,43.12,45.46l-1.34,3.32-.44,1.07-11.62,28.75-32.72,80.92-37.68,93.21-78.97,195.33,50.68,20.49c-30.1,11.37-63.47,18.39-99.38,20.87-6.89,.48-13.95,.72-20.96,.72Z"/><path d="M1130.01,757.66c20.71,1.11,41.63,4.82,62.4,11.09l-45.42,112.33-6.77,16.75-10.36,25.62-61.78,152.81-77.1,190.69-3.75,9.27,9.27,3.75,63.02,25.48c-46.89-8.42-91.89-27.03-129.19-53.9l11.19-27.7,.02-.02,.76-1.87,45.78-113.24,.64-1.59,9.45-23.36,68.2-168.7,5.83-14.42,4.62-11.42,53.18-131.55m165.36,65.89c2.27,1.84,4.53,3.72,6.77,5.64,15.02,12.9,28.68,27.16,40.66,42.45l-.7,1.73-11.62,28.75-32.72,80.92-37.68,93.21-77.1,190.69-3.75,9.27,9.27,3.75,33.79,13.66c-26.34,8.65-55.03,14.09-85.6,16.2-6.78,.47-13.71,.71-20.61,.71-5.8,0-11.6-.16-17.4-.49l91.5-226.3,62.2-153.87h.01l2.53-6.25,25.69-63.56,14.77-36.52m-172-76.15l-55.82,138.07-4.62,11.42-5.83,14.42-68.2,168.7-10.09,24.94h0l-45.78,113.25-.02,.02-14.85,36.75c55.09,42.01,127.56,65.57,197.92,65.57,7.13,0,14.24-.24,21.3-.73,42.63-2.95,80.04-12.03,112.41-25.85l-57.54-23.26,77.1-190.69,37.68-93.21,32.72-80.92,11.62-28.75h.01l2.84-7.03c-13.43-17.84-28.79-34.08-45.57-48.49-4.24-3.64-8.56-7.16-12.98-10.56-1.53-1.18-3.07-2.35-4.62-3.49l-4.84,11.97-14.88,36.8-25.69,63.56h0l-64.73,160.12-91.65,226.67-89-35.98,77.1-190.69,61.78-152.81,10.36-25.62,6.77-16.75,49.45-122.3c-26.93-9.21-54.76-14.43-82.34-15.13h0Z"/></g><g><path class="cls-43" d="M1342.23,1169.2h0l46.98-116.17,16.06-39.74c1.52,15.07,1.89,30.25,1.09,45.32-.36,6.88-.98,13.87-1.85,20.76-6.75,53.98-28.22,103.07-62.11,141.97-10.37,11.92-21.92,22.87-34.47,32.7l34.3-84.84Z"/><path d="M1401.67,1035.54c.2,7.61,.1,15.23-.31,22.81-.35,6.76-.97,13.62-1.82,20.4-6.62,52.98-27.69,101.15-60.92,139.3-5.78,6.64-11.94,12.98-18.43,18.98l26.3-65.07,.68-1.68,35-86.55,11.66-28.84,7.83-19.37m6.06-41.67l-23.16,57.29-11.66,28.84-35.68,88.22h0l-40.5,100.19c18.86-12.81,35.32-27.56,49.44-43.78,35.95-41.27,56.73-92.06,63.3-144.63,.88-7.01,1.51-14.06,1.88-21.12,1.15-21.72-.08-43.57-3.62-65.01h0Z"/></g><g><path class="cls-44" d="M1547.71,853.08c1.33-22.43,5.84-43.56,13.5-63.07,2.03-5.17,4.31-10.28,6.77-15.19,7.4-14.76,16.63-28.15,27.55-40l-25.72,63.61h0l-22.09,54.65Z"/><path d="M1575.13,771.92l-9.6,23.74-.73,1.81h0l-1.86,4.61-3,7.43c1.69-6.03,3.67-11.92,5.92-17.66,1.98-5.04,4.2-10.01,6.58-14.78,.87-1.74,1.77-3.45,2.69-5.15m33.66-56.57c-18.33,15.23-33.86,34.44-45.29,57.24-2.52,5.03-4.84,10.23-6.95,15.6-10.34,26.36-15.55,56.83-13.98,90.94l29.64-73.3,2.59-6.41h0l33.99-84.07h0Z"/></g><g><path class="cls-41" d="M1675.09,1012.89c-24.01-5.62-46.67-15.53-65.99-28.86l35.85-88.68-.42-.47,.85-.58,11.05-27.32,75.8-187.47c10.86,.84,21.88,2.86,32.82,6.02,12.46,3.61,24.66,8.65,36.34,15.02l-126.29,312.35Z"/><path d="M1735.47,684.82c9.34,.95,18.79,2.8,28.18,5.51,10.72,3.11,21.25,7.31,31.41,12.52l-70.67,174.78-29.54,73.05-22.77,56.32c-20.51-5.27-39.9-13.75-56.83-24.86l33.17-82.04,1.02-2.52h0l1.14-2.82,10.48-25.91,74.41-184.03m-6.53-10.53l-77.15,190.82-10.48,25.91c-1.43,.97-2.88,1.93-4.34,2.86,.72,.83,1.45,1.66,2.18,2.48l-36.17,89.47c21.92,15.86,48.02,27.1,75.16,32.87l25.98-64.26,29.54-73.05,74.01-183.05c-13.13-7.55-27.02-13.49-41.24-17.61-12.35-3.57-24.95-5.77-37.49-6.44h0Z"/></g><g><path class="cls-42" d="M1881.14,786.07c5.26,12,9.04,24.49,11.27,37.28,7.72,44.17-1.52,89.46-25.35,124.27-4.21,6.16-8.93,12.06-14.05,17.56-13.16,14.14-29.04,25.69-47.2,34.33-4.27,2.03-8.7,3.91-13.25,5.63l88.58-219.07Z"/><path d="M1881.08,799.57c2.81,8.05,4.95,16.28,6.41,24.65,7.49,42.9-1.46,86.85-24.56,120.59-4.06,5.95-8.63,11.65-13.58,16.97-12.73,13.68-28.1,24.85-45.69,33.22-.66,.31-1.31,.62-1.98,.93l5.07-12.54,20.09-49.68,54.24-134.14m-.33-25.87l-63.18,156.26-20.09,49.68-7.6,18.8-6.06,15c8.54-2.66,16.58-5.81,24.14-9.41,19.38-9.22,35.58-21.33,48.71-35.44,5.35-5.74,10.19-11.8,14.52-18.14,25.59-37.38,33.8-84.15,26.15-127.95-3.04-17.41-8.76-33.77-16.59-48.8h0Z"/></g><g><path class="cls-26" d="M427.58,299.38c-12.16-16.21-22.68-33.76-31.34-52.28-4.79-10.27-8.85-21.17-12.07-32.44l1.54-3.83L502.76-78.66c25.89-13.09,55.88-21.25,87.28-23.77l-87.52,216.44-74.95,185.37Z"/><path d="M582.32-96.66L544.75-3.75l-46.86,115.89-47.27,116.92-24.3,60.09c-9.75-13.88-18.31-28.67-25.55-44.16-4.45-9.53-8.25-19.63-11.32-30.06l.89-2.21L474.83,3.75l8.6-21.26,23.25-57.52c22.68-11.2,48.51-18.57,75.63-21.63m15.34-11.27c-35.09,1.75-68.97,10.22-98.84,25.67l-24.66,61L465.56,0l-84.49,208.97-2.18,5.41c3.37,12.11,7.66,23.78,12.82,34.84,9.98,21.35,22.5,41.63,37.24,60.11l30.94-76.52,47.27-116.92L554.02,0l43.64-107.93h0Z"/></g><g><path class="cls-23" d="M579.31,398.99c-20.52-4.13-40.58-11.17-59.7-20.93-2.62-1.34-5.23-2.74-7.82-4.18L699.13-89.47c17.62,5.61,34.71,12.9,50.87,21.69,4.92,2.67,9.81,5.52,14.59,8.51L740.25,.93l-160.95,398.06Z"/><path d="M702.02-83.27c15.77,5.3,31.07,11.97,45.61,19.88,3.61,1.96,7.2,4.02,10.75,6.16l-21.63,53.49-1.13,2.79-96.69,239.14-59.05,146.05-3.64,9c-18.66-4.13-36.91-10.71-54.35-19.62-1.27-.65-2.54-1.31-3.8-1.99l29.98-74.14L666.83,3.75l35.19-87.02m-5.8-12.34L657.56,0l-118.76,293.74-33.29,82.33c3.88,2.25,7.82,4.4,11.82,6.45,20.27,10.35,42.07,17.96,65.07,22.16l6.75-16.69,59.05-146.05L744.89,2.8,746.02,0l24.77-61.27c-6.01-3.88-12.15-7.52-18.4-10.91-17.98-9.78-36.86-17.61-56.17-23.43h0Z"/></g><g><path class="cls-24" d="M764.27,224.3l32.29-79.85,50.22-124.23c5.97,9.03,11.4,18.49,16.21,28.23,10.27,20.79,17.27,42.94,20.8,65.82,.25,1.55,.48,3.13,.7,4.79l-35.87,88.73-28.33,70.05-24.88,61.54c-14.51,12.08-30.5,22.73-47.56,31.65-17.05,8.92-34.34,16.07-51.52,21.32l67.94-168.05Z"/><path d="M847.77,31.12c3.86,6.35,7.45,12.88,10.74,19.54,10.04,20.34,16.89,41.99,20.35,64.42,.17,1.09,.34,2.2,.5,3.34l-35.37,87.5-14.87,36.76-13.46,33.29-24.41,60.37c-13.98,11.53-29.35,21.7-45.71,30.26-13.43,7.02-27,12.93-40.54,17.65l63.91-158.08,32.29-79.85,46.58-115.2m-2.14-21.39l-53.71,132.85-32.29,79.85-71.78,177.54c20.35-5.38,41.17-13.45,62.31-24.5,18.08-9.46,34.58-20.58,49.41-33.05l25.35-62.7,13.46-33.29,14.87-36.76,36.36-89.94h0c-.26-2.08-.55-4.15-.88-6.22-3.55-22.97-10.57-45.62-21.26-67.27-6.4-12.96-13.72-25.14-21.84-36.51h0Z"/></g><path class="cls-1" d="M170.02,0l-8.3,20.53L96.82,181.03l-58.19,143.93L0,420.51V201.74L52,73.13v-.03c1.53-4.94,3.46-9.78,5.84-14.42L81.56,0h88.46Z"/><path class="cls-1" d="M57.4,753.42L0,895.39v-220.03c.28-.28,.56-.55,.84-.82l11.78-29.13c2.16-24.95,11.41-49.96,28.24-69.86l47.57-117.66,45.41-112.31L273.56,0h88.46l-90.95,224.93-65.5,162.02-32.01,79.17-29.04,71.83-6.39,15.8-21.99,54.38-58.74,145.29Z"/><path class="cls-1" d="M554.02,0l-46.86,115.89-47.27,116.92-30.94,76.52-25.05,61.97h0l-96.56,238.83c.16,.05,.32,.1,.48,.15-.4,.52-.78,1.03-1.16,1.55l-6.46,15.96h0l-14.72,36.43h-.01l-34.08,84.3-18.26,45.17h-.01l-115.75,286.31H28.91l78.87-195.09,41.74-103.23,60.89-150.61,14.35-35.48,5.4-13.35,43.83-108.41,11.12-27.5,93.78-231.95,2.18-5.41L465.56,0h88.46Z"/><polygon class="cls-1" points="746.02 0 744.89 2.8 648.2 241.94 589.15 387.99 582.4 404.68 543.88 499.95 529.17 536.34 486.64 641.54 486.63 641.54 476.95 665.48 453.72 722.95 367.98 935.02 345.59 990.38 309.36 1080 220.91 1080 282.69 927.18 304.46 873.34 385.83 672.09 390.96 659.41 392.92 654.55 450.91 511.12 505.51 376.07 538.8 293.74 657.56 0 746.02 0"/><path class="cls-1" d="M938.02,0l-44.08,109.01-4.33,10.71h0l-36.36,89.95-14.87,36.76-13.46,33.29-25.35,62.7-47.05,116.37-44.4,109.82-34.1,84.33-53.91,133.36h0l-20.76,51.37-84.49,208.95-13.49,33.38h-89.27c.51-.59,1.02-1.18,1.53-1.77l18.51-45.79,35.43-87.62,25.57-63.24,11.69-28.91,29.67-73.38,22.03-54.5,42.74-105.69,38.4-94.98,26.45-65.42,23.74-58.73,71.78-177.54,32.29-79.85L845.63,9.73l3.93-9.73h88.46Z"/><path class="cls-1" d="M1130.02,0l-31.25,77.29-74.88,185.21-3.45,8.53h-.01l-14.16,35.05-52.5,129.83h0l-3.51,8.7-53.13,131.4h0l-7.44,18.41h-.01l-15.93,39.42-29.61,73.24-35.15,86.93-.73,1.8h0c-.01,.09-.01,.17-.02,.25-.03-.02-.05-.04-.06-.06l-20.64,51.06-32.81,81.15-12.72,31.46-48.65,120.33h-88.45l19.31-47.76,67.7-167.45,1.75-4.33,34.9-86.31,24.53-60.67,23.42-57.93,.75-1.86,8.24-20.38,54.78-135.5,39.59-97.91,35.04-86.66,8.29-20.52,15.07-37.26,77.06-190.61L1041.56,0h88.46Z"/><path class="cls-1" d="M1322.02,0l-58.08,143.64-14.88,36.81-4.93,12.19-26.56,65.69c0,.23-.01,.46-.03,.68-.07-.02-.15-.03-.23-.03l-14.56,36.01-39.65,98.07h-.01l-70.15,173.53-15.38,38.02-66.35,164.13h-.01l-7.54,18.66-8.5,21.03-24.67,61.01-5.96,14.73-6.19,15.33-8.01,19.81h0l-64.97,160.69h-88.45l33.02-81.66h0l18.74-46.38,32.08-79.33h0l7.34-18.15,3.22-7.98,14.29-35.34,52.29-129.33,86.28-213.38,5.71-14.13,75.64-187.1,2.44-6.03,1.49-3.68,34.41-85.12,15.32-37.89L1233.56,0h88.46Z"/><path class="cls-1" d="M1514.02,0l-74.91,185.28-57.63,142.54-25.59,63.27-4.58,11.33-8.43,20.87-86.88,214.87-12.02,29.72-37.29,92.25c.43,1.07,.88,2.13,1.34,3.19-.77-.28-1.54-.55-2.31-.8l-49.45,122.3-6.77,16.75-10.36,25.62-61.78,152.81h-88.45l68.2-168.7,5.83-14.42,4.62-11.42,55.82-138.07,44.97-111.22,15.64-38.67,99.63-246.42,11.72-28.99,15.13-37.42,53.05-131.21L1425.56,0h88.46Z"/><polygon class="cls-1" points="1706.02 0 1565.25 348.17 1554.67 374.33 1511.28 481.66 1500.12 509.25 1453.43 624.74 1401.66 752.77 1354.23 870.09 1351.39 877.11 1351.38 877.12 1339.76 905.87 1307.04 986.79 1269.36 1080 1180.91 1080 1245.64 919.88 1245.65 919.88 1271.34 856.32 1286.22 819.52 1291.06 807.55 1347.03 669.11 1387.91 568.01 1387.91 568 1436.42 448.02 1453.95 404.67 1469.12 367.15 1515.92 251.4 1617.56 0 1706.02 0"/><path class="cls-1" d="M1898.02,0l-129.45,320.18h0l-61.38,151.83-15.7,38.84h0l-82.68,204.5-33.99,84.06h0l-2.59,6.42-29.64,73.3c.05,1.04,.1,2.08,.16,3.13,0,.12,0,.23,.02,.35-.62,.23-1.24,.46-1.86,.69l-21.29,52.65-49.85,123.29-8.39,20.76h-88.45l11.66-28.84,23.16-57.29,11.91-29.46,11.83-29.25,72.17-178.5,39.19-96.95,62.45-154.45,37.11-91.78,10.33-25.56L1809.56,0h88.46Z"/><polygon class="cls-1" points="1920 676.62 1920 895.39 1896.62 953.23 1896.61 953.23 1878.46 998.14 1871.66 1014.94 1845.36 1080 1756.91 1080 1768.91 1050.31 1783.82 1013.44 1789.88 998.44 1797.48 979.64 1817.57 929.96 1880.75 773.7 1920 676.62"/><path class="cls-1" d="M1920,201.74v218.77l-16.18,40.01-96.15,237.82-74.01,183.05-29.54,73.05-25.98,64.26-24.78,61.3h-88.45l38.07-94.17,36.17-89.47c-.73-.82-1.46-1.65-2.18-2.48,1.46-.93,2.91-1.89,4.34-2.86l10.48-25.91,77.15-190.82,34.55-85.46,37.15-91.89h0l78-192.93,41.35-102.27Z"/><path class="cls-3" d="M1542.75,882.61c-.62,.23-1.24,.46-1.86,.69l1.68-4.17c.05,1.04,.1,2.08,.16,3.13,0,.12,0,.23,.02,.35Z"/><path class="cls-3" d="M1641.31,891.02l-2.16,5.34c-.73-.82-1.46-1.65-2.18-2.48,1.46-.93,2.91-1.89,4.34-2.86Z"/><path class="cls-3" d="M1208.03,763.32c-.77-.28-1.54-.55-2.31-.8l.97-2.39c.43,1.07,.88,2.13,1.34,3.19Z"/><path class="cls-3" d="M1217.31,258.98l.26-.65c0,.23,0,.46-.03,.68-.07-.02-.15-.03-.23-.03Z"/><path class="cls-3" d="M808.26,795.82c-.01,.08-.01,.16-.02,.24-.03-.02-.05-.04-.06-.06l.08-.18Z"/><path class="cls-3" d="M413.62,1078.23l-.71,1.77h-.82c.51-.59,1.02-1.18,1.53-1.77Z"/><path class="cls-3" d="M307.81,610.28c-.4,.52-.78,1.03-1.16,1.55l.68-1.7c.16,.05,.32,.1,.48,.15Z"/><path class="cls-3" d="M-2.61,901.84L0,895.39v6.54c-.87-.02-1.74-.05-2.61-.09Z"/><path class="cls-3" d="M0,425.8c-.59-.31-1.18-.63-1.76-.94L0,420.51v5.29Z"/><path class="cls-3" d="M0,675.36c.28-.28,.56-.55,.84-.82L0,676.62v-1.26Z"/><path class="cls-3" d="M40.86,575.55l-28.24,69.86c2.16-24.95,11.41-49.96,28.24-69.86Z"/><path class="cls-3" d="M57.84,58.68l-5.83,14.42c1.52-4.94,3.45-9.78,5.83-14.42Z"/><path class="cls-1" d="M1205.72,762.52l-49.45,122.3-6.77,16.75-10.36,25.62-61.78,152.81h-280.45l33.02-81.66h0l18.74-46.38,32.08-79.33h0l7.34-18.15,3.22-7.98,14.29-35.34,52.29-129.33,86.28-213.38,5.71-14.13,75.64-187.1,2.44-6.03,1.49-3.68,34.41-85.12,15.32-37.89L1233.56,0h280.46l-74.91,185.28-57.63,142.54-25.59,63.27-4.58,11.33-8.43,20.87-86.88,214.87-12.02,29.72-37.29,92.25c.43,1.07,.88,2.13,1.34,3.19-.77-.28-1.54-.55-2.31-.8Z"/><polygon class="cls-1" points="1920 0 1920 1080 1180.91 1080 1245.64 919.88 1245.65 919.88 1271.34 856.32 1286.22 819.52 1291.06 807.55 1347.03 669.11 1387.91 568.01 1387.91 568 1436.42 448.02 1453.95 404.67 1469.12 367.15 1515.92 251.4 1617.56 0 1920 0"/></g></svg>